<?xml version="1.0" encoding="UTF-8" standalone="no"?>
<!DOCTYPE svg PUBLIC "-//W3C//DTD SVG 1.1//EN"
 "http://www.w3.org/Graphics/SVG/1.1/DTD/svg11.dtd">
<!-- Generated by graphviz version 2.40.1 (20161225.0304)
 -->
<!-- Pages: 1 -->
<svg width="465pt" height="379pt"
 viewBox="0.00 0.00 464.50 378.50" xmlns="http://www.w3.org/2000/svg" xmlns:xlink="http://www.w3.org/1999/xlink">
<g id="graph0" class="graph" transform="scale(1 1) rotate(0) translate(4 374.5)">
<polygon fill="#ffffff" stroke="transparent" points="-4,4 -4,-374.5 460.5,-374.5 460.5,4 -4,4"/>
<!-- Mood -->
<g id="node1" class="node">
<title>Mood</title>
<ellipse fill="none" stroke="#000000" cx="143" cy="-290.5" rx="80" ry="80"/>
<text text-anchor="middle" x="143" y="-286.8" font-family="Times,serif" font-size="14.00" fill="#000000">Mood</text>
</g>
<!-- Anxiety -->
<g id="node2" class="node">
<title>Anxiety</title>
<ellipse fill="none" stroke="#000000" cx="48.5" cy="-48.5" rx="48.5" ry="48.5"/>
<text text-anchor="middle" x="48.5" y="-44.8" font-family="Times,serif" font-size="14.00" fill="#000000">Anxiety</text>
</g>
<!-- Sleep -->
<g id="node3" class="node">
<title>Sleep</title>
<ellipse fill="none" stroke="#000000" cx="204" cy="-48.5" rx="35" ry="35"/>
<text text-anchor="middle" x="204" y="-44.8" font-family="Times,serif" font-size="14.00" fill="#000000">Sleep</text>
</g>
<!-- Anxiety&#45;&gt;Sleep -->
<g id="edge1" class="edge">
<title>Anxiety&#45;&gt;Sleep</title>
<path fill="none" stroke="#000000" stroke-width="5" d="M97.275,-48.5C118.26,-48.5 142.53,-48.5 162.63,-48.5"/>
<polygon fill="#000000" stroke="#000000" stroke-width="5" points="162.72,-51.1251 168.72,-48.5 162.72,-45.8751 162.72,-51.1251"/>
</g>
<!-- Social -->
<g id="node4" class="node">
<title>Social</title>
<ellipse fill="none" stroke="#000000" cx="350.5" cy="-48.5" rx="39.5" ry="39.5"/>
<text text-anchor="middle" x="350.5" y="-44.8" font-family="Times,serif" font-size="14.00" fill="#000000">Social</text>
</g>
<!-- Sleep&#45;&gt;Social -->
<g id="edge2" class="edge">
<title>Sleep&#45;&gt;Social</title>
<path fill="none" stroke="#000000" stroke-width="20" d="M239.09,-48.5C258.74,-48.5 283.46,-48.5 304.63,-48.5"/>
<polygon fill="#000000" stroke="#000000" stroke-width="20" points="304.7802,-59.0001 310.78,-48.5 304.7798,-38.0001 304.7802,-59.0001"/>
</g>
<!-- Psychosis -->
<g id="node5" class="node">
<title>Psychosis</title>
<ellipse fill="none" stroke="#000000" cx="365" cy="-218.5" rx="91.5" ry="91.5"/>
<text text-anchor="middle" x="365" y="-214.8" font-family="Times,serif" font-size="14.00" fill="#000000">Psychosis</text>
</g>
</g>
</svg>
