<?xml version="1.0" encoding="UTF-8" standalone="no"?>
<!DOCTYPE svg PUBLIC "-//W3C//DTD SVG 1.1//EN"
 "http://www.w3.org/Graphics/SVG/1.1/DTD/svg11.dtd">
<!-- Generated by graphviz version 2.40.1 (20161225.0304)
 -->
<!-- Pages: 1 -->
<svg width="703pt" height="320pt"
 viewBox="0.00 0.00 703.00 320.00" xmlns="http://www.w3.org/2000/svg" xmlns:xlink="http://www.w3.org/1999/xlink">
<g id="graph0" class="graph" transform="scale(1 1) rotate(0) translate(4 316)">
<polygon fill="#ffffff" stroke="transparent" points="-4,4 -4,-316 699,-316 699,4 -4,4"/>
<!-- Mood -->
<g id="node1" class="node">
<title>Mood</title>
<ellipse fill="none" stroke="#000000" cx="36" cy="-129" rx="36" ry="36"/>
<text text-anchor="middle" x="36" y="-125.3" font-family="Times,serif" font-size="14.00" fill="#000000">Mood</text>
</g>
<!-- Anxiety -->
<g id="node2" class="node">
<title>Anxiety</title>
<ellipse fill="none" stroke="#000000" cx="180" cy="-129" rx="36" ry="36"/>
<text text-anchor="middle" x="180" y="-125.3" font-family="Times,serif" font-size="14.00" fill="#000000">Anxiety</text>
</g>
<!-- Anxiety&#45;&gt;Mood -->
<g id="edge1" class="edge">
<title>Anxiety&#45;&gt;Mood</title>
<path fill="none" stroke="#000000" stroke-width="6.6667" d="M143.66,-129C123.72,-129 98.891,-129 78.105,-129"/>
<polygon fill="#000000" stroke="#000000" stroke-width="6.6667" points="78.0761,-125.5001 72.076,-129 78.0759,-132.5001 78.0761,-125.5001"/>
</g>
<!-- Psychosis -->
<g id="node3" class="node">
<title>Psychosis</title>
<ellipse fill="none" stroke="#000000" cx="566" cy="-129" rx="129" ry="129"/>
<text text-anchor="middle" x="566" y="-125.3" font-family="Times,serif" font-size="14.00" fill="#000000">Psychosis</text>
</g>
<!-- Sleep -->
<g id="node4" class="node">
<title>Sleep</title>
<ellipse fill="none" stroke="#000000" cx="326.5" cy="-129" rx="38.5" ry="38.5"/>
<text text-anchor="middle" x="326.5" y="-125.3" font-family="Times,serif" font-size="14.00" fill="#000000">Sleep</text>
</g>
<!-- Psychosis&#45;&gt;Sleep -->
<g id="edge2" class="edge">
<title>Psychosis&#45;&gt;Sleep</title>
<path fill="none" stroke="#000000" stroke-width="5" d="M437.14,-122.27C413.36,-122.36 390.07,-122.81 371.04,-123.61"/>
<polygon fill="#000000" stroke="#000000" stroke-width="5" points="370.6227,-121.0014 364.75,-123.9 370.8646,-126.2458 370.6227,-121.0014"/>
</g>
<!-- Sleep&#45;&gt;Anxiety -->
<g id="edge3" class="edge">
<title>Sleep&#45;&gt;Anxiety</title>
<path fill="none" stroke="#000000" stroke-width="6.6667" d="M287.63,-129C267.5,-129 242.89,-129 222.29,-129"/>
<polygon fill="#000000" stroke="#000000" stroke-width="6.6667" points="222.0401,-125.5001 216.04,-129 222.0399,-132.5001 222.0401,-125.5001"/>
</g>
<!-- Sleep&#45;&gt;Psychosis -->
<g id="edge4" class="edge">
<title>Sleep&#45;&gt;Psychosis</title>
<path fill="none" stroke="#000000" stroke-width="20" d="M364.71,-134.1C383.22,-135.01 406.67,-135.54 430.98,-135.7"/>
<polygon fill="#000000" stroke="#000000" stroke-width="20" points="431.119,-146.2007 437.17,-135.73 431.2211,-125.2009 431.119,-146.2007"/>
</g>
<!-- Social -->
<g id="node5" class="node">
<title>Social</title>
<ellipse fill="none" stroke="#000000" cx="342.5" cy="-275" rx="37" ry="37"/>
<text text-anchor="middle" x="342.5" y="-271.3" font-family="Times,serif" font-size="14.00" fill="#000000">Social</text>
</g>
</g>
</svg>
