<?xml version="1.0" encoding="UTF-8" standalone="no"?>
<!DOCTYPE svg PUBLIC "-//W3C//DTD SVG 1.1//EN"
 "http://www.w3.org/Graphics/SVG/1.1/DTD/svg11.dtd">
<!-- Generated by graphviz version 2.40.1 (20161225.0304)
 -->
<!-- Pages: 1 -->
<svg width="376pt" height="383pt"
 viewBox="0.00 0.00 375.78 383.06" xmlns="http://www.w3.org/2000/svg" xmlns:xlink="http://www.w3.org/1999/xlink">
<g id="graph0" class="graph" transform="scale(1 1) rotate(0) translate(4 379.06)">
<polygon fill="#ffffff" stroke="transparent" points="-4,4 -4,-379.06 371.78,-379.06 371.78,4 -4,4"/>
<!-- Mood -->
<g id="node1" class="node">
<title>Mood</title>
<ellipse fill="none" stroke="#000000" cx="184.78" cy="-44" rx="44" ry="44"/>
<text text-anchor="middle" x="184.78" y="-40.3" font-family="Times,serif" font-size="14.00" fill="#000000">Mood</text>
</g>
<!-- Anxiety -->
<g id="node2" class="node">
<title>Anxiety</title>
<ellipse fill="none" stroke="#000000" cx="53" cy="-175.78" rx="53" ry="53"/>
<text text-anchor="middle" x="53" y="-172.08" font-family="Times,serif" font-size="14.00" fill="#000000">Anxiety</text>
</g>
<!-- Mood&#45;&gt;Anxiety -->
<g id="edge1" class="edge">
<title>Mood&#45;&gt;Anxiety</title>
<path fill="none" stroke="#000000" stroke-width="20" d="M149.77,-70.781C131.35,-87.727 108.82,-110.03 90.103,-129.73"/>
<polygon fill="#000000" stroke="#000000" stroke-width="20" points="82.4026,-122.5912 85.926,-134.16 97.6818,-136.9978 82.4026,-122.5912"/>
</g>
<!-- Psychosis -->
<g id="node3" class="node">
<title>Psychosis</title>
<ellipse fill="none" stroke="#000000" cx="184.78" cy="-307.56" rx="67.5" ry="67.5"/>
<text text-anchor="middle" x="184.78" y="-303.86" font-family="Times,serif" font-size="14.00" fill="#000000">Psychosis</text>
</g>
<!-- Mood&#45;&gt;Psychosis -->
<g id="edge2" class="edge">
<title>Mood&#45;&gt;Psychosis</title>
<path fill="none" stroke="#000000" stroke-width="10" d="M179.6,-87.818C177.9,-127.53 177.58,-186.86 178.65,-233.87"/>
<polygon fill="#000000" stroke="#000000" stroke-width="10" points="173.4075,-234.2478 178.8,-240.12 183.9044,-233.9957 173.4075,-234.2478"/>
</g>
<!-- Anxiety&#45;&gt;Mood -->
<g id="edge3" class="edge">
<title>Anxiety&#45;&gt;Mood</title>
<path fill="none" stroke="#000000" stroke-width="8" d="M94.763,-142.72C113.72,-124.92 135.74,-102.86 153.29,-84.094"/>
<polygon fill="#000000" stroke="#000000" stroke-width="8" points="156.6438,-86.6539 157.64,-79.398 150.4814,-80.9455 156.6438,-86.6539"/>
</g>
<!-- Anxiety&#45;&gt;Psychosis -->
<g id="edge4" class="edge">
<title>Anxiety&#45;&gt;Psychosis</title>
<path fill="none" stroke="#000000" stroke-width="13.3333" d="M86.058,-217.54C98.749,-231.06 113.6,-246.13 127.89,-260.03"/>
<polygon fill="#000000" stroke="#000000" stroke-width="13.3333" points="123.1201,-265.1553 132.3,-264.3 132.8588,-255.0973 123.1201,-265.1553"/>
</g>
<!-- Psychosis&#45;&gt;Mood -->
<g id="edge5" class="edge">
<title>Psychosis&#45;&gt;Mood</title>
<path fill="none" stroke="#000000" stroke-width="10" d="M190.76,-240.03C191.95,-194.48 191.76,-135.36 190.21,-94.012"/>
<polygon fill="#000000" stroke="#000000" stroke-width="10" points="195.4467,-93.5733 189.96,-87.789 184.9552,-93.995 195.4467,-93.5733"/>
</g>
<!-- Psychosis&#45;&gt;Anxiety -->
<g id="edge6" class="edge">
<title>Psychosis&#45;&gt;Anxiety</title>
<path fill="none" stroke="#000000" stroke-width="20" d="M141.81,-255.38C128.29,-241.34 113.31,-226.45 99.558,-213.37"/>
<polygon fill="#000000" stroke="#000000" stroke-width="20" points="106.5166,-205.4992 94.944,-209.01 92.0934,-220.7627 106.5166,-205.4992"/>
</g>
<!-- Sleep -->
<g id="node4" class="node">
<title>Sleep</title>
<ellipse fill="none" stroke="#000000" cx="316.56" cy="-175.78" rx="42" ry="42"/>
<text text-anchor="middle" x="316.56" y="-172.08" font-family="Times,serif" font-size="14.00" fill="#000000">Sleep</text>
</g>
<!-- Psychosis&#45;&gt;Sleep -->
<g id="edge7" class="edge">
<title>Psychosis&#45;&gt;Sleep</title>
<path fill="none" stroke="#000000" stroke-width="4.6154" d="M236.96,-264.59C253.99,-248.19 272.28,-229.65 287.05,-213.74"/>
<polygon fill="#000000" stroke="#000000" stroke-width="4.6154" points="288.8314,-215.3826 291.12,-209.33 285.2701,-212.0959 288.8314,-215.3826"/>
</g>
<!-- Sleep&#45;&gt;Mood -->
<g id="edge8" class="edge">
<title>Sleep&#45;&gt;Mood</title>
<path fill="none" stroke="#000000" stroke-width="6.6667" d="M286.66,-145.88C266.95,-126.17 241.04,-100.26 220.29,-79.506"/>
<polygon fill="#000000" stroke="#000000" stroke-width="6.6667" points="222.6584,-76.9247 215.94,-75.16 217.7109,-81.8767 222.6584,-76.9247"/>
</g>
<!-- Sleep&#45;&gt;Psychosis -->
<g id="edge9" class="edge">
<title>Sleep&#45;&gt;Psychosis</title>
<path fill="none" stroke="#000000" stroke-width="20" d="M282.93,-201.3C267.45,-215.47 248.84,-233.67 232,-250.99"/>
<polygon fill="#000000" stroke="#000000" stroke-width="20" points="224.3794,-243.7657 227.75,-255.38 239.4674,-258.3726 224.3794,-243.7657"/>
</g>
<!-- Social -->
<g id="node5" class="node">
<title>Social</title>
<ellipse fill="none" stroke="#000000" cx="333.78" cy="-333.78" rx="34" ry="34"/>
<text text-anchor="middle" x="333.78" y="-330.08" font-family="Times,serif" font-size="14.00" fill="#000000">Social</text>
</g>
</g>
</svg>
