<?xml version="1.0" encoding="UTF-8" standalone="no"?>
<!DOCTYPE svg PUBLIC "-//W3C//DTD SVG 1.1//EN"
 "http://www.w3.org/Graphics/SVG/1.1/DTD/svg11.dtd">
<!-- Generated by graphviz version 2.40.1 (20161225.0304)
 -->
<!-- Pages: 1 -->
<svg width="540pt" height="442pt"
 viewBox="0.00 0.00 540.12 442.12" xmlns="http://www.w3.org/2000/svg" xmlns:xlink="http://www.w3.org/1999/xlink">
<g id="graph0" class="graph" transform="scale(1 1) rotate(0) translate(4 438.12)">
<polygon fill="#ffffff" stroke="transparent" points="-4,4 -4,-438.12 536.12,-438.12 536.12,4 -4,4"/>
<!-- Mood -->
<g id="node1" class="node">
<title>Mood</title>
<ellipse fill="none" stroke="#000000" cx="60" cy="-195.06" rx="60" ry="60"/>
<text text-anchor="middle" x="60" y="-191.36" font-family="Times,serif" font-size="14.00" fill="#000000">Mood</text>
</g>
<!-- Anxiety -->
<g id="node2" class="node">
<title>Anxiety</title>
<ellipse fill="none" stroke="#000000" cx="214.06" cy="-349.12" rx="85" ry="85"/>
<text text-anchor="middle" x="214.06" y="-345.42" font-family="Times,serif" font-size="14.00" fill="#000000">Anxiety</text>
</g>
<!-- Mood&#45;&gt;Anxiety -->
<g id="edge1" class="edge">
<title>Mood&#45;&gt;Anxiety</title>
<path fill="none" stroke="#000000" stroke-width="20" d="M98.187,-241.89C112.35,-256.87 128.87,-273.65 144.93,-289.42"/>
<polygon fill="#000000" stroke="#000000" stroke-width="20" points="137.8053,-297.1394 149.44,-293.84 152.5043,-282.1412 137.8053,-297.1394"/>
</g>
<!-- Sleep -->
<g id="node3" class="node">
<title>Sleep</title>
<ellipse fill="none" stroke="#000000" cx="214.06" cy="-41" rx="41" ry="41"/>
<text text-anchor="middle" x="214.06" y="-37.3" font-family="Times,serif" font-size="14.00" fill="#000000">Sleep</text>
</g>
<!-- Mood&#45;&gt;Sleep -->
<g id="edge2" class="edge">
<title>Mood&#45;&gt;Sleep</title>
<path fill="none" stroke="#000000" stroke-width="13.3333" d="M102.51,-152.56C127.05,-128.01 157.5,-97.56 180.38,-74.68"/>
<polygon fill="#000000" stroke="#000000" stroke-width="13.3333" points="185.5581,-79.4014 184.85,-70.209 175.6575,-69.5029 185.5581,-79.4014"/>
</g>
<!-- Anxiety&#45;&gt;Mood -->
<g id="edge3" class="edge">
<title>Anxiety&#45;&gt;Mood</title>
<path fill="none" stroke="#000000" stroke-width="6.6667" d="M158.72,-284.45C143.3,-268.63 126.62,-252.11 111.43,-237.62"/>
<polygon fill="#000000" stroke="#000000" stroke-width="6.6667" points="113.5301,-234.7873 106.77,-233.19 108.7071,-239.8607 113.5301,-234.7873"/>
</g>
<!-- Anxiety&#45;&gt;Sleep -->
<g id="edge4" class="edge">
<title>Anxiety&#45;&gt;Sleep</title>
<path fill="none" stroke="#000000" stroke-width="8" d="M220.17,-264.11C221.3,-207.34 220.94,-134.8 219.08,-88.12"/>
<polygon fill="#000000" stroke="#000000" stroke-width="8" points="223.2712,-87.8157 218.83,-81.992 214.8782,-88.1583 223.2712,-87.8157"/>
</g>
<!-- Sleep&#45;&gt;Anxiety -->
<g id="edge5" class="edge">
<title>Sleep&#45;&gt;Anxiety</title>
<path fill="none" stroke="#000000" stroke-width="20" d="M209.3,-81.916C207.29,-126.54 206.81,-199.38 207.84,-257.75"/>
<polygon fill="#000000" stroke="#000000" stroke-width="20" points="197.3471,-258.2538 207.95,-264.07 218.3439,-257.888 197.3471,-258.2538"/>
</g>
<!-- Psychosis -->
<g id="node4" class="node">
<title>Psychosis</title>
<ellipse fill="none" stroke="#000000" cx="486.12" cy="-195.06" rx="46" ry="46"/>
<text text-anchor="middle" x="486.12" y="-191.36" font-family="Times,serif" font-size="14.00" fill="#000000">Psychosis</text>
</g>
<!-- Social -->
<g id="node5" class="node">
<title>Social</title>
<ellipse fill="none" stroke="#000000" cx="368.12" cy="-195.06" rx="36.5" ry="36.5"/>
<text text-anchor="middle" x="368.12" y="-191.36" font-family="Times,serif" font-size="14.00" fill="#000000">Social</text>
</g>
<!-- Social&#45;&gt;Anxiety -->
<g id="edge6" class="edge">
<title>Social&#45;&gt;Anxiety</title>
<path fill="none" stroke="#000000" stroke-width="20" d="M341.99,-221.2C324.61,-238.58 300.96,-262.23 278.73,-284.46"/>
<polygon fill="#000000" stroke="#000000" stroke-width="20" points="271.1312,-277.2091 274.3,-288.88 285.9637,-292.0752 271.1312,-277.2091"/>
</g>
<!-- Social&#45;&gt;Sleep -->
<g id="edge7" class="edge">
<title>Social&#45;&gt;Sleep</title>
<path fill="none" stroke="#000000" stroke-width="10" d="M341.99,-168.93C315.99,-142.93 276,-102.94 247.66,-74.599"/>
<polygon fill="#000000" stroke="#000000" stroke-width="10" points="251.1748,-70.6889 243.22,-70.155 243.7468,-78.1102 251.1748,-70.6889"/>
</g>
<!-- Social&#45;&gt;Psychosis -->
<g id="edge8" class="edge">
<title>Social&#45;&gt;Psychosis</title>
<path fill="none" stroke="#000000" stroke-width="6.6667" d="M404.81,-195.06C414,-195.06 424.04,-195.06 433.82,-195.06"/>
<polygon fill="#000000" stroke="#000000" stroke-width="6.6667" points="433.8701,-198.5601 439.87,-195.06 433.8699,-191.5601 433.8701,-198.5601"/>
</g>
</g>
</svg>
