<?xml version="1.0" encoding="UTF-8" standalone="no"?>
<!DOCTYPE svg PUBLIC "-//W3C//DTD SVG 1.1//EN"
 "http://www.w3.org/Graphics/SVG/1.1/DTD/svg11.dtd">
<!-- Generated by graphviz version 2.40.1 (20161225.0304)
 -->
<!-- Pages: 1 -->
<svg width="385pt" height="94pt"
 viewBox="0.00 0.00 385.00 94.00" xmlns="http://www.w3.org/2000/svg" xmlns:xlink="http://www.w3.org/1999/xlink">
<g id="graph0" class="graph" transform="scale(1 1) rotate(0) translate(4 90)">
<polygon fill="#ffffff" stroke="transparent" points="-4,4 -4,-90 381,-90 381,4 -4,4"/>
<!-- Mood -->
<g id="node1" class="node">
<title>Mood</title>
<ellipse fill="none" stroke="#000000" cx="43" cy="-43" rx="43" ry="43"/>
<text text-anchor="middle" x="43" y="-39.3" font-family="Times,serif" font-size="14.00" fill="#000000">Mood</text>
</g>
<!-- Anxiety -->
<g id="node2" class="node">
<title>Anxiety</title>
<ellipse fill="none" stroke="#000000" cx="336" cy="-43" rx="41" ry="41"/>
<text text-anchor="middle" x="336" y="-39.3" font-family="Times,serif" font-size="14.00" fill="#000000">Anxiety</text>
</g>
<!-- Sleep -->
<g id="node3" class="node">
<title>Sleep</title>
<ellipse fill="none" stroke="#000000" cx="190.5" cy="-43" rx="32.5" ry="32.5"/>
<text text-anchor="middle" x="190.5" y="-39.3" font-family="Times,serif" font-size="14.00" fill="#000000">Sleep</text>
</g>
<!-- Sleep&#45;&gt;Mood -->
<g id="edge1" class="edge">
<title>Sleep&#45;&gt;Mood</title>
<path fill="none" stroke="#000000" stroke-width="20" d="M157.76,-43C138.45,-43 113.63,-43 92.011,-43"/>
<polygon fill="#000000" stroke="#000000" stroke-width="20" points="92.0072,-32.5001 86.007,-43 92.0068,-53.5001 92.0072,-32.5001"/>
</g>
<!-- Sleep&#45;&gt;Anxiety -->
<g id="edge2" class="edge">
<title>Sleep&#45;&gt;Anxiety</title>
<path fill="none" stroke="#000000" stroke-width="20" d="M223.15,-43C242.45,-43 267.21,-43 288.62,-43"/>
<polygon fill="#000000" stroke="#000000" stroke-width="20" points="288.8602,-53.5001 294.86,-43 288.8598,-32.5001 288.8602,-53.5001"/>
</g>
</g>
</svg>
