<?xml version="1.0" encoding="UTF-8" standalone="no"?>
<!DOCTYPE svg PUBLIC "-//W3C//DTD SVG 1.1//EN"
 "http://www.w3.org/Graphics/SVG/1.1/DTD/svg11.dtd">
<!-- Generated by graphviz version 2.40.1 (20161225.0304)
 -->
<!-- Pages: 1 -->
<svg width="569pt" height="352pt"
 viewBox="0.00 0.00 569.00 352.00" xmlns="http://www.w3.org/2000/svg" xmlns:xlink="http://www.w3.org/1999/xlink">
<g id="graph0" class="graph" transform="scale(1 1) rotate(0) translate(4 348)">
<polygon fill="#ffffff" stroke="transparent" points="-4,4 -4,-348 565,-348 565,4 -4,4"/>
<!-- Mood -->
<g id="node1" class="node">
<title>Mood</title>
<ellipse fill="none" stroke="#000000" cx="358" cy="-54" rx="54" ry="54"/>
<text text-anchor="middle" x="358" y="-50.3" font-family="Times,serif" font-size="14.00" fill="#000000">Mood</text>
</g>
<!-- Sleep -->
<g id="node2" class="node">
<title>Sleep</title>
<ellipse fill="none" stroke="#000000" cx="522.5" cy="-54" rx="38.5" ry="38.5"/>
<text text-anchor="middle" x="522.5" y="-50.3" font-family="Times,serif" font-size="14.00" fill="#000000">Sleep</text>
</g>
<!-- Mood&#45;&gt;Sleep -->
<g id="edge1" class="edge">
<title>Mood&#45;&gt;Sleep</title>
<path fill="none" stroke="#000000" stroke-width="10" d="M412.32,-54C433.52,-54 457.53,-54 477.72,-54"/>
<polygon fill="#000000" stroke="#000000" stroke-width="10" points="477.8501,-59.2501 483.85,-54 477.8499,-48.7501 477.8501,-59.2501"/>
</g>
<!-- Anxiety -->
<g id="node3" class="node">
<title>Anxiety</title>
<ellipse fill="none" stroke="#000000" cx="342.5" cy="-191" rx="39.5" ry="39.5"/>
<text text-anchor="middle" x="342.5" y="-187.3" font-family="Times,serif" font-size="14.00" fill="#000000">Anxiety</text>
</g>
<!-- Psychosis -->
<g id="node4" class="node">
<title>Psychosis</title>
<ellipse fill="none" stroke="#000000" cx="132.5" cy="-171" rx="132.5" ry="132.5"/>
<text text-anchor="middle" x="132.5" y="-167.3" font-family="Times,serif" font-size="14.00" fill="#000000">Psychosis</text>
</g>
<!-- Social -->
<g id="node5" class="node">
<title>Social</title>
<ellipse fill="none" stroke="#000000" cx="342.5" cy="-305" rx="39" ry="39"/>
<text text-anchor="middle" x="342.5" y="-301.3" font-family="Times,serif" font-size="14.00" fill="#000000">Social</text>
</g>
</g>
</svg>
