<?xml version="1.0" encoding="UTF-8" standalone="no"?>
<!DOCTYPE svg PUBLIC "-//W3C//DTD SVG 1.1//EN"
 "http://www.w3.org/Graphics/SVG/1.1/DTD/svg11.dtd">
<!-- Generated by graphviz version 2.40.1 (20161225.0304)
 -->
<!-- Pages: 1 -->
<svg width="528pt" height="280pt"
 viewBox="0.00 0.00 527.86 280.30" xmlns="http://www.w3.org/2000/svg" xmlns:xlink="http://www.w3.org/1999/xlink">
<g id="graph0" class="graph" transform="scale(1 1) rotate(0) translate(4 276.3)">
<polygon fill="#ffffff" stroke="transparent" points="-4,4 -4,-276.3 523.86,-276.3 523.86,4 -4,4"/>
<!-- Mood -->
<g id="node1" class="node">
<title>Mood</title>
<ellipse fill="none" stroke="#000000" cx="193.86" cy="-136.65" rx="53" ry="53"/>
<text text-anchor="middle" x="193.86" y="-132.95" font-family="Times,serif" font-size="14.00" fill="#000000">Mood</text>
</g>
<!-- Psychosis -->
<g id="node2" class="node">
<title>Psychosis</title>
<ellipse fill="none" stroke="#000000" cx="311.86" cy="-136.65" rx="46" ry="46"/>
<text text-anchor="middle" x="311.86" y="-132.95" font-family="Times,serif" font-size="14.00" fill="#000000">Psychosis</text>
</g>
<!-- Mood&#45;&gt;Psychosis -->
<g id="edge1" class="edge">
<title>Mood&#45;&gt;Psychosis</title>
<path fill="none" stroke="#000000" stroke-width="6.6667" d="M246.65,-143.37C251.12,-143.42 255.64,-143.41 260.1,-143.36"/>
<polygon fill="#000000" stroke="#000000" stroke-width="6.6667" points="260.2147,-146.8586 266.15,-143.25 260.0873,-139.8597 260.2147,-146.8586"/>
</g>
<!-- Social -->
<g id="node3" class="node">
<title>Social</title>
<ellipse fill="none" stroke="#000000" cx="58.5" cy="-58.5" rx="58.5" ry="58.5"/>
<text text-anchor="middle" x="58.5" y="-54.8" font-family="Times,serif" font-size="14.00" fill="#000000">Social</text>
</g>
<!-- Mood&#45;&gt;Social -->
<g id="edge2" class="edge">
<title>Mood&#45;&gt;Social</title>
<path fill="none" stroke="#000000" stroke-width="10" d="M147.66,-109.97C137.13,-103.89 125.82,-97.368 114.92,-91.072"/>
<polygon fill="#000000" stroke="#000000" stroke-width="10" points="117.4204,-86.4535 109.6,-88.004 112.1749,-95.5494 117.4204,-86.4535"/>
</g>
<!-- Psychosis&#45;&gt;Mood -->
<g id="edge3" class="edge">
<title>Psychosis&#45;&gt;Mood</title>
<path fill="none" stroke="#000000" stroke-width="20" d="M266.24,-130.06C261.78,-129.95 257.21,-129.9 252.65,-129.9"/>
<polygon fill="#000000" stroke="#000000" stroke-width="20" points="252.3721,-119.4015 246.44,-129.94 252.5077,-140.401 252.3721,-119.4015"/>
</g>
<!-- Sleep -->
<g id="node4" class="node">
<title>Sleep</title>
<ellipse fill="none" stroke="#000000" cx="58.5" cy="-214.8" rx="57.5" ry="57.5"/>
<text text-anchor="middle" x="58.5" y="-211.1" font-family="Times,serif" font-size="14.00" fill="#000000">Sleep</text>
</g>
<!-- Social&#45;&gt;Sleep -->
<g id="edge4" class="edge">
<title>Social&#45;&gt;Sleep</title>
<path fill="none" stroke="#000000" stroke-width="8.5714" d="M51.949,-116.7C51.719,-127.98 51.688,-139.85 51.856,-151.29"/>
<polygon fill="#000000" stroke="#000000" stroke-width="8.5714" points="47.3621,-151.6725 51.97,-157.59 56.3606,-151.5095 47.3621,-151.6725"/>
</g>
<!-- Sleep&#45;&gt;Mood -->
<g id="edge5" class="edge">
<title>Sleep&#45;&gt;Mood</title>
<path fill="none" stroke="#000000" stroke-width="5" d="M108.52,-185.92C119.52,-179.57 131.19,-172.83 142.26,-166.44"/>
<polygon fill="#000000" stroke="#000000" stroke-width="5" points="143.7461,-168.6132 147.63,-163.34 141.1213,-164.0664 143.7461,-168.6132"/>
</g>
<!-- Sleep&#45;&gt;Social -->
<g id="edge6" class="edge">
<title>Sleep&#45;&gt;Social</title>
<path fill="none" stroke="#000000" stroke-width="15" d="M65.032,-157.49C65.271,-146.31 65.313,-134.53 65.159,-123.14"/>
<polygon fill="#000000" stroke="#000000" stroke-width="15" points="73.0281,-122.7176 65.054,-116.85 57.2803,-122.9807 73.0281,-122.7176"/>
</g>
<!-- Anxiety -->
<g id="node5" class="node">
<title>Anxiety</title>
<ellipse fill="none" stroke="#000000" cx="474.86" cy="-136.65" rx="45" ry="45"/>
<text text-anchor="middle" x="474.86" y="-132.95" font-family="Times,serif" font-size="14.00" fill="#000000">Anxiety</text>
</g>
<!-- Anxiety&#45;&gt;Psychosis -->
<g id="edge7" class="edge">
<title>Anxiety&#45;&gt;Psychosis</title>
<path fill="none" stroke="#000000" stroke-width="5" d="M429.46,-136.65C409.14,-136.65 385.07,-136.65 364.01,-136.65"/>
<polygon fill="#000000" stroke="#000000" stroke-width="5" points="363.87,-134.0251 357.87,-136.65 363.87,-139.2751 363.87,-134.0251"/>
</g>
</g>
</svg>
