<?xml version="1.0" encoding="UTF-8" standalone="no"?>
<!DOCTYPE svg PUBLIC "-//W3C//DTD SVG 1.1//EN"
 "http://www.w3.org/Graphics/SVG/1.1/DTD/svg11.dtd">
<!-- Generated by graphviz version 2.40.1 (20161225.0304)
 -->
<!-- Pages: 1 -->
<svg width="527pt" height="563pt"
 viewBox="0.00 0.00 526.92 563.42" xmlns="http://www.w3.org/2000/svg" xmlns:xlink="http://www.w3.org/1999/xlink">
<g id="graph0" class="graph" transform="scale(1 1) rotate(0) translate(4 559.42)">
<polygon fill="#ffffff" stroke="transparent" points="-4,4 -4,-559.42 522.92,-559.42 522.92,4 -4,4"/>
<!-- Mood -->
<g id="node1" class="node">
<title>Mood</title>
<ellipse fill="none" stroke="#000000" cx="186.42" cy="-73.5" rx="73.5" ry="73.5"/>
<text text-anchor="middle" x="186.42" y="-69.8" font-family="Times,serif" font-size="14.00" fill="#000000">Mood</text>
</g>
<!-- Psychosis -->
<g id="node2" class="node">
<title>Psychosis</title>
<ellipse fill="none" stroke="#000000" cx="47" cy="-212.92" rx="47" ry="47"/>
<text text-anchor="middle" x="47" y="-209.22" font-family="Times,serif" font-size="14.00" fill="#000000">Psychosis</text>
</g>
<!-- Mood&#45;&gt;Psychosis -->
<g id="edge1" class="edge">
<title>Mood&#45;&gt;Psychosis</title>
<path fill="none" stroke="#000000" stroke-width="4.2857" d="M134.11,-125.81C117.86,-142.06 100.27,-159.65 85.177,-174.74"/>
<polygon fill="#000000" stroke="#000000" stroke-width="4.2857" points="83.2287,-173.5063 80.577,-179.34 86.4107,-176.6883 83.2287,-173.5063"/>
</g>
<!-- Sleep -->
<g id="node3" class="node">
<title>Sleep</title>
<ellipse fill="none" stroke="#000000" cx="325.84" cy="-212.92" rx="62.5" ry="62.5"/>
<text text-anchor="middle" x="325.84" y="-209.22" font-family="Times,serif" font-size="14.00" fill="#000000">Sleep</text>
</g>
<!-- Mood&#45;&gt;Sleep -->
<g id="edge2" class="edge">
<title>Mood&#45;&gt;Sleep</title>
<path fill="none" stroke="#000000" stroke-width="5" d="M238.73,-125.81C251.26,-138.34 264.58,-151.66 276.94,-164.02"/>
<polygon fill="#000000" stroke="#000000" stroke-width="5" points="275.3512,-166.1435 281.45,-168.53 279.0635,-162.4312 275.3512,-166.1435"/>
</g>
<!-- Social -->
<g id="node4" class="node">
<title>Social</title>
<ellipse fill="none" stroke="#000000" cx="186.42" cy="-352.34" rx="47" ry="47"/>
<text text-anchor="middle" x="186.42" y="-348.64" font-family="Times,serif" font-size="14.00" fill="#000000">Social</text>
</g>
<!-- Mood&#45;&gt;Social -->
<g id="edge3" class="edge">
<title>Mood&#45;&gt;Social</title>
<path fill="none" stroke="#000000" stroke-width="4.4444" d="M186.42,-147.13C186.42,-194.8 186.42,-255.79 186.42,-298.85"/>
<polygon fill="#000000" stroke="#000000" stroke-width="4.4444" points="184.0868,-299.07 186.42,-305.07 188.7534,-299.07 184.0868,-299.07"/>
</g>
<!-- Sleep&#45;&gt;Social -->
<g id="edge4" class="edge">
<title>Sleep&#45;&gt;Social</title>
<path fill="none" stroke="#000000" stroke-width="5.7143" d="M277.25,-252.56C258.27,-270.64 236.99,-292.04 219.78,-310.39"/>
<polygon fill="#000000" stroke="#000000" stroke-width="5.7143" points="217.3908,-308.5537 215.5,-314.99 221.7835,-312.6409 217.3908,-308.5537"/>
</g>
<!-- Social&#45;&gt;Psychosis -->
<g id="edge5" class="edge">
<title>Social&#45;&gt;Psychosis</title>
<path fill="none" stroke="#000000" stroke-width="7.5" d="M153.03,-318.94C132.57,-298.49 106.32,-272.24 85.062,-250.98"/>
<polygon fill="#000000" stroke="#000000" stroke-width="7.5" points="87.6314,-247.9808 80.605,-246.52 82.0611,-253.5474 87.6314,-247.9808"/>
</g>
<!-- Social&#45;&gt;Sleep -->
<g id="edge6" class="edge">
<title>Social&#45;&gt;Sleep</title>
<path fill="none" stroke="#000000" stroke-width="10" d="M223.59,-323.43C241.55,-306.81 263.2,-285.45 281.96,-265.94"/>
<polygon fill="#000000" stroke="#000000" stroke-width="10" points="285.8153,-269.5048 286.17,-261.54 278.2286,-262.2457 285.8153,-269.5048"/>
</g>
<!-- Anxiety -->
<g id="node5" class="node">
<title>Anxiety</title>
<ellipse fill="none" stroke="#000000" cx="407.42" cy="-443.92" rx="111.5" ry="111.5"/>
<text text-anchor="middle" x="407.42" y="-440.22" font-family="Times,serif" font-size="14.00" fill="#000000">Anxiety</text>
</g>
</g>
</svg>
