<svg width="100" height="100" viewBox="0 0 100 100" fill="none" xmlns="http://www.w3.org/2000/svg">
<path d="M80.82 96.51H19.18C17.42 96.51 16 95.08 16 93.33V17.26C16 15.5 17.43 14.08 19.18 14.08H80.81C82.57 14.08 83.99 15.51 83.99 17.26V93.33C84 95.08 82.57 96.51 80.82 96.51Z" fill="#46BD95"/>
<path d="M77.5 19.01H22.51V91.57H77.5V19.01Z" fill="#A3EDDC"/>
<path d="M50 75.33C60.4934 75.33 69 66.8234 69 56.33C69 45.8366 60.4934 37.33 50 37.33C39.5066 37.33 31 45.8366 31 56.33C31 66.8234 39.5066 75.33 50 75.33Z" fill="#65D2AA"/>
<path d="M42.61 45.77C43.78 45.77 44.72 46.72 44.72 47.88C44.72 49.04 43.77 49.99 42.61 49.99C41.44 49.99 40.5 49.04 40.5 47.88C40.5 46.72 41.45 45.77 42.61 45.77ZM55.28 47.88C55.28 49.05 56.23 49.99 57.39 49.99C58.56 49.99 59.5 49.04 59.5 47.88C59.5 46.72 58.55 45.77 57.39 45.77C56.22 45.77 55.28 46.72 55.28 47.88ZM40.5 54.74C40.5 59.99 44.75 64.24 50 64.24C55.25 64.24 59.5 59.99 59.5 54.74H40.5Z" fill="#22977B"/>
<path d="M57.99 10.44H57.02C56.98 6.59999 53.85 3.48999 50 3.48999C46.15 3.48999 43.02 6.58999 42.98 10.44H42.01C37.75 10.44 34.3 13.89 34.3 18.15L34.16 21.1H65.57L65.71 18.15C65.7 13.89 62.25 10.44 57.99 10.44ZM50 13.66C48.27 13.66 46.86 12.26 46.86 10.52C46.86 8.77999 48.26 7.37999 50 7.37999C51.74 7.37999 53.14 8.77999 53.14 10.52C53.14 12.26 51.73 13.66 50 13.66Z" fill="#22977B"/>
</svg>
