<svg width="100" height="100" viewBox="0 0 100 100" fill="none" xmlns="http://www.w3.org/2000/svg">
<path d="M80.82 94.46H19.18C17.42 94.46 16 93.03 16 91.28V15.21C16 13.45 17.43 12.03 19.18 12.03H80.81C82.57 12.03 83.99 13.46 83.99 15.21V91.28C84 93.03 82.57 94.46 80.82 94.46Z" fill="#46BD95"/>
<path d="M77.5 16.97H22.51V89.53H77.5V16.97Z" fill="#A3EDDC"/>
<path d="M57.99 8.39H57.02C56.98 4.55 53.85 1.45 50 1.45C46.15 1.45 43.02 4.55 42.98 8.4H42.01C37.75 8.4 34.3 11.85 34.3 16.11L34.16 19.06H65.57L65.71 16.11C65.7 11.85 62.25 8.39 57.99 8.39ZM50 11.61C48.27 11.61 46.86 10.21 46.86 8.47C46.86 6.73 48.26 5.33 50 5.33C51.74 5.33 53.14 6.73 53.14 8.47C53.14 10.21 51.73 11.61 50 11.61Z" fill="#22977B"/>
<path d="M50 40.77C52.48 40.77 54.49 38.76 54.49 36.28C54.49 33.8 52.48 31.79 50 31.79C47.52 31.79 45.51 33.8 45.51 36.28C45.51 38.76 47.52 40.77 50 40.77Z" fill="#46BD95"/>
<path d="M63.67 43.54H36.33C35.21 43.54 34.3 44.45 34.3 45.57C34.3 46.69 35.21 47.6 36.33 47.6H43.89V72.77C43.89 73.89 44.8 74.8 45.92 74.8H46.58C47.7 74.8 48.61 73.89 48.61 72.77V60.21C48.61 59.45 49.23 58.83 49.99 58.83C50.75 58.83 51.37 59.45 51.37 60.21V72.78C51.37 73.9 52.28 74.81 53.4 74.81H54.06C55.18 74.81 56.09 73.9 56.09 72.78V47.6H63.65C64.77 47.6 65.68 46.69 65.68 45.57C65.7 44.45 64.79 43.54 63.67 43.54Z" fill="#46BD95"/>
</svg>
