<svg width="100" height="100" viewBox="0 0 100 100" fill="none" xmlns="http://www.w3.org/2000/svg">
<path d="M80.82 94.46H19.18C17.42 94.46 16 93.03 16 91.28V15.21C16 13.45 17.43 12.03 19.18 12.03H80.81C82.57 12.03 83.99 13.46 83.99 15.21V91.28C84 93.03 82.57 94.46 80.82 94.46Z" fill="#46BD95"/>
<path d="M77.5 16.97H22.51V89.53H77.5V16.97Z" fill="#A3EDDC"/>
<path d="M57.99 8.39H57.02C56.98 4.55 53.85 1.45 50 1.45C46.15 1.45 43.02 4.55 42.98 8.4H42.01C37.75 8.4 34.3 11.85 34.3 16.11L34.16 19.06H65.57L65.71 16.11C65.7 11.85 62.25 8.39 57.99 8.39ZM50 11.61C48.27 11.61 46.86 10.21 46.86 8.47C46.86 6.73 48.26 5.33 50 5.33C51.74 5.33 53.14 6.73 53.14 8.47C53.14 10.21 51.73 11.61 50 11.61Z" fill="#22977B"/>
<path d="M64.78 46.78C62.8 48.76 62.91 52.09 62.91 52.09C62.91 52.09 66.24 52.2 68.22 50.22C70.2 48.24 70.09 44.91 70.09 44.91C70.09 44.91 66.76 44.79 64.78 46.78Z" fill="#65D2AA"/>
<path d="M62.2001 69.75C66.9718 69.75 70.8401 65.8817 70.8401 61.11C70.8401 56.3383 66.9718 52.47 62.2001 52.47C57.4283 52.47 53.5601 56.3383 53.5601 61.11C53.5601 65.8817 57.4283 69.75 62.2001 69.75Z" fill="#46BD95"/>
<path d="M32.67 69.75H49.66L51.37 48.56H30.96L32.67 69.75Z" fill="#22977B"/>
<path d="M30.01 36.74L30.96 48.56H51.37L52.32 36.74H30.01Z" fill="#65D2AA"/>
</svg>
