<svg width="100" height="100" viewBox="0 0 100 100" fill="none" xmlns="http://www.w3.org/2000/svg">
<path d="M50 90C71.5391 90 89 72.5391 89 51C89 29.4609 71.5391 12 50 12C28.4609 12 11 29.4609 11 51C11 72.5391 28.4609 90 50 90Z" fill="#BCEFDD"/>
<path d="M50 14C70.4 14 87 30.6 87 51C87 71.4 70.4 88 50 88C29.6 88 13 71.4 13 51C13 30.6 29.6 14 50 14ZM50 10C27.36 10 9 28.36 9 51C9 73.64 27.36 92 50 92C72.64 92 91 73.64 91 51C91 28.36 72.64 10 50 10Z" fill="#38C396"/>
<path d="M23.55 61.75C23.48 61.68 23.44 61.59 23.44 61.48V40.12C23.44 40.01 23.48 39.92 23.55 39.85C23.62 39.78 23.71 39.74 23.82 39.74H31.72C33.3 39.74 34.69 40.02 35.88 40.58C37.07 41.14 37.99 41.92 38.65 42.93C39.3 43.94 39.63 45.11 39.63 46.44V55.16C39.63 56.49 39.3 57.66 38.65 58.67C38 59.68 37.07 60.47 35.88 61.02C34.69 61.58 33.3 61.86 31.72 61.86H23.82C23.71 61.86 23.62 61.83 23.55 61.75ZM28.05 58.04H31.87C32.84 58.04 33.62 57.71 34.22 57.06C34.82 56.41 35.13 55.53 35.15 54.44V47.17C35.15 46.08 34.85 45.2 34.25 44.55C33.65 43.9 32.84 43.57 31.83 43.57H28.04C27.93 43.57 27.88 43.62 27.88 43.73V57.89C27.89 57.99 27.94 58.04 28.05 58.04Z" fill="#2F9D7E"/>
<path d="M56.08 50.52C58.08 51.55 59.08 53.27 59.08 55.67C59.08 57.71 58.38 59.26 56.99 60.3C55.6 61.34 53.78 61.86 51.52 61.86H43.33C43.22 61.86 43.13 61.82 43.06 61.75C42.99 61.68 42.95 61.59 42.95 61.48V40.12C42.95 40.01 42.99 39.92 43.06 39.85C43.13 39.78 43.22 39.74 43.33 39.74H51.26C56.25 39.74 58.75 41.76 58.75 45.81C58.75 47.92 57.85 49.42 56.06 50.33C55.96 50.39 55.96 50.45 56.08 50.52ZM47.42 43.72V48.65C47.42 48.76 47.47 48.81 47.58 48.81H51.28C52.27 48.81 53.04 48.58 53.59 48.11C54.14 47.65 54.41 47.01 54.41 46.21C54.41 45.39 54.14 44.74 53.59 44.27C53.04 43.8 52.27 43.56 51.28 43.56H47.58C47.48 43.56 47.42 43.62 47.42 43.72ZM53.81 57.26C54.36 56.77 54.63 56.09 54.63 55.22C54.63 54.36 54.36 53.68 53.81 53.18C53.26 52.68 52.49 52.44 51.5 52.44H47.58C47.47 52.44 47.42 52.49 47.42 52.6V57.85C47.42 57.96 47.47 58.01 47.58 58.01H51.53C52.5 58.01 53.26 57.76 53.81 57.26Z" fill="#2F9D7E"/>
<path d="M77.46 39.85C77.53 39.92 77.57 40.01 77.57 40.12V43.22C77.57 43.33 77.53 43.42 77.46 43.49C77.39 43.56 77.3 43.6 77.19 43.6H71.53C71.42 43.6 71.37 43.65 71.37 43.76V61.49C71.37 61.6 71.33 61.68 71.26 61.76C71.19 61.84 71.1 61.86 71 61.86H67.3C67.19 61.86 67.1 61.82 67.03 61.75C66.96 61.68 66.92 61.59 66.92 61.48V43.75C66.92 43.64 66.87 43.59 66.76 43.59H61.26C61.15 43.59 61.06 43.55 60.99 43.48C60.92 43.41 60.88 43.32 60.88 43.21V40.11C60.88 40 60.92 39.91 60.99 39.84C61.06 39.77 61.15 39.73 61.26 39.73H77.19C77.3 39.74 77.39 39.78 77.46 39.85Z" fill="#2F9D7E"/>
</svg>
