<svg width="100" height="100" viewBox="0 0 100 100" fill="none" xmlns="http://www.w3.org/2000/svg">
<path d="M80.82 94.46H19.18C17.42 94.46 16 93.03 16 91.28V15.21C16 13.45 17.43 12.03 19.18 12.03H80.81C82.57 12.03 83.99 13.46 83.99 15.21V91.28C84 93.03 82.57 94.46 80.82 94.46Z" fill="#46BD95"/>
<path d="M77.5 16.97H22.51V89.53H77.5V16.97Z" fill="#A3EDDC"/>
<path d="M57.99 8.39H57.02C56.98 4.55 53.85 1.45 50 1.45C46.15 1.45 43.02 4.55 42.98 8.4H42.01C37.75 8.4 34.3 11.85 34.3 16.11L34.16 19.06H65.57L65.71 16.11C65.7 11.85 62.25 8.39 57.99 8.39ZM50 11.61C48.27 11.61 46.86 10.21 46.86 8.47C46.86 6.73 48.26 5.33 50 5.33C51.74 5.33 53.14 6.73 53.14 8.47C53.14 10.21 51.73 11.61 50 11.61Z" fill="#22977B"/>
<path d="M49.82 74.17C60.214 74.17 68.64 65.744 68.64 55.35C68.64 44.956 60.214 36.53 49.82 36.53C39.426 36.53 31 44.956 31 55.35C31 65.744 39.426 74.17 49.82 74.17Z" fill="#65D2AA"/>
<path d="M42.5 57.48C43.6543 57.48 44.59 56.5443 44.59 55.39C44.59 54.2357 43.6543 53.3 42.5 53.3C41.3458 53.3 40.41 54.2357 40.41 55.39C40.41 56.5443 41.3458 57.48 42.5 57.48Z" fill="#22977B"/>
<path d="M57.14 57.48C58.2943 57.48 59.23 56.5443 59.23 55.39C59.23 54.2357 58.2943 53.3 57.14 53.3C55.9857 53.3 55.05 54.2357 55.05 55.39C55.05 56.5443 55.9857 57.48 57.14 57.48Z" fill="#22977B"/>
<path d="M43.68 67.15H55.96C56.31 67.15 56.6 66.86 56.6 66.51V65.31C56.6 63.83 55.4 62.62 53.91 62.62H45.72C44.24 62.62 43.03 63.82 43.03 65.31V66.51C43.04 66.87 43.33 67.15 43.68 67.15Z" fill="#22977B"/>
<path d="M71.78 49.95L68.78 44.8C68.69 44.65 68.48 44.65 68.4 44.8L65.4 49.95C65.06 50.49 64.86 51.13 64.84 51.81C64.78 53.87 66.49 55.65 68.55 55.67C70.64 55.69 72.34 54 72.34 51.92C72.34 51.2 72.13 50.53 71.78 49.95Z" fill="#22977B"/>
<path d="M60.69 49.71C59.37 49.53 58.42 49.24 57.6 48.79C56.87 48.4 56.2 47.85 55.49 47.27C55.28 47.1 55.07 46.93 54.86 46.76C54.73 46.65 54.56 46.6 54.39 46.6C54.22 46.6 54.05 46.66 53.92 46.76C53.76 46.89 53.66 47.07 53.64 47.27C53.62 47.47 53.67 47.67 53.8 47.83C54.4 48.6 55.36 49.71 56.7 50.45C57.32 50.79 57.97 51.03 58.65 51.16C59.03 51.24 59.44 51.27 59.86 51.27C60.13 51.27 60.4 51.25 60.68 51.22C61.02 51.18 61.3 50.91 61.35 50.57C61.39 50.15 61.1 49.76 60.69 49.71Z" fill="#22977B"/>
<path d="M45.27 46.59C45.1 46.59 44.93 46.65 44.8 46.75C44.59 46.92 44.38 47.09 44.17 47.26C43.46 47.84 42.79 48.39 42.06 48.77C41.24 49.23 40.29 49.51 38.97 49.69C38.62 49.74 38.35 50.01 38.31 50.36C38.26 50.78 38.56 51.15 38.98 51.2C39.26 51.23 39.53 51.25 39.8 51.25C40.22 51.25 40.62 51.21 41.01 51.14C41.68 51.02 42.35 50.77 42.96 50.43C44.3 49.69 45.26 48.58 45.86 47.81C46.08 47.53 46.08 47.14 45.86 46.87C45.72 46.7 45.5 46.59 45.27 46.59Z" fill="#22977B"/>
</svg>
