<?xml version="1.0" encoding="utf-8"?>
<!-- Generator: Adobe Illustrator 25.0.1, SVG Export Plug-In . SVG Version: 6.00 Build 0)  -->
<svg version="1.1" id="Layer_1" xmlns="http://www.w3.org/2000/svg" xmlns:xlink="http://www.w3.org/1999/xlink" x="0px" y="0px"
	 viewBox="0 0 100 100" style="enable-background:new 0 0 100 100;" xml:space="preserve">
<style type="text/css">
	.st0{fill:#A3CFFF;}
	.st1{fill:#4C66D6;}
</style>
<path class="st0" d="M50,90c21.5,0,39-17.5,39-39S71.5,12,50,12S11,29.5,11,51S28.5,90,50,90z"/>
<path class="st1" d="M50,14c20.4,0,37,16.6,37,37S70.4,88,50,88S13,71.4,13,51S29.6,14,50,14z M50,10C27.4,10,9,28.4,9,51
	s18.4,41,41,41s41-18.4,41-41S72.6,10,50,10z"/>
<path class="st1" d="M23.5,61.8c-0.1-0.1-0.1-0.2-0.1-0.3V40.1c0-0.1,0-0.2,0.1-0.3c0.1-0.1,0.2-0.1,0.3-0.1h7.9
	c1.6,0,3,0.3,4.2,0.8c1.2,0.6,2.1,1.3,2.8,2.3c0.6,1,1,2.2,1,3.5v8.7c0,1.3-0.3,2.5-1,3.5c-0.7,1-1.6,1.8-2.8,2.4
	c-1.2,0.6-2.6,0.8-4.2,0.8h-7.9C23.7,61.9,23.6,61.8,23.5,61.8z M28,58h3.8c1,0,1.7-0.3,2.4-1c0.6-0.7,0.9-1.5,0.9-2.6v-7.3
	c0-1.1-0.3-2-0.9-2.6c-0.6-0.6-1.4-1-2.4-1H28c-0.1,0-0.2,0-0.2,0.2v14.2C27.9,58,27.9,58,28,58z"/>
<path class="st1" d="M56.1,50.5c2,1,3,2.8,3,5.1c0,2-0.7,3.6-2.1,4.6c-1.4,1-3.2,1.6-5.5,1.6h-8.2c-0.1,0-0.2,0-0.3-0.1
	S43,61.6,43,61.5V40.1c0-0.1,0-0.2,0.1-0.3s0.2-0.1,0.3-0.1h7.9c5,0,7.5,2,7.5,6.1c0,2.1-0.9,3.6-2.7,4.5C56,50.4,56,50.5,56.1,50.5
	z M47.4,43.7v4.9c0,0.1,0.1,0.2,0.2,0.2h3.7c1,0,1.8-0.2,2.3-0.7c0.5-0.5,0.8-1.1,0.8-1.9c0-0.8-0.3-1.5-0.8-1.9s-1.3-0.7-2.3-0.7
	h-3.7C47.5,43.6,47.4,43.6,47.4,43.7z M53.8,57.3c0.5-0.5,0.8-1.2,0.8-2c0-0.9-0.3-1.5-0.8-2c-0.6-0.5-1.3-0.7-2.3-0.7h-3.9
	c-0.1,0-0.2,0.1-0.2,0.2v5.3c0,0.1,0.1,0.2,0.2,0.2h3.9C52.5,58,53.3,57.8,53.8,57.3z"/>
<path class="st1" d="M77.5,39.8c0.1,0.1,0.1,0.2,0.1,0.3v3.1c0,0.1,0,0.2-0.1,0.3c-0.1,0.1-0.2,0.1-0.3,0.1h-5.7
	c-0.1,0-0.2,0.1-0.2,0.2v17.7c0,0.1,0,0.2-0.1,0.3c-0.1,0.1-0.2,0.1-0.3,0.1h-3.7c-0.1,0-0.2,0-0.3-0.1s-0.1-0.2-0.1-0.3V43.8
	c0-0.1,0-0.2-0.2-0.2h-5.5c-0.1,0-0.2,0-0.3-0.1c-0.1-0.1-0.1-0.2-0.1-0.3v-3.1c0-0.1,0-0.2,0.1-0.3c0.1-0.1,0.2-0.1,0.3-0.1h15.9
	C77.3,39.7,77.4,39.8,77.5,39.8z"/>
</svg>
