<svg width="100" height="100" viewBox="0 0 100 100" fill="none" xmlns="http://www.w3.org/2000/svg">
<path d="M80.82 96.51H19.18C17.42 96.51 16 95.08 16 93.33V17.26C16 15.5 17.43 14.08 19.18 14.08H80.81C82.57 14.08 83.99 15.51 83.99 17.26V93.33C84 95.08 82.57 96.51 80.82 96.51Z" fill="#46BD95"/>
<path d="M77.5 19.01H22.51V91.57H77.5V19.01Z" fill="#A3EDDC"/>
<path d="M57.99 10.44H57.02C56.98 6.59999 53.85 3.48999 50 3.48999C46.15 3.48999 43.02 6.58999 42.98 10.44H42.01C37.75 10.44 34.3 13.89 34.3 18.15L34.16 21.1H65.57L65.71 18.15C65.7 13.89 62.25 10.44 57.99 10.44ZM50 13.66C48.27 13.66 46.86 12.26 46.86 10.52C46.86 8.77999 48.26 7.37999 50 7.37999C51.74 7.37999 53.14 8.77999 53.14 10.52C53.14 12.26 51.73 13.66 50 13.66Z" fill="#22977B"/>
<path d="M58.54 40.24C60.71 42.97 61.93 46.49 61.69 50.3C61.23 57.58 55.35 63.49 48.07 63.98C45.02 64.19 42.15 63.45 39.72 62.05C39.38 61.85 39 62.22 39.16 62.57C41.87 68.37 47.83 72.35 54.7 72.16C63.43 71.92 70.56 64.82 70.83 56.09C71.08 48.32 66 41.7 58.97 39.61C58.6 39.5 58.29 39.93 58.54 40.24Z" fill="#22977B"/>
<path d="M35.34 53.17L38.52 54.42C38.69 54.49 38.69 54.72 38.52 54.79L35.34 56.04L34.09 59.22C34.02 59.39 33.79 59.39 33.72 59.22L32.47 56.04L29.29 54.79C29.12 54.72 29.12 54.49 29.29 54.42L32.47 53.17L33.72 49.99C33.79 49.82 34.02 49.82 34.09 49.99L35.34 53.17Z" fill="#46BD95"/>
<path d="M48.16 42.3L52.95 44.19C53.2 44.29 53.2 44.64 52.95 44.74L48.16 46.63L46.27 51.42C46.17 51.67 45.82 51.67 45.72 51.42L43.83 46.63L39.04 44.74C38.79 44.64 38.79 44.29 39.04 44.19L43.83 42.3L45.72 37.51C45.82 37.26 46.17 37.26 46.27 37.51L48.16 42.3Z" fill="#46BD95"/>
</svg>
