<svg width="100" height="100" viewBox="0 0 100 100" fill="none" xmlns="http://www.w3.org/2000/svg">
<path d="M80.82 96.51H19.18C17.42 96.51 16 95.08 16 93.33V17.26C16 15.5 17.43 14.08 19.18 14.08H80.81C82.57 14.08 83.99 15.51 83.99 17.26V93.33C84 95.08 82.57 96.51 80.82 96.51Z" fill="#46BD95"/>
<path d="M77.5 19.01H22.51V91.57H77.5V19.01Z" fill="#A3EDDC"/>
<path d="M57.99 10.44H57.02C56.98 6.6 53.85 3.49 50 3.49C46.15 3.49 43.02 6.59 42.98 10.44H42.01C37.75 10.44 34.3 13.89 34.3 18.15L34.16 21.1H65.57L65.71 18.15C65.7 13.89 62.25 10.44 57.99 10.44ZM50 13.66C48.27 13.66 46.86 12.26 46.86 10.52C46.86 8.78 48.26 7.38 50 7.38C51.74 7.38 53.14 8.78 53.14 10.52C53.14 12.26 51.73 13.66 50 13.66Z" fill="#22977B"/>
<path d="M49.82 31.62H58.91C64.68 31.62 69.36 36.3 69.36 42.07C69.36 44.28 68.67 46.33 67.5 48.01H67.51L70.59 55.84C70.71 56.15 70.39 56.46 70.09 56.32L61.18 52.27C60.45 52.43 59.69 52.52 58.92 52.52H49.83C44.06 52.52 39.38 47.84 39.38 42.07C39.37 36.3 44.04 31.62 49.82 31.62Z" fill="#46BD95"/>
<path d="M47.57 40.51H60.63C61.21 40.51 61.67 40.04 61.67 39.47C61.67 38.89 61.2 38.43 60.63 38.43H47.57C46.99 38.43 46.53 38.9 46.53 39.47C46.53 40.04 46.99 40.51 47.57 40.51Z" fill="#A3EDDC"/>
<path d="M47.57 46.25H60.63C61.21 46.25 61.67 45.78 61.67 45.21C61.67 44.63 61.2 44.17 60.63 44.17H47.57C46.99 44.17 46.53 44.64 46.53 45.21C46.53 45.79 46.99 46.25 47.57 46.25Z" fill="#A3EDDC"/>
<path d="M50.05 56.35H40.96C35.19 56.35 30.51 61.03 30.51 66.8C30.51 69.01 31.2 71.06 32.37 72.74H32.36L29.28 80.57C29.16 80.88 29.48 81.19 29.78 81.05L38.7 77C39.43 77.16 40.19 77.25 40.96 77.25H50.05C55.82 77.25 60.5 72.57 60.5 66.8C60.5 61.03 55.82 56.35 50.05 56.35Z" fill="#22977B"/>
<path d="M52.29 65.24H39.24C38.66 65.24 38.2 64.77 38.2 64.2C38.2 63.62 38.67 63.16 39.24 63.16H52.2999C52.8799 63.16 53.34 63.63 53.34 64.2C53.34 64.77 52.87 65.24 52.29 65.24Z" fill="#65D2AA"/>
<path d="M52.29 70.98H39.24C38.66 70.98 38.2 70.51 38.2 69.94C38.2 69.36 38.67 68.9 39.24 68.9H52.2999C52.8799 68.9 53.34 69.37 53.34 69.94C53.34 70.51 52.87 70.98 52.29 70.98Z" fill="#65D2AA"/>
</svg>
