<svg width="150" height="150" viewBox="0 0 150 150" fill="none" xmlns="http://www.w3.org/2000/svg">
<path d="M80.205 47.895L120.555 36.36L116.37 33C90.78 33 78.375 41.775 74.895 44.775C71.4 41.775 59.01 33 33.42 33L29.22 36.36L69.57 47.895H80.205Z" fill="#FFD645"/>
<path d="M122.445 35.82L80.205 47.895H69.57L27.33 35.82C26.115 35.475 24.9 36.39 24.9 37.65V103.89C24.9 104.745 25.47 105.48 26.28 105.72L69.57 118.095H80.205L123.495 105.72C124.305 105.48 124.875 104.745 124.875 103.89V37.65C124.875 36.39 123.66 35.475 122.445 35.82Z" fill="#D2961F"/>
<path d="M79.095 68.04H70.65V96.18H79.095V68.04Z" fill="#FFD645"/>
</svg>
