<svg height="512pt" viewBox="0 -45 512 512" width="512pt" xmlns="http://www.w3.org/2000/svg"><path d="m0 54.5h512v368.171875h-512zm0 0" fill="#0087ff"/><path d="m256 54.5h256v368.171875h-256zm0 0" fill="#4b5be4"/><path d="m452 0v368.351562h-15c-50.710938 0-93.21875 12.886719-119.949219 23.71875-23.171875 9.371094-38.710937 18.660157-46.050781 23.46875v7.132813h-30v-7.132813c-7.339844-4.808593-22.878906-14.097656-46.050781-23.46875-26.730469-10.832031-69.238281-23.71875-119.949219-23.71875h-15v-368.351562h15c90.558594 0 157.628906 36.648438 181 51.441406 23.371094-14.792968 90.441406-51.441406 181-51.441406zm0 0" fill="#e0e4fa"/><path d="m452 0v368.351562h-15c-50.710938 0-93.21875 12.886719-119.949219 23.71875-23.171875 9.371094-38.710937 18.660157-46.050781 23.46875v7.132813h-15v-371.230469c23.371094-14.792968 90.441406-51.441406 181-51.441406zm0 0" fill="#c4c9f7"/></svg>