<svg width="100" height="100" viewBox="0 0 100 100" fill="none" xmlns="http://www.w3.org/2000/svg">
<path d="M53.47 31.93L80.37 24.24L77.58 22C60.52 22 52.25 27.85 49.93 29.85C47.6 27.85 39.34 22 22.28 22L19.48 24.24L46.38 31.93H53.47Z" fill="#FEEAA4"/>
<path d="M81.63 23.88L53.47 31.93H46.38L18.22 23.88C17.41 23.65 16.6 24.26 16.6 25.1V69.26C16.6 69.83 16.98 70.32 17.52 70.48L46.38 78.73H53.47L82.33 70.48C82.87 70.32 83.25 69.83 83.25 69.26V25.1C83.25 24.26 82.44 23.65 81.63 23.88Z" fill="#E5B845"/>
<path d="M52.73 45.36H47.1V64.12H52.73V45.36Z" fill="#FFD645"/>
</svg>
