<svg height="512pt" viewBox="0 -109 512 512" width="512pt" xmlns="http://www.w3.org/2000/svg"><path d="m337.421875 294.542969h-162.84375c-73.265625 0-139.1875-43.371094-167.941406-110.496094-1.25-2.917969-6.636719-17.304687-6.636719-17.304687s53.015625-26.90625 100.875-29.640626l310.210938-.003906c47.878906 2.726563 100.914062 29.644532 100.914062 29.644532s-5.386719 14.386718-6.636719 17.304687c-28.753906 67.125-94.675781 110.496094-167.941406 110.496094zm0 0" fill="#b51359"/><path d="m257.160156 294.542969h-82.582031c-73.265625 0-139.1875-43.371094-167.941406-110.496094-1.25-2.917969-6.636719-17.304687-6.636719-17.304687s53.015625-26.90625 100.875-29.640626zm0 0" fill="#e2407a"/><path d="m424.667969 74.070312-2.554688-13.050781-13.257812 1.03125c-2.355469.183594-58.195313 4.859375-104.394531 36.375h-96.921876c-46.195312-31.515625-102.039062-36.191406-104.390624-36.375l-13.261719-1.03125-2.554688 13.050781c-.722656 3.699219-17.214843 91.34375 28.835938 151.949219 46.054687 60.597657 134.914062 68.1875 138.671875 68.480469h2.324218c3.757813-.292969 92.617188-7.882812 138.671876-68.480469 46.050781-60.601562 29.558593-148.246093 28.832031-151.949219zm0 0" fill="#fd5d99"/><path d="m424.667969 74.070312-2.554688-13.050781-13.257812 1.03125c-2.355469.183594-58.195313 4.859375-104.394531 36.375 0 0-53.382813 195.777344-49.621094 196.070313h2.320312c3.761719-.292969 92.621094-7.878906 138.675782-68.480469 46.050781-60.597656 29.558593-148.242187 28.832031-151.945313zm0 0" fill="#e2407a"/><path d="m256 294.542969s-78.90625-71.15625-78.90625-147.269531c0-76.117188 78.90625-147.273438 78.90625-147.273438s78.90625 71.15625 78.90625 147.273438c0 76.113281-78.90625 147.269531-78.90625 147.269531zm0 0" fill="#ff78af"/><path d="m256 294.542969v-294.542969s78.90625 71.15625 78.90625 147.273438c0 76.113281-78.90625 147.269531-78.90625 147.269531zm0 0" fill="#fd5d99"/></svg>