<svg width="24" height="24" viewBox="0 0 24 24" fill="none" xmlns="http://www.w3.org/2000/svg">
<path d="M20.1 21H3.9C2.3 21 1 19.7 1 18.1V7.9C1 6.3 2.3 5 3.9 5H6.52C7.62 3.67 8.54 3 9.26 3H14.74C15.46 3 16.38 3.67 17.48 5H20.1C21.7 5 23 6.3 23 7.9V18.1C23 19.7 21.7 21 20.1 21ZM3.9 7C3.4 7 3 7.4 3 7.9V18.1C3 18.6 3.4 19 3.9 19H20.1C20.6 19 21 18.6 21 18.1V7.9C21 7.4 20.6 7 20.1 7H17C16.69 7 16.4 6.86 16.21 6.62C15.66 5.91 14.93 5.17 14.63 5H9.37C9.07 5.17 8.34 5.91 7.79 6.62C7.6 6.86 7.31 7 7 7H3.9Z" fill="#E46759"/>
<path d="M12 9C13.93 9 15.5 10.57 15.5 12.5C15.5 14.43 13.93 16 12 16C10.07 16 8.5 14.43 8.5 12.5C8.5 10.57 10.07 9 12 9ZM12 7C8.96 7 6.5 9.46 6.5 12.5C6.5 15.54 8.96 18 12 18C15.04 18 17.5 15.54 17.5 12.5C17.5 9.46 15.04 7 12 7Z" fill="#E46759"/>
</svg>
