<svg width="150" height="150" viewBox="0 0 150 150" fill="none" xmlns="http://www.w3.org/2000/svg">
<path d="M76.875 17.625H38.895C24.615 17.625 13.05 29.19 13.05 43.47C13.05 48.93 14.76 54 17.655 58.17H17.64L10.005 77.535C9.70499 78.3 10.5 79.05 11.265 78.705L33.3 68.7C35.1 69.105 36.975 69.33 38.895 69.33H76.875C91.155 69.33 102.72 57.765 102.72 43.485C102.72 29.205 91.155 17.625 76.875 17.625Z" fill="#FFD645"/>
<path d="M73.5 77.6548H111.48C125.76 77.6548 137.325 89.2198 137.325 103.5C137.325 108.96 135.615 114.03 132.72 118.2H132.735L140.355 137.565C140.655 138.345 139.86 139.095 139.11 138.75L117.075 128.73C115.275 129.135 113.4 129.36 111.48 129.36H73.5C59.22 129.36 47.655 117.795 47.655 103.515C47.655 89.2198 59.235 77.6548 73.5 77.6548Z" fill="#D2961F"/>
<path d="M112.605 98.0098H72.315C71.07 98.0098 70.065 97.0048 70.065 95.7598C70.065 94.5148 71.07 93.5098 72.315 93.5098H112.605C113.85 93.5098 114.855 94.5148 114.855 95.7598C114.855 97.0048 113.85 98.0098 112.605 98.0098Z" fill="#FFD645"/>
<path d="M112.605 113.13H72.315C71.07 113.13 70.065 112.125 70.065 110.88C70.065 109.635 71.07 108.63 72.315 108.63H112.605C113.85 108.63 114.855 109.635 114.855 110.88C114.855 112.125 113.85 113.13 112.605 113.13Z" fill="#FFD645"/>
<path d="M78.45 38.25H38.16C36.915 38.25 35.91 37.245 35.91 36C35.91 34.755 36.915 33.75 38.16 33.75H78.45C79.695 33.75 80.7 34.755 80.7 36C80.7 37.245 79.695 38.25 78.45 38.25Z" fill="#D2961F"/>
<path d="M78.45 53.3701H38.16C36.915 53.3701 35.91 52.3651 35.91 51.1201C35.91 49.8751 36.915 48.8701 38.16 48.8701H78.45C79.695 48.8701 80.7 49.8751 80.7 51.1201C80.7 52.3651 79.695 53.3701 78.45 53.3701Z" fill="#D2961F"/>
</svg>
