<svg width="100" height="100" viewBox="0 0 100 100" fill="none" xmlns="http://www.w3.org/2000/svg">
<path d="M51.25 11.75H23.93C14.41 11.75 6.7 19.46 6.7 28.98C6.7 32.62 7.84 36 9.77 38.78H9.76L4.67 51.69C4.47 52.2 5 52.7 5.51 52.47L20.2 45.8C21.4 46.07 22.65 46.22 23.93 46.22H51.25C60.77 46.22 68.48 38.51 68.48 28.99C68.48 19.47 60.77 11.75 51.25 11.75Z" fill="#FEEAA4"/>
<path d="M49 51.77H76.32C85.84 51.77 93.55 59.48 93.55 69C93.55 72.64 92.41 76.02 90.48 78.8H90.49L95.57 91.71C95.77 92.23 95.24 92.73 94.74 92.5L80.05 85.82C78.85 86.09 77.6 86.24 76.32 86.24H49C39.48 86.24 31.77 78.53 31.77 69.01C31.77 59.48 39.49 51.77 49 51.77Z" fill="#E5B845"/>
<path d="M48.21 63.84H77.07" stroke="#FFECAB" stroke-width="3" stroke-miterlimit="10" stroke-linecap="round"/>
<path d="M48.21 73.92H77.07" stroke="#FFECAB" stroke-width="3" stroke-miterlimit="10" stroke-linecap="round"/>
<path d="M23.44 24H52.3" stroke="#E5B845" stroke-width="3" stroke-miterlimit="10" stroke-linecap="round"/>
<path d="M23.44 34.08H52.3" stroke="#E5B845" stroke-width="3" stroke-miterlimit="10" stroke-linecap="round"/>
</svg>
