<svg width="126" height="84" viewBox="0 0 126 84" fill="none" xmlns="http://www.w3.org/2000/svg">
<path d="M1 53.33L15.2 26.13C16.53 23.58 20.12 23.41 21.69 25.82L25.29 31.36C26.88 33.8 30.52 33.59 31.81 30.98L45.15 4.08C46.69 0.979997 51.25 1.43 52.15 4.77L63.93 48.31C64.42 50.12 66.17 51.3 68.04 51.06L95.37 47.58C97.24 47.34 98.64 45.76 98.66 43.88L98.8 28.93C98.82 26.28 101.5 24.49 103.96 25.47C107.87 27.03 112.65 28.82 113.03 28.45C116.85 24.71 120.66 20.97 124.48 17.23V83.05H1V53.33Z" fill="url(#paint0_linear)"/>
<path d="M1 53.33L15.2 26.13C16.53 23.58 20.12 23.41 21.69 25.82L25.29 31.36C26.88 33.8 30.52 33.59 31.81 30.98L45.15 4.08C46.69 0.979997 51.25 1.43 52.15 4.77L63.93 48.31C64.42 50.12 66.17 51.3 68.04 51.06L95.37 47.58C97.24 47.34 98.64 45.76 98.66 43.88L98.8 28.93C98.82 26.28 101.5 24.49 103.96 25.47C107.87 27.03 112.65 28.82 113.03 28.45C116.85 24.71 120.66 20.97 124.48 17.23" stroke="#5784EE" stroke-width="2" stroke-miterlimit="10" stroke-linecap="round"/>
<defs>
<linearGradient id="paint0_linear" x1="62.74" y1="1.99113" x2="62.74" y2="83.05" gradientUnits="userSpaceOnUse">
<stop stop-color="white"/>
<stop offset="1" stop-color="#ECF4FF"/>
</linearGradient>
</defs>
</svg>
