<svg width="128" height="86" viewBox="0 0 128 86" fill="none" xmlns="http://www.w3.org/2000/svg">
<path d="M126.26 85.35H1V70.27L8.43 46.06C12.85 31.86 22.63 32.46 26.67 47.18C30.58 61.44 39.96 62.56 44.57 49.32L57.96 10.95C61.48 0.850003 68.11 -1.33 72.87 6.05L83.88 23.11C87.7 29.03 92.87 28.93 96.64 22.85L99.17 18.78C103.32 12.09 109.08 12.7 112.91 20.23L126.26 46.53V85.35Z" fill="url(#paint0_linear)"/>
<path d="M1 70.27L8.43 46.39C12.85 32.19 22.63 32.79 26.67 47.51C30.58 61.77 39.96 62.89 44.57 49.65L57.96 11.27C61.48 1.17 68.11 -1.01 72.87 6.37L83.88 23.43C87.7 29.35 92.87 29.25 96.64 23.17L99.17 19.1C103.32 12.41 109.08 13.02 112.91 20.55L126.26 46.85" stroke="#5784EE" stroke-width="2" stroke-miterlimit="10" stroke-linecap="round"/>
<defs>
<linearGradient id="paint0_linear" x1="63.631" y1="1.9511" x2="63.631" y2="64.5707" gradientUnits="userSpaceOnUse">
<stop offset="0.0738" stop-color="white"/>
<stop offset="0.9448" stop-color="#ECF4FF"/>
</linearGradient>
</defs>
</svg>
