<svg width="24" height="24" viewBox="0 0 24 24" fill="none" xmlns="http://www.w3.org/2000/svg">
<path d="M19 2H15.73C15.39 1.4 14.74 1 14 1H10C9.26 1 8.61 1.4 8.27 2H5C3.9 2 3 2.9 3 4V6C3 6.75 3.42 7.39 4.03 7.74C4.02 7.82 4 7.91 4 8V21C4 22.1 4.9 23 6 23H18C19.1 23 20 22.1 20 21V8C20 7.91 19.98 7.82 19.97 7.74C20.58 7.39 21 6.75 21 6V4C21 2.9 20.1 2 19 2ZM5 4H10V3H14V4H19V6H18H6H5V4ZM18 21H6V8H18V21Z" fill="#4C66D6"/>
<path d="M14 19C14.55 19 15 18.55 15 18V11C15 10.45 14.55 10 14 10C13.45 10 13 10.45 13 11V18C13 18.55 13.45 19 14 19Z" fill="#4C66D6"/>
<path d="M10 19C10.55 19 11 18.55 11 18V11C11 10.45 10.55 10 10 10C9.45 10 9 10.45 9 11V18C9 18.55 9.45 19 10 19Z" fill="#4C66D6"/>
</svg>
