<svg width="24" height="24" viewBox="0 0 24 24" fill="none" xmlns="http://www.w3.org/2000/svg">
<path d="M12 1C5.93 1 1 5.93 1 12C1 18.07 5.93 23 12 23C18.07 23 23 18.07 23 12C23 5.93 18.07 1 12 1ZM12 21C7.04 21 3 16.96 3 12C3 7.04 7.04 3 12 3C16.96 3 21 7.04 21 12C21 16.96 16.96 21 12 21Z" fill="#4C66D6"/>
<path d="M15 9C15 7.34 13.66 6 12 6C10.34 6 9 7.34 9 9C9 10.12 9.62 11.08 10.53 11.6L10.09 16.92C10.04 17.5 10.5 18 11.09 18H12.91C13.5 18 13.96 17.5 13.91 16.92L13.47 11.6C14.38 11.08 15 10.12 15 9Z" fill="#4C66D6"/>
</svg>
