<svg width="60" height="60" viewBox="0 0 60 60" fill="none" xmlns="http://www.w3.org/2000/svg">
<path d="M16.032 53.358C23.6668 53.358 29.856 47.1687 29.856 39.534C29.856 31.8992 23.6668 25.71 16.032 25.71C8.39722 25.71 2.20801 31.8992 2.20801 39.534C2.20801 47.1687 8.39722 53.358 16.032 53.358Z" fill="#FFAC98"/>
<path d="M42.8162 36.648C50.451 36.648 56.6402 30.4588 56.6402 22.824C56.6402 15.1892 50.451 9 42.8162 9C35.1814 9 28.9922 15.1892 28.9922 22.824C28.9922 30.4588 35.1814 36.648 42.8162 36.648Z" fill="#FFAC98"/>
<path d="M10.6561 34.9321C11.5044 34.9321 12.1921 34.2444 12.1921 33.3961C12.1921 32.5478 11.5044 31.8601 10.6561 31.8601C9.80781 31.8601 9.12012 32.5478 9.12012 33.3961C9.12012 34.2444 9.80781 34.9321 10.6561 34.9321Z" fill="#BC453D"/>
<path d="M21.4081 34.9321C22.2564 34.9321 22.9441 34.2444 22.9441 33.3961C22.9441 32.5478 22.2564 31.8601 21.4081 31.8601C20.5598 31.8601 19.8721 32.5478 19.8721 33.3961C19.8721 34.2444 20.5598 34.9321 21.4081 34.9321Z" fill="#BC453D"/>
<path d="M9.12012 38.3821C9.12012 42.1981 12.2161 45.2941 16.0321 45.2941C19.8481 45.2941 22.9441 42.1981 22.9441 38.3821H9.12012Z" fill="#BC453D"/>
<path d="M48.5768 18.0182C49.2788 18.5762 49.9088 19.1462 50.6288 19.5302C51.3428 19.9262 52.1348 20.1182 52.9868 20.2382H52.9928C53.1428 20.2622 53.2508 20.4002 53.2268 20.5502C53.2088 20.6762 53.1068 20.7722 52.9808 20.7902C52.5188 20.8442 52.0448 20.8382 51.5708 20.7422C51.1028 20.6522 50.6408 20.4842 50.2208 20.2562C49.3748 19.7882 48.7208 19.1042 48.1748 18.4082C48.0788 18.2882 48.0968 18.1142 48.2168 18.0182C48.3368 17.9402 48.4808 17.9402 48.5768 18.0182Z" fill="#BC453D"/>
<path d="M37.4464 18.408C36.9004 19.104 36.2464 19.788 35.4004 20.256C34.9804 20.49 34.5184 20.658 34.0504 20.742C33.5824 20.832 33.1024 20.838 32.6405 20.79C32.4905 20.772 32.3765 20.634 32.3945 20.484C32.4065 20.358 32.5084 20.256 32.6344 20.238H32.6405C33.4924 20.118 34.2844 19.926 34.9984 19.53C35.7184 19.146 36.3484 18.57 37.0504 18.018C37.1704 17.922 37.3444 17.94 37.4404 18.06C37.5244 18.168 37.5244 18.312 37.4464 18.408Z" fill="#BC453D"/>
<path d="M45.4923 24.2341C46.0443 24.6421 46.5723 24.9421 47.1183 25.1041C47.6583 25.2781 48.2103 25.3201 48.7623 25.2661C49.3143 25.2061 49.8603 25.0501 50.4003 24.8101C50.9403 24.5701 51.4683 24.2461 52.0383 23.8441L52.0443 23.8381C52.1523 23.7661 52.2963 23.7901 52.3683 23.8981C52.4103 23.9581 52.4223 24.0301 52.3983 24.0961C51.9663 25.5361 50.5143 26.6581 48.8943 26.7901C48.0903 26.8621 47.2443 26.6821 46.5603 26.2561C45.8703 25.8361 45.3543 25.1941 45.1263 24.4801C45.0843 24.3601 45.1563 24.2281 45.2763 24.1921C45.3483 24.1681 45.4263 24.1861 45.4803 24.2281L45.4923 24.2341Z" fill="#BC453D"/>
<path d="M40.5001 24.4801C40.2721 25.1881 39.7501 25.8361 39.0661 26.2561C38.3821 26.6821 37.5361 26.8621 36.7321 26.7901C35.1121 26.6641 33.66 25.5361 33.228 24.0961C33.192 23.9761 33.264 23.8441 33.384 23.8081C33.456 23.7901 33.528 23.8021 33.582 23.8381L33.588 23.8441C34.158 24.2401 34.68 24.5701 35.226 24.8101C35.766 25.0501 36.312 25.2061 36.8641 25.2661C37.4161 25.3261 37.9681 25.2781 38.5081 25.1041C39.0541 24.9361 39.5821 24.6361 40.1341 24.2341L40.1401 24.2281C40.2421 24.1501 40.3861 24.1741 40.4641 24.2761C40.5121 24.3361 40.5241 24.4141 40.5001 24.4801Z" fill="#BC453D"/>
<path d="M42.8161 32.4181C44.5128 32.4181 45.8881 32.0742 45.8881 31.6501C45.8881 31.2259 44.5128 30.8821 42.8161 30.8821C41.1195 30.8821 39.7441 31.2259 39.7441 31.6501C39.7441 32.0742 41.1195 32.4181 42.8161 32.4181Z" fill="#BC453D"/>
</svg>
