<svg width="90" height="90" viewBox="0 0 90 90" fill="none" xmlns="http://www.w3.org/2000/svg">
<g clip-path="url(#clip0)">
<path d="M48.9599 18.1254C57.2714 19.3524 64.3589 24.3867 68.3999 31.4014C68.9489 32.3533 70.1189 32.7547 71.1449 32.3578L83.8574 27.4407C85.0949 26.9626 85.6664 25.5145 85.0634 24.3326C78.2594 11.0385 65.0699 1.57436 49.5539 0.0135328C48.2264 -0.121799 47.0654 0.920254 47.0654 2.26004V15.9015C47.0654 17.0067 47.8664 17.963 48.9599 18.1254Z" fill="#CFE3FF"/>
<path d="M33.2911 20.5163C35.5951 19.3975 38.0836 18.5991 40.6936 18.1795C41.7781 18.0036 42.5656 17.0563 42.5656 15.9601V2.29613C42.5656 0.947323 41.3911 -0.0947298 40.0546 0.0541349C34.1461 0.699215 28.5841 2.49461 23.5891 5.20576C22.4146 5.84633 22.0411 7.35753 22.7926 8.46725L30.4606 19.7539C31.0861 20.6742 32.2876 20.9989 33.2911 20.5163Z" fill="#3C5DDD"/>
<path d="M29.0025 69.1093C29.5335 68.1485 29.3085 66.9305 28.4445 66.2583C22.095 61.3007 18 53.5687 18 44.8895C18 37.153 21.258 30.1654 26.4645 25.2258C27.261 24.4679 27.387 23.2409 26.7705 22.3297L19.098 11.0385C18.342 9.92431 16.785 9.72583 15.7635 10.601C6.1155 18.8788 0 31.1669 0 44.8895C0 60.1413 7.551 73.6249 19.1115 81.7899C20.2095 82.5658 21.735 82.2274 22.3875 81.0501L29.0025 69.1093Z" fill="#5784EE"/>
<path d="M72.7695 36.5666C71.739 36.9636 71.145 38.0552 71.379 39.1379C71.784 40.9919 72 42.9182 72 44.894C72 59.8166 59.886 71.9603 45 71.9603C41.715 71.9603 38.565 71.3649 35.649 70.2777C34.6185 69.8942 33.4665 70.3499 32.9355 71.3107L26.3205 83.247C25.6725 84.4198 26.1765 85.8995 27.4095 86.4228C32.9985 88.8046 39.1635 90.0902 45.6435 90C69.993 89.6617 89.8155 69.6597 90.0045 45.2459C90.036 41.0686 89.5005 37.0222 88.47 33.1788C88.1235 31.8796 86.733 31.1623 85.482 31.6495L72.7695 36.5666Z" fill="#7DB2FF"/>
</g>
<defs>
<clipPath id="clip0">
<rect width="90" height="90" fill="white"/>
</clipPath>
</defs>
</svg>
