<svg width="60" height="60" viewBox="0 0 60 60" fill="none" xmlns="http://www.w3.org/2000/svg">
<path d="M45.2757 9.654L9.64169 45.288C8.52569 46.404 8.52569 48.21 9.64169 49.326L11.0457 50.73C12.1617 51.846 13.9677 51.846 15.0837 50.73L50.7177 15.102C51.8337 13.986 51.8337 12.18 50.7177 11.064L49.3137 9.66C48.1977 8.538 46.3917 8.538 45.2757 9.654Z" fill="#E46759"/>
<path d="M54.1257 21.678L51.8217 23.982C51.2757 24.528 50.3817 24.528 49.8357 23.982L36.4917 10.638C35.9457 10.092 35.9457 9.19798 36.4917 8.65198L38.7957 6.34798C39.3417 5.80198 40.2357 5.80198 40.7817 6.34798L54.1257 19.692C54.6717 20.238 54.6717 21.132 54.1257 21.678Z" fill="#FFAC98"/>
<path d="M24.0001 51.804L21.6961 54.108C21.1501 54.654 20.2561 54.654 19.7101 54.108L6.36607 40.764C5.82006 40.218 5.82006 39.324 6.36607 38.778L8.67006 36.474C9.21606 35.928 10.1101 35.928 10.6561 36.474L24.0001 49.812C24.5521 50.364 24.5521 51.252 24.0001 51.804Z" fill="#FFAC98"/>
<path d="M26.5078 9.31802L29.9278 5.89802C30.4738 5.35202 31.3678 5.35202 31.9138 5.89802L53.3698 27.354C53.9158 27.9 53.9158 28.794 53.3698 29.34L49.9498 32.76C49.4038 33.306 48.5098 33.306 47.9638 32.76L26.5078 11.304C25.9618 10.758 25.9618 9.86402 26.5078 9.31802Z" fill="#FFAC98"/>
<path d="M32.7482 49.974L29.3282 53.394C28.7822 53.94 27.8882 53.94 27.3422 53.394L5.87424 31.938C5.32824 31.392 5.32824 30.498 5.87424 29.952L9.29424 26.532C9.84023 25.986 10.7342 25.986 11.2802 26.532L32.7362 47.988C33.2942 48.534 33.2942 49.422 32.7482 49.974Z" fill="#FFAC98"/>
</svg>
