<svg width="100" height="100" viewBox="0 0 100 100" fill="none" xmlns="http://www.w3.org/2000/svg">
<path d="M85 50C85 43.23 79.49 37.71 72.71 37.71C72.15 37.71 71.61 37.76 71.07 37.83C71.4 37.4 71.72 36.95 72 36.47C73.64 33.63 74.08 30.32 73.23 27.15C72.38 23.98 70.35 21.33 67.51 19.69C64.67 18.05 61.36 17.61 58.19 18.46C55.02 19.31 52.37 21.34 50.73 24.18C50.45 24.66 50.22 25.16 50.01 25.66C49.8 25.16 49.57 24.66 49.29 24.18C47.65 21.34 45 19.3 41.83 18.46C38.66 17.61 35.35 18.05 32.51 19.69C26.64 23.08 24.63 30.61 28.01 36.47C28.29 36.95 28.59 37.4 28.92 37.83C28.39 37.76 27.85 37.71 27.29 37.71C20.51 37.71 15 43.23 15 50C15 56.77 20.51 62.29 27.29 62.29C27.85 62.29 28.39 62.24 28.93 62.17C28.6 62.6 28.28 63.05 28 63.53C26.36 66.37 25.92 69.68 26.77 72.85C27.62 76.02 29.65 78.67 32.49 80.31C34.38 81.4 36.48 81.96 38.61 81.96C39.68 81.96 40.75 81.82 41.81 81.54C44.98 80.69 47.63 78.66 49.27 75.81C49.55 75.33 49.78 74.83 49.99 74.33C50.2 74.83 50.43 75.33 50.71 75.81C52.35 78.65 55 80.69 58.17 81.54C59.23 81.82 60.3 81.96 61.37 81.96C63.5 81.96 65.6 81.4 67.49 80.31C70.33 78.67 72.37 76.02 73.21 72.85C74.06 69.68 73.62 66.37 71.98 63.53C71.7 63.05 71.39 62.6 71.05 62.17C71.59 62.24 72.13 62.29 72.69 62.29C79.49 62.29 85 56.78 85 50ZM62.63 57.46C62.68 57.38 62.73 57.29 62.78 57.2C62.85 57.3 62.93 57.4 63.01 57.5C62.88 57.49 62.75 57.47 62.63 57.46ZM49.85 64.67C49.95 64.67 50.04 64.67 50.14 64.67C50.09 64.78 50.04 64.89 49.99 65.01C49.95 64.89 49.9 64.78 49.85 64.67Z" fill="#F9907B"/>
<path d="M50.15 61.49C56.4958 61.49 61.64 56.3458 61.64 50C61.64 43.6542 56.4958 38.51 50.15 38.51C43.8043 38.51 38.66 43.6542 38.66 50C38.66 56.3458 43.8043 61.49 50.15 61.49Z" fill="#C75E5A"/>
</svg>
