<?xml version="1.0" encoding="iso-8859-1"?>
<!-- Generator: Adobe Illustrator 19.0.0, SVG Export Plug-In . SVG Version: 6.00 Build 0)  -->
<svg version="1.1" id="Capa_1" xmlns="http://www.w3.org/2000/svg" xmlns:xlink="http://www.w3.org/1999/xlink" x="0px" y="0px"
	 viewBox="0 0 512 512" style="enable-background:new 0 0 512 512;" xml:space="preserve">
<path style="fill:#10BB67;" d="M357.499,131.349l-8.699,9C338,151.15,332,165.55,332,180.85v60c0,8.399-7.599,15-16,15
	s-15-6.601-15-15v-60c0-15.3-6-29.7-16.8-40.501l-8.699-9c-6-5.7-6-15.3,0-21c5.7-5.999,15.298-5.999,20.999,0l9.001,8.701
	c3.9,3.9,7.5,8.399,10.499,12.9c2.999-4.501,7.599-9,11.499-12.9l9.001-8.701c5.7-5.999,15.298-5.999,20.999,0
	C363.5,116.049,363.5,125.649,357.499,131.349z"/>
<path style="fill:#0CA656;" d="M357.499,131.349l-8.699,9C338,151.15,332,165.55,332,180.85v60c0,8.399-7.599,15-16,15v-123.9
	c2.999-4.501,7.599-9,11.499-12.9l9.001-8.701c5.7-5.999,15.298-5.999,20.999,0C363.5,116.049,363.5,125.649,357.499,131.349z"/>
<path style="fill:#10BB67;" d="M347,135.85c-8.291,0-15-6.709-15-15c0-57.891,47.109-105,105-105c8.291,0,15,6.709,15,15
	C452,88.74,404.891,135.85,347,135.85z"/>
<path style="fill:#32D736;" d="M286,135.85c-57.891,0-105-47.109-105-105c0-8.291,6.709-15,15-15c57.891,0,105,47.109,105,105
	C301,129.141,294.291,135.85,286,135.85z"/>
<path style="fill:#896748;" d="M446,320.65c-18-56.7-70.6-94.8-130-94.8c-45.6,0-87.6,22.8-112.8,60.9c-0.9,1.2-1.5,2.7-1.8,4.2
	l-34.8,119.4c-1.8,6,0.3,12.3,5.1,15.9l60,48.6c2.7,2.1,6,3.3,9.3,3.3c1.5,0,3-0.3,4.5-0.9l70.5-21.9l51.1-15.6l71.7-38.4
	c4.8-2.7,7.8-7.8,7.8-13.2v-63C446.6,323.65,446.3,322.15,446,320.65z"/>
<path style="fill:#73553A;" d="M446.6,325.15v63c0,5.4-3,10.5-7.8,13.2l-71.7,38.4l-51.1,15.6v-229.5c59.4,0,112,38.1,130,94.8
	C446.3,322.15,446.6,323.65,446.6,325.15z"/>
<path style="fill:#FEDBAB;" d="M512,332.349c0,8.699-3.3,17.999-9,25.8l-72.001,96c-19.799,26.1-51,42.001-84,42.001H204.101
	c-33.6,0-67.2-10.801-94.801-30c-1.8,0-3.3,0-3.3,0H15c-8.401,0-15-6.901-15-15v-120c0-8.401,6.599-15,15-15h115.3l11.4-10.201
	c39.6-34.501,99-34.799,138.6,0c5.7,5.099,9.6,11.501,17.1,11.501s13.801,0,18.6-0.3c22.2,0.3,20.799,0,31,0c16.5,0,30,12.2,30,28.7
	s-13.5,30-30,30c-3.3,0-16.901,0.3-31,0.3h-46.5c-17.401,0-32.701,9.3-40.501,24.899C220.3,418.75,247,431.95,256,414.249
	c2.401-5.099,7.8-8.099,13.5-8.099h87.4c12.599,0,24.6-5.402,32.999-14.401L464,312.25c7.798-8.401,19.799-11.1,30.599-6.901
	C506.6,310.15,512,320.649,512,332.349z"/>
<g>
	<path style="fill:#FEC478;" d="M347,375.85c-3.3,0-16.901,0.3-31,0.3v-59c22.2,0.3,20.799,0,31,0c16.5,0,30,12.2,30,28.7
		S363.5,375.85,347,375.85z"/>
	<path style="fill:#FEC478;" d="M512,332.349c0,8.699-3.3,17.999-9,25.8l-72.001,96c-19.799,26.1-51,42.001-84,42.001h-31v-90H356.9
		c12.599,0,24.6-5.402,32.999-14.401L464,312.25c7.798-8.401,19.799-11.1,30.599-6.901C506.6,310.15,512,320.649,512,332.349z"/>
</g>
<g>
</g>
<g>
</g>
<g>
</g>
<g>
</g>
<g>
</g>
<g>
</g>
<g>
</g>
<g>
</g>
<g>
</g>
<g>
</g>
<g>
</g>
<g>
</g>
<g>
</g>
<g>
</g>
<g>
</g>
</svg>
