<svg width="100" height="100" viewBox="0 0 100 100" fill="none" xmlns="http://www.w3.org/2000/svg">
<path d="M50.28 80.78C33.34 80.78 19.56 67 19.56 50.06C19.56 33.12 33.34 19.34 50.28 19.34C67.22 19.34 81 33.13 81 50.07C81 67 67.22 80.78 50.28 80.78Z" fill="#E5B845"/>
<path d="M42.67 49.03V43.05H54.89V63.02H58.75V69H42.67V63.02H46.61V49.03H42.67ZM46.31 35.61C46.31 34.36 46.75 33.29 47.64 32.4C48.52 31.51 49.59 31.06 50.84 31.06C52.11 31.06 53.18 31.51 54.06 32.4C54.94 33.29 55.37 34.36 55.37 35.61C55.37 36.86 54.93 37.92 54.04 38.8C53.16 39.68 52.09 40.12 50.84 40.12C49.61 40.12 48.54 39.67 47.65 38.78C46.76 37.9 46.31 36.84 46.31 35.61Z" fill="#FEEAA4"/>
</svg>
