<svg id="Capa_1" enable-background="new 0 0 494.722 494.722" height="512" viewBox="0 0 494.722 494.722" width="512" xmlns="http://www.w3.org/2000/svg"><g><g id="XMLID_1092_"><g><path d="m323.086 26.33v397.92l-299.76-1.26v-136.58-192.36-69.94c0-13.31 10.79-24.11 24.11-24.11h251.54c13.31 0 24.11 10.8 24.11 24.11z" fill="#f47c7c"/></g></g><path d="m84.182 422.99v-136.58-192.36-69.94c0-13.31 10.79-24.11 24.11-24.11h-60.856c-13.32 0-24.11 10.8-24.11 24.11v69.94 192.36 136.58l299.76 1.26v-.256z" fill="#ee6161"/><path d="m266.976 455.089h-210.921c-17.998 0-33.069-14.729-32.725-32.723.333-17.438 14.573-31.471 32.091-31.471h211.555 53.774v64.194z" fill="#fdd79b"/><path d="m55.918 422.366c.333-17.438 14.573-31.471 32.091-31.471h-32.588c-17.518 0-31.758 14.033-32.091 31.471-.344 17.994 14.728 32.723 32.725 32.723h32.588c-17.998 0-33.07-14.729-32.725-32.723z" fill="#fccd7f"/><path d="m159.726 494.433-22.889-11.415-22.889 11.415c-1.804.9-3.924-.412-3.924-2.428v-67.754h53.625v67.754c0 2.016-2.12 3.328-3.923 2.428z" fill="#f47c7c"/><g><path d="m176.112 431.752h-79.305c-4.142 0-7.5-3.357-7.5-7.5s3.358-7.5 7.5-7.5h79.305c4.142 0 7.5 3.357 7.5 7.5s-3.358 7.5-7.5 7.5z" fill="#fccd7f"/></g><path d="m232.107 357.945h-156.289c-4.611 0-8.349-3.738-8.349-8.349v-28.184c0-4.611 3.738-8.349 8.349-8.349h105.803 53.004 32.351v37.812c0 4.017-3.27 7.266-7.286 7.241z" fill="#f9f7f8"/><path d="m75.818 357.945h8.365v-44.881h-8.365c-4.611 0-8.349 3.738-8.349 8.349v28.184c0 4.61 3.738 8.348 8.349 8.348z" fill="#efedef"/><g id="XMLID_1093_"><g><g><path d="m266.976 72.79v120.06h-121.81-70.2c-4.14 0-7.5-3.36-7.5-7.5v-105.06c0-4.15 3.36-7.5 7.5-7.5h128.2z" fill="#f9f7f8"/></g></g></g><path d="m74.966 192.85h9.216v-98.8-21.26h-9.216c-4.14 0-7.5 3.35-7.5 7.5v105.06c0 4.14 3.36 7.5 7.5 7.5z" fill="#efedef"/><path d="m349.196 444.267v-93.597-78.89h-52.22v78.89 93.597z" fill="#d7d0d6"/><path d="m324.277 271.78h-27.301v78.89 93.597h27.301v-93.597z" fill="#c9bfc8"/><circle cx="323.084" cy="204.644" fill="#efedef" r="148.314"/><path d="m255.507 204.644c0-67.918 45.653-125.171 107.946-142.751-12.835-3.623-26.375-5.563-40.369-5.563-81.912 0-148.314 66.402-148.314 148.314s66.403 148.314 148.314 148.314c13.994 0 27.534-1.94 40.369-5.563-62.293-17.58-107.946-74.833-107.946-142.751z" fill="#e5e1e5"/><circle cx="323.084" cy="204.644" fill="#d4f2f6" r="114.605"/><path d="m308.58 90.949c-56.447 7.129-100.102 55.313-100.102 113.695s43.655 106.567 100.102 113.695c-32.445-27.206-53.074-68.041-53.074-113.695s20.63-86.49 53.074-113.695z" fill="#a6e7f0"/><g id="XMLID_1095_"><g><path d="m349.196 432.63v25.87c0 10.16-8.24 18.39-18.39 18.39h-15.44c-10.16 0-18.39-8.23-18.39-18.39v-25.87z" fill="#c9bfc8"/></g></g><path d="m324.277 458.5v-25.87h-27.301v25.87c0 10.16 8.23 18.39 18.39 18.39h15.44c2.077 0 4.092-.351 5.954-.986-7.243-2.469-12.483-9.323-12.483-17.404z" fill="#baafb9"/><g><g><path d="m105.012 118.006h-6.823c-4.142 0-7.5-3.357-7.5-7.5s3.358-7.5 7.5-7.5h6.823c4.142 0 7.5 3.357 7.5 7.5s-3.358 7.5-7.5 7.5z" fill="#efedef"/></g></g><g><g><path d="m164.304 118.006h-27.293c-4.142 0-7.5-3.357-7.5-7.5s3.358-7.5 7.5-7.5h27.293c4.142 0 7.5 3.357 7.5 7.5s-3.358 7.5-7.5 7.5z" fill="#efedef"/></g></g><g><g><path d="m145.952 157.065h-47.764c-4.142 0-7.5-3.357-7.5-7.5s3.358-7.5 7.5-7.5h47.763c4.142 0 7.5 3.357 7.5 7.5s-3.357 7.5-7.499 7.5z" fill="#efedef"/></g></g><g fill="#fed402"><path d="m332.24 277.967h-20.867c-4.409 0-8.076-3.392-8.419-7.788l-5.319-68.231c-.383-4.908 3.496-9.101 8.419-9.101h31.505c4.922 0 8.802 4.193 8.419 9.101l-5.319 68.231c-.343 4.395-4.01 7.788-8.419 7.788z"/><path d="m336.824 162.347h-32.149c-4.252 0-7.699-3.447-7.699-7.699v-18.033c0-4.252 3.447-7.699 7.699-7.699h32.149c4.252 0 7.699 3.447 7.699 7.699v18.033c.001 4.252-3.446 7.699-7.699 7.699z"/></g></g></svg>