<svg height="512pt" viewBox="-91 0 512 512" width="512pt" xmlns="http://www.w3.org/2000/svg"><path d="m170.15625 258.230469-38.949219 58.550781-12.445312-8.285156-12.546875-8.34375 38.949218-58.550782 12.535157 8.34375zm0 0" fill="#ffdf48"/><path d="m170.15625 258.230469-38.949219 58.550781-12.445312-8.285156 38.9375-58.550782zm0 0" fill="#fec000"/><path d="m326.625 109.226562-1.351562 7.113282-27.523438 14.464844 12.777344 28.117187-3.632813 6.59375c-2.199219 4-4.539062 7.863281-6.941406 11.484375-45.625 68.574219-135.601563 86.894531-139.402344 87.644531l-14.515625 2.851563-.070312.007812-3.003906-14.554687c-.777344-3.800781-18.636719-93.867188 26.984374-162.441407 45.632813-68.585937 135.601563-86.90625 139.402344-87.65625l14.597656-2.851562 2.992188 14.558594c.378906 1.828125 9.09375 45.292968-.3125 94.667968zm0 0" fill="#ffb74f"/><path d="m326.625 109.226562-1.351562 7.113282-27.523438 14.464844 12.777344 28.117187-3.632813 6.59375c-2.199219 4-4.539062 7.863281-6.941406 11.484375-45.625 68.574219-135.601563 86.894531-139.402344 87.644531l-14.515625 2.851563 177.910156-267.496094 2.992188 14.558594c.378906 1.828125 9.09375 45.292968-.3125 94.667968zm0 0" fill="#ff9a00"/><path d="m248.988281 428.347656c0 32.257813-19.222656 62.761719-51.40625 81.601563l-3.511719 2.050781h-139.152343l-3.511719-2.050781c-32.1875-18.839844-51.40625-49.34375-51.40625-81.601563 0-36.867187 24.824219-70.535156 64.101562-88.105468v-46.304688h120.78125v46.304688c39.28125 17.570312 64.105469 51.238281 64.105469 88.105468zm0 0" fill="#e0e4fa"/><path d="m248.988281 428.347656c0 32.257813-19.222656 62.761719-51.40625 81.601563l-3.511719 2.050781h-139.152343l-3.511719-2.050781c-32.1875-18.839844-51.40625-49.34375-51.40625-81.601563 0-9.414062 1.628906-18.621094 4.691406-27.402344h239.601563c3.0625 8.78125 4.695312 17.988282 4.695312 27.402344zm0 0" fill="#0087ff"/><path d="m248.988281 428.347656c0 32.257813-19.222656 62.761719-51.40625 81.601563l-3.511719 2.050781h-69.578124v-218.0625h60.390624v46.304688c39.28125 17.570312 64.105469 51.238281 64.105469 88.105468zm0 0" fill="#c4c9f7"/><path d="m248.988281 428.347656c0 32.257813-19.222656 62.761719-51.40625 81.601563l-3.511719 2.050781h-69.578124v-111.054688h119.800781c3.0625 8.78125 4.695312 17.988282 4.695312 27.402344zm0 0" fill="#4b5be4"/></svg>