<svg width="100" height="100" viewBox="0 0 100 100" fill="none" xmlns="http://www.w3.org/2000/svg">
<path d="M50.31 51C59.75 51 68.82 51 70.63 51C78.25 51 84.42 44.83 84.42 37.21C84.42 29.59 78.25 23.42 70.63 23.42C68.78 23.42 67.02 23.79 65.41 24.45C62.37 18.82 56.41 14.99 49.56 14.99C41.45 14.99 34.59 20.36 32.34 27.74C30.71 26.94 28.89 26.48 26.96 26.48C20.19 26.48 14.7 31.97 14.7 38.74C14.7 45.51 20.2 51 26.97 51C28.67 51 35.73 51 43.72 51" fill="#FEEAA4"/>
<path d="M50.33 39.07L34.29 68.01C34.02 68.49 34.37 69.08 34.92 69.08H48.03L45.24 91.77C45.17 92.33 45.92 92.59 46.21 92.1L64.83 60.48C65.11 60 64.77 59.4 64.21 59.4H49.58L51.31 39.37C51.36 38.8 50.6 38.57 50.33 39.07Z" fill="#FFD645"/>
</svg>
