<svg width="53" height="43" viewBox="0 0 53 43" fill="none" xmlns="http://www.w3.org/2000/svg">
<g clip-path="url(#clip0)">
<path d="M50.0238 41.8501H1.14471V33.6932L17.6667 12.266L36.0889 25.1377L50.0238 6.60068V41.8501Z" fill="#C6DEFF"/>
<path d="M1.88493 34.8432C1.64835 34.8432 1.41178 34.7665 1.20573 34.6208C0.69443 34.2452 0.587591 33.5246 0.96916 33.0109L17.3995 10.6945L36.3559 23.5584L49.1003 5.92605C49.4743 5.41242 50.184 5.29742 50.7029 5.67307C51.2142 6.04871 51.3287 6.76168 50.9548 7.27531L36.913 26.7093L17.9337 13.8376L2.80069 34.3755C2.57938 34.6822 2.22834 34.8432 1.88493 34.8432Z" fill="#6083E7"/>
<path d="M17.6667 15.5702C19.3104 15.5702 20.6429 14.2316 20.6429 12.5804C20.6429 10.9291 19.3104 9.59053 17.6667 9.59053C16.0229 9.59053 14.6904 10.9291 14.6904 12.5804C14.6904 14.2316 16.0229 15.5702 17.6667 15.5702Z" fill="#6083E7"/>
<path d="M36.0888 28.1274C37.7325 28.1274 39.065 26.7888 39.065 25.1376C39.065 23.4864 37.7325 22.1478 36.0888 22.1478C34.4451 22.1478 33.1126 23.4864 33.1126 25.1376C33.1126 26.7888 34.4451 28.1274 36.0888 28.1274Z" fill="#6083E7"/>
<path d="M50.0238 9.59048C51.6675 9.59048 53 8.25189 53 6.60065C53 4.9494 51.6675 3.61081 50.0238 3.61081C48.3801 3.61081 47.0475 4.9494 47.0475 6.60065C47.0475 8.25189 48.3801 9.59048 50.0238 9.59048Z" fill="#6083E7"/>
<path d="M50.7182 43H0V1.14994C0 0.513639 0.511303 0 1.14471 0C1.77811 0 2.28942 0.513639 2.28942 1.14994V40.7001H50.7182C51.3516 40.7001 51.8629 41.2138 51.8629 41.8501C51.8629 42.4864 51.3516 43 50.7182 43Z" fill="#86B6FF"/>
</g>
<defs>
<clipPath id="clip0">
<rect width="53" height="43" fill="white"/>
</clipPath>
</defs>
</svg>
