<svg width="80" height="80" viewBox="0 0 80 80" fill="none" xmlns="http://www.w3.org/2000/svg">
<path d="M64.32 65.8799H13.08V49.3679L30.4 27.0079L49.72 40.4399L64.32 21.0959V65.8799Z" fill="#CFE4FF"/>
<path d="M13.856 52.168C13.608 52.168 13.36 52.088 13.144 51.936C12.608 51.544 12.496 50.792 12.896 50.256L30.128 26.968L50 40.392L63.36 21.992C63.752 21.456 64.496 21.336 65.032 21.728C65.568 22.12 65.688 22.864 65.296 23.4L50.568 43.68L30.68 30.248L14.816 51.688C14.584 52 14.224 52.168 13.856 52.168Z" fill="#618EF7"/>
<path d="M30.4 32.056C32.1231 32.056 33.52 30.6592 33.52 28.936C33.52 27.2129 32.1231 25.816 30.4 25.816C28.6769 25.816 27.28 27.2129 27.28 28.936C27.28 30.6592 28.6769 32.056 30.4 32.056Z" fill="#618EF7"/>
<path d="M49.72 45.16C51.4431 45.16 52.84 43.7632 52.84 42.04C52.84 40.3169 51.4431 38.92 49.72 38.92C47.9969 38.92 46.6 40.3169 46.6 42.04C46.6 43.7632 47.9969 45.16 49.72 45.16Z" fill="#618EF7"/>
<path d="M64.32 25.8161C66.0431 25.8161 67.44 24.4192 67.44 22.6961C67.44 20.9729 66.0431 19.576 64.32 19.576C62.5969 19.576 61.2 20.9729 61.2 22.6961C61.2 24.4192 62.5969 25.8161 64.32 25.8161Z" fill="#618EF7"/>
<path d="M65.048 67.0799H11.88V16.4C11.88 15.736 12.416 15.2 13.08 15.2C13.744 15.2 14.28 15.736 14.28 16.4V64.6799H65.048C65.712 64.6799 66.248 65.2159 66.248 65.8799C66.248 66.5439 65.712 67.0799 65.048 67.0799Z" fill="#7DB2FF"/>
</svg>
