<svg width="69" height="109" viewBox="0 0 69 109" fill="none" xmlns="http://www.w3.org/2000/svg">
<g clip-path="url(#clip0)">
<path d="M8.91389 39.5289C8.60167 38.7011 8.42896 37.7998 8.42896 36.8652C8.42896 32.4189 12.2486 28.8672 16.7725 29.3479C20.1338 29.7018 22.8972 32.3722 23.3955 35.7302C23.5947 37.0855 23.4287 38.374 22.9902 39.5289C22.7843 40.0697 23.1962 40.6505 23.7741 40.6505H34.3961V25.5092C34.3961 25.2221 34.5356 24.9885 34.7349 24.8416C35.0139 24.6346 35.4125 24.5946 35.7314 24.8416C35.8841 24.9618 36.0369 25.0752 36.203 25.1821C36.2096 25.1887 36.2229 25.1954 36.2296 25.2021C36.4023 25.3156 36.575 25.4224 36.7544 25.5225C36.8075 25.5492 36.8673 25.5759 36.9204 25.6027C37.0467 25.6694 37.1729 25.7362 37.3057 25.7963C37.3788 25.8296 37.4585 25.8563 37.5316 25.883C37.6445 25.9298 37.7641 25.9832 37.8837 26.0232C37.97 26.0499 38.0564 26.0767 38.1427 26.1034C38.2557 26.1367 38.3686 26.1768 38.4815 26.2035C38.5679 26.2235 38.6609 26.2436 38.7539 26.2636C38.8668 26.2903 38.9864 26.317 39.0993 26.337C39.1923 26.3504 39.2853 26.3637 39.3783 26.3704C39.4979 26.3838 39.6108 26.4038 39.737 26.4171C39.8367 26.4238 39.9363 26.4238 40.0293 26.4305C40.1489 26.4372 40.2618 26.4438 40.3814 26.4438C40.5541 26.4438 40.7202 26.4305 40.8863 26.4171C43.9021 26.1968 46.4929 24.1272 47.4694 21.3367C47.4694 21.33 47.476 21.3233 47.476 21.3166C47.5425 21.1163 47.6023 20.9094 47.6554 20.7024C47.6753 20.629 47.6886 20.5556 47.7019 20.4754C47.7351 20.3219 47.7683 20.1683 47.7883 20.0148C47.8082 19.8879 47.8215 19.7611 47.8348 19.6409C47.848 19.5208 47.8613 19.4006 47.868 19.2804C47.8746 19.1469 47.8746 19.0134 47.8746 18.8799C47.8746 18.7463 47.8746 18.6128 47.868 18.4793C47.8613 18.3591 47.848 18.239 47.8348 18.1188C47.8215 17.9919 47.8082 17.8651 47.7883 17.7449C47.7617 17.5914 47.7351 17.4378 47.7019 17.2843C47.6886 17.2108 47.6687 17.1307 47.6554 17.0573C47.6023 16.8503 47.5425 16.6434 47.476 16.4431C47.476 16.4364 47.4694 16.4297 47.4694 16.4231C46.4929 13.6325 43.9021 11.5629 40.8863 11.3426C40.7202 11.3292 40.5475 11.3159 40.3814 11.3159C40.2618 11.3159 40.1489 11.3226 40.0293 11.3292C39.9297 11.3359 39.83 11.3359 39.737 11.3426C39.6175 11.3493 39.5045 11.3693 39.385 11.3893C39.292 11.4027 39.199 11.4094 39.106 11.4227C38.993 11.4427 38.8801 11.4694 38.7672 11.4961C38.6742 11.5162 38.5812 11.5295 38.4882 11.5562C38.3752 11.5829 38.2623 11.623 38.1494 11.6564C38.063 11.6831 37.9767 11.7031 37.8903 11.7365C37.7707 11.7765 37.6512 11.8299 37.5316 11.8767C37.4585 11.9034 37.3854 11.9301 37.3124 11.9635C37.1862 12.0169 37.0666 12.0836 36.9404 12.1504C36.8806 12.1838 36.8208 12.2105 36.761 12.2439C36.5816 12.344 36.4089 12.4508 36.2362 12.5576C36.2296 12.5643 36.2163 12.571 36.2096 12.5777C36.0502 12.6845 35.8908 12.798 35.738 12.9181C35.4191 13.1718 35.0206 13.1251 34.7349 12.9181C34.715 12.9048 34.6951 12.8981 34.6818 12.8848C34.6818 12.8848 34.6818 12.8848 34.6818 12.8781C34.5157 12.7312 34.4028 12.5109 34.4028 12.2572V-3.05176e-05C33.9776 -3.05176e-05 33.5525 -3.05176e-05 33.1273 0.0199977C15.4771 0.707632 1.02875 14.9744 0.0522365 32.686C-0.100551 35.4165 0.0721653 38.0802 0.517241 40.6438H8.13003C8.70796 40.6438 9.11982 40.0697 8.91389 39.5289Z" fill="#FFD645"/>
<path d="M34.3904 -3.10247e-08V12.2506C34.3904 12.5109 34.5033 12.7246 34.6694 12.8714C34.6694 12.8714 34.6694 12.8714 34.6694 12.8781C34.6827 12.8915 34.7026 12.9048 34.7225 12.9115C35.0015 13.1251 35.4067 13.1652 35.7256 12.9115C35.8784 12.7913 36.0312 12.6778 36.1972 12.571C36.2039 12.5643 36.2172 12.5577 36.2238 12.551C36.3965 12.4375 36.5692 12.3307 36.7486 12.2372C36.8084 12.2038 36.8682 12.1771 36.928 12.1437C37.0475 12.0837 37.1738 12.0169 37.3 11.9568C37.373 11.9234 37.4461 11.8967 37.5192 11.87C37.6388 11.8233 37.7583 11.7699 37.8779 11.7298C37.9643 11.7031 38.0506 11.6764 38.137 11.6497C38.2499 11.6163 38.3628 11.5763 38.4758 11.5496C38.5688 11.5229 38.6618 11.5095 38.7548 11.4895C38.8677 11.4628 38.9806 11.4361 39.0936 11.4161C39.1866 11.4027 39.2796 11.3894 39.3726 11.3827C39.4921 11.3693 39.6051 11.3493 39.7246 11.3359C39.8243 11.3293 39.9239 11.3293 40.0169 11.3226C40.1365 11.3159 40.2494 11.3092 40.369 11.3092C40.3756 11.3092 40.3823 11.3092 40.3956 11.3092C40.5616 11.3092 40.7211 11.3226 40.8805 11.3359C43.8964 11.5563 46.4871 13.6258 47.4636 16.4164C47.4636 16.4231 47.4703 16.4298 47.4703 16.4365C47.5367 16.6367 47.5965 16.8437 47.6496 17.0507C47.6696 17.1241 47.6829 17.1975 47.6961 17.2776C47.7294 17.4312 47.7626 17.5847 47.7825 17.7383C47.8024 17.8651 47.8157 17.992 47.829 18.1121C47.8423 18.2323 47.8556 18.3525 47.8622 18.4727C47.8622 18.506 47.8689 18.5394 47.8689 18.5728C47.8755 18.6729 47.8622 18.7731 47.8622 18.8732C47.8622 19.0067 47.8622 19.1403 47.8556 19.2738C47.8489 19.3939 47.8356 19.5141 47.8224 19.6343C47.8091 19.7611 47.7958 19.888 47.7759 20.0081C47.7493 20.1617 47.7227 20.3152 47.6895 20.4688C47.6762 20.5422 47.6563 20.6223 47.643 20.6958C47.5899 20.9027 47.5301 21.1097 47.4636 21.31C47.4636 21.3167 47.457 21.3233 47.457 21.33C46.4938 24.1406 43.9429 26.1969 40.8739 26.4105C40.7078 26.4238 40.5351 26.4372 40.369 26.4372C40.3624 26.4372 40.3557 26.4372 40.3491 26.4372C40.2361 26.4372 40.1299 26.4305 40.0169 26.4238C39.9173 26.4172 39.8176 26.4172 39.7246 26.4105C39.6051 26.3971 39.4855 26.3838 39.3659 26.3638C39.2729 26.3504 39.1799 26.3437 39.0869 26.3304C38.9673 26.3103 38.8544 26.2836 38.7415 26.2569C38.6485 26.2369 38.5621 26.2236 38.4691 26.1969C38.3562 26.1701 38.2433 26.1301 38.1303 26.0967C38.044 26.07 37.9576 26.05 37.8713 26.0166C37.7517 25.9765 37.6388 25.9231 37.5192 25.8764C37.4461 25.843 37.3664 25.8163 37.2933 25.7896C37.1605 25.7295 37.0343 25.6628 36.908 25.596C36.8549 25.5693 36.7951 25.5426 36.742 25.5159C36.5626 25.4158 36.3899 25.3089 36.2172 25.1954C36.2105 25.1888 36.1972 25.1821 36.1906 25.1754C36.0312 25.0686 35.8784 24.9551 35.7256 24.8416C35.4067 24.5879 35.0082 24.628 34.7225 24.8349C34.5232 24.9818 34.3837 25.2155 34.3837 25.5025V40.6438H42.7339C43.3583 40.6438 43.7569 41.3114 43.4712 41.8722C42.9465 42.907 42.6475 44.0753 42.6542 45.3171C42.6675 49.3227 45.9158 52.7075 49.9016 52.8543C54.1863 53.0079 57.707 49.5697 57.707 45.2971C57.707 44.062 57.4081 42.9003 56.8899 41.8789C56.6043 41.3181 56.9962 40.6505 57.6207 40.6505H68.4752C68.814 38.7078 68.9933 36.705 68.9933 34.6688C69 15.4818 53.4954 -0.0534085 34.3904 -3.10247e-08Z" fill="#65DEB4"/>
<path d="M33.1083 70.0051C31.9856 70.6794 30.6703 71.0733 29.2687 71.0733C25.0172 71.0733 21.5895 67.535 21.7489 63.2289C21.895 59.3101 25.1301 56.0789 29.0362 55.952C30.5441 55.9053 31.9591 56.3125 33.1481 57.0336C33.6929 57.3674 34.3904 56.9401 34.3904 56.2992V40.6438H23.775C23.1971 40.6438 22.7852 40.0697 22.9911 39.5223C23.4296 38.3673 23.5956 37.0721 23.3963 35.7236C22.9048 32.3655 20.1347 29.6951 16.7733 29.3413C12.2495 28.8606 8.42984 32.4123 8.42984 36.8585C8.42984 37.7998 8.60256 38.6944 8.91478 39.5223C9.12071 40.063 8.70885 40.6438 8.13091 40.6438H0.518127C1.58099 46.7591 4.22488 52.3336 8.03127 56.9C12.8607 62.7015 15.8234 70.0385 16.5209 77.5157C16.7069 79.4718 18.3079 80.9739 20.2609 80.9939H34.3904V70.7128C34.3904 70.0452 33.6796 69.6647 33.1083 70.0051Z" fill="#7DB2FF"/>
<path d="M56.8899 41.8722C57.4147 42.9003 57.707 44.062 57.707 45.2904C57.707 49.563 54.1862 53.0012 49.9016 52.8477C45.9225 52.7008 42.6674 49.316 42.6541 45.3104C42.6475 44.0687 42.9464 42.9003 43.4712 41.8656C43.7569 41.3048 43.3649 40.6372 42.7339 40.6372H34.3903V56.2925C34.3903 56.9334 33.6928 57.3607 33.1481 57.0269C31.9524 56.2992 30.5441 55.8986 29.0362 55.9454C25.1368 56.0655 21.895 59.3034 21.7489 63.2223C21.5894 67.5283 25.0172 71.0666 29.2687 71.0666C30.6703 71.0666 31.9856 70.6794 33.1083 69.9985C33.6729 69.658 34.3903 70.0385 34.3903 70.7061V80.9873H48.6593C50.6456 81.0006 52.2864 79.4785 52.4657 77.489C53.1433 70.0118 55.9599 62.8351 60.8159 57.0803C64.702 52.4805 67.4056 46.8459 68.4818 40.6438H57.6273C56.9962 40.6438 56.6043 41.3114 56.8899 41.8722Z" fill="#FE8470"/>
<path d="M46.527 91.8692H22.2604C21.2174 91.8692 20.3804 92.7171 20.3804 93.7585V95.1138C20.3804 96.1619 21.2241 97.0031 22.2604 97.0031H46.527C47.5699 97.0031 48.4069 96.1553 48.4069 95.1138V93.7585C48.4069 92.7171 47.5633 91.8692 46.527 91.8692Z" fill="#B3B3B3"/>
<path d="M47.4968 84.0315H21.2839C20.2077 84.0315 19.3309 84.9128 19.3309 85.9943V87.2093C19.3309 88.2909 20.2077 89.1721 21.2839 89.1721H47.4968C48.573 89.1721 49.4499 88.2909 49.4499 87.2093V85.9943C49.4499 84.9128 48.5796 84.0315 47.4968 84.0315Z" fill="#B3B3B3"/>
<path d="M42.2091 99.7069H26.5783C25.7745 99.7069 25.1434 100.428 25.2763 101.222C25.9937 105.629 29.8068 108.993 34.397 108.993C38.9873 108.993 42.8003 105.629 43.5177 101.222C43.644 100.428 43.0129 99.7069 42.2091 99.7069Z" fill="#B3B3B3"/>
</g>
<defs>
<clipPath id="clip0">
<rect width="69" height="109" fill="white"/>
</clipPath>
</defs>
</svg>
