<svg width="24" height="24" viewBox="0 0 24 24" fill="none" xmlns="http://www.w3.org/2000/svg">
<path d="M21 12.7901L20.36 12.4201C20.37 12.2801 20.37 12.1401 20.37 12.0101C20.37 11.8701 20.37 11.7301 20.36 11.6001L21 11.2101C21.96 10.6601 22.28 9.43006 21.73 8.48006L19.91 5.33006C19.54 4.69006 18.87 4.33006 18.18 4.33006C17.84 4.33006 17.5 4.42006 17.18 4.60006L16.53 4.97006C16.3 4.82006 16.06 4.68006 15.82 4.56006V3.81006C15.82 2.71006 14.92 1.81006 13.82 1.81006H10.18C9.08 1.81006 8.18 2.71006 8.18 3.81006V4.56006C7.94 4.69006 7.7 4.82006 7.47 4.97006L6.82 4.60006C6.51 4.42006 6.16 4.33006 5.82 4.33006C5.13 4.33006 4.46 4.69006 4.09 5.33006L2.27 8.48006C1.72 9.44006 2.04 10.6601 3 11.2101L3.64 11.5801C3.64 11.7201 3.63 11.8601 3.63 12.0001C3.63 12.1401 3.63 12.2801 3.64 12.4101L3 12.7901C2.04 13.3401 1.72 14.5701 2.27 15.5201L4.09 18.6701C4.36 19.1301 4.79 19.4601 5.3 19.6001C5.47 19.6501 5.64 19.6701 5.82 19.6701C6.17 19.6701 6.51 19.5801 6.82 19.4001L7.47 19.0301C7.7 19.1801 7.94 19.3201 8.18 19.4401V20.1901C8.18 21.2901 9.08 22.1901 10.18 22.1901H13.82C14.92 22.1901 15.82 21.2901 15.82 20.1901V19.4401C16.06 19.3101 16.3 19.1801 16.53 19.0301L17.18 19.4001C17.49 19.5801 17.84 19.6701 18.18 19.6701C18.87 19.6701 19.54 19.3101 19.91 18.6701L21.73 15.5201C22.28 14.5601 21.96 13.3401 21 12.7901ZM13.82 20.1901H10.18V18.1001C9.21 17.8101 8.34 17.3001 7.63 16.6201L5.82 17.6701L4 14.5201L5.81 13.4701C5.7 13.0001 5.63 12.5101 5.63 12.0001C5.63 11.4901 5.7 11.0001 5.81 10.5301L4 9.48006L5.82 6.33006L7.63 7.38006C8.34 6.70006 9.21 6.19006 10.18 5.90006V3.81006H13.82V5.90006C14.79 6.19006 15.66 6.70006 16.37 7.38006L18.18 6.33006L20 9.48006L18.19 10.5301C18.3 11.0001 18.37 11.4901 18.37 12.0001C18.37 12.5101 18.3 13.0001 18.19 13.4701L20 14.5201L18.18 17.6701L16.37 16.6201C15.66 17.3001 14.79 17.8101 13.82 18.1001V20.1901Z" fill="black" fill-opacity="0.75"/>
<path d="M12 8C9.79 8 8 9.79 8 12C8 14.21 9.79 16 12 16C14.21 16 16 14.21 16 12C16 9.79 14.21 8 12 8ZM12 14C10.9 14 10 13.1 10 12C10 10.9 10.9 10 12 10C13.1 10 14 10.9 14 12C14 13.1 13.1 14 12 14Z" fill="black" fill-opacity="0.75"/>
</svg>
