<svg width="100" height="100" viewBox="0 0 100 100" fill="none" xmlns="http://www.w3.org/2000/svg">
<path d="M27.2001 47.84V13.06C17.6001 13.06 9.81006 20.84 9.81006 30.45C9.81006 40.05 17.5901 47.84 27.2001 47.84Z" fill="#F9907B"/>
<path d="M44.59 30.45C44.59 20.85 36.81 13.06 27.2 13.06V47.84C36.8 47.84 44.59 40.05 44.59 30.45Z" fill="#C75E5A"/>
<path d="M85.9 55.22C91.63 49.49 91.63 40.21 85.9 34.49C80.17 28.76 70.8899 28.76 65.1699 34.49L50.45 49.2L71.18 69.93L85.9 55.22Z" fill="#FAC1B5"/>
<path d="M50.45 49.2L35.73 63.91C30 69.64 30 78.92 35.73 84.64C41.46 90.37 50.74 90.37 56.46 84.64L71.17 69.93L50.45 49.2Z" fill="#F9907B"/>
</svg>
