<svg width="51" height="49" viewBox="0 0 51 49" fill="none" xmlns="http://www.w3.org/2000/svg">
<g clip-path="url(#clip0)">
<path d="M11.0337 22.4559V0C4.93932 0 0 5.02691 0 11.2293C0 17.429 4.93932 22.4559 11.0337 22.4559Z" fill="#FE8470"/>
<path d="M22.0646 11.2293C22.0646 5.02691 17.1253 0 11.0337 0V22.4559C17.1253 22.4559 22.0646 17.429 22.0646 11.2293Z" fill="#D26758"/>
<path d="M48.2761 27.224C51.9089 23.5268 51.9089 17.5336 48.2761 13.8336C44.6433 10.1364 38.7545 10.1364 35.119 13.8336L25.7841 23.3368L38.9412 36.7273L48.2761 27.224Z" fill="#FBC8BD"/>
<path d="M25.7841 23.337L16.4491 32.8374C12.8163 36.5347 12.8163 42.5279 16.4491 46.2279C20.0819 49.9251 25.9707 49.9251 29.6062 46.2279L38.9412 36.7274L25.7841 23.337Z" fill="#FE8470"/>
</g>
<defs>
<clipPath id="clip0">
<rect width="51" height="49" fill="white"/>
</clipPath>
</defs>
</svg>
