<svg height="512pt" viewBox="0 0 512.00002 512" width="512pt" xmlns="http://www.w3.org/2000/svg"><path d="m168.351562 142.917969c-38.453124-38.449219-101.015624-38.449219-139.46875.003906-18.625 18.625-28.882812 43.390625-28.882812 69.730469 0 26.34375 10.257812 51.109375 28.882812 69.734375 19.226563 19.226562 44.480469 28.839843 69.734376 28.839843 25.253906 0 50.507812-9.613281 69.734374-28.839843 38.449219-38.449219 38.449219-101.015625 0-139.46875zm0 0" fill="#ffd039"/><path d="m168.351562 247.304688c-19.226562 19.226562-44.480468 28.839843-69.734374 28.839843-25.253907 0-50.507813-9.613281-69.734376-28.839843-14.421874-14.421876-23.824218-32.527344-27.332031-52.191407-1.023437 5.730469-1.550781 11.59375-1.550781 17.539063 0 26.34375 10.257812 51.109375 28.882812 69.734375 19.226563 19.226562 44.480469 28.839843 69.734376 28.839843 25.253906 0 50.507812-9.613281 69.734374-28.839843 23.695313-23.695313 32.765626-56.546875 27.253907-87.273438-3.429688 19.128907-12.5 37.4375-27.253907 52.191407zm0 0" fill="#ffae47"/><path d="m354.765625 16.609375c-21.589844-10.203125-50.25-16.089844-80.703125-16.578125-30.441406-.480469-59.285156 4.484375-81.191406 13.992188-23.804688 10.335937-37.058594 25.085937-37.320313 41.53125-.261719 16.445312 12.515625 31.609374 35.976563 42.699218 21.589844 10.203125 50.25 16.089844 80.703125 16.574219 1.363281.023437 2.722656.035156 4.078125.035156 28.941406 0 56.1875-4.941406 77.109375-14.027343 23.808593-10.332032 37.0625-25.082032 37.324219-41.527344.261718-16.445313-12.515626-31.609375-35.976563-42.699219zm0 0" fill="#ff9522"/><path d="m353.417969 66.722656c-20.921875 9.082032-48.167969 14.023438-77.109375 14.023438-1.355469 0-2.714844-.011719-4.078125-.035156-30.453125-.484376-59.113281-6.371094-80.703125-16.574219-14.777344-6.984375-25.3125-15.589844-31.023438-25.109375-3.171875 5.222656-4.859375 10.769531-4.953125 16.527344-.261719 16.445312 12.515625 31.609374 35.976563 42.699218 21.589844 10.203125 50.25 16.089844 80.703125 16.578125 1.363281.019531 2.722656.03125 4.078125.03125 28.941406 0 56.1875-4.941406 77.109375-14.023437 23.808593-10.335938 37.0625-25.085938 37.324219-41.53125.097656-6.085938-1.59375-11.996094-4.949219-17.589844-5.890625 9.699219-16.898438 18.285156-32.375 25.003906zm0 0" fill="#dd7917"/><path d="m388.761719 388.761719 95.371093-95.246094c17.953126-17.929687 27.851563-41.78125 27.867188-67.15625s-9.851562-49.238281-27.78125-67.191406c-17.929688-17.957031-41.78125-27.855469-67.15625-27.871094-.023438 0-.042969 0-.066406 0-25.351563 0-49.1875 9.867187-67.128906 27.78125l-95.371094 95.246094c-.027344.027343-.054688.0625-.082032.089843zm0 0" fill="#e93234"/><path d="m254.414062 254.414062c.027344-.03125.050782-.0625.082032-.089843l-95.375 95.246093c-17.953125 17.933594-27.851563 41.78125-27.867188 67.15625-.019531 25.378907 9.847656 49.242188 27.78125 67.195313 17.929688 17.957031 41.78125 27.851563 67.15625 27.871094h.0625c25.351563 0 49.191406-9.867188 67.132813-27.78125l95.371093-95.246094c0-.003906 0-.003906.003907-.003906zm0 0" fill="#f9f1ef"/><path d="m512 226.359375c.015625-25.375-9.851562-49.238281-27.78125-67.191406-4.050781-4.054688-8.40625-7.695313-13.007812-10.910157 11.035156 15.8125 16.972656 34.585938 16.960937 54.273438-.019531 25.375-9.914063 49.226562-27.871094 67.15625l-95.367187 95.242188 23.828125 23.832031 95.371093-95.246094c17.953126-17.929687 27.851563-41.78125 27.867188-67.15625zm0 0" fill="#bf161c"/><path d="m388.761719 388.761719-23.832031-23.832031v.003906l-95.375 95.25c-17.941407 17.914062-41.777344 27.777344-67.128907 27.777344-.023437 0-.042969 0-.0625 0-19.644531-.011719-38.375-5.949219-54.152343-16.960938 3.191406 4.570312 6.800781 8.898438 10.820312 12.921875 17.933594 17.957031 41.78125 27.855469 67.160156 27.871094h.0625c25.351563 0 49.191406-9.863281 67.128906-27.78125l95.375-95.246094c0-.003906 0-.003906.003907-.003906zm0 0" fill="#ccc"/><path d="m168.351562 142.917969c-1.785156-1.785157-3.640624-3.460938-5.527343-5.078125l-139.046875 139.046875c1.625 1.886719 3.328125 3.722656 5.105468 5.5 1.789063 1.789062 3.640626 3.460937 5.527344 5.082031l139.023438-139.023438c-1.621094-1.882812-3.296875-3.738281-5.082032-5.527343zm0 0" fill="#ff9522"/><path d="m266.132812.046875-.890624 114.566406c2.316406.101563 4.644531.179688 6.988281.21875 1.363281.019531 2.71875.03125 4.074219.03125 1.320312 0 2.625-.023437 3.9375-.042969l.890624-114.566406c-2.34375-.101562-4.699218-.1835935-7.070312-.222656-2.65625-.0390625-5.300781-.02734375-7.929688.015625zm0 0" fill="#dd7917"/></svg>