<svg width="80" height="80" viewBox="0 0 80 80" fill="none" xmlns="http://www.w3.org/2000/svg">
<path d="M21.76 38.272V10.448C14.08 10.448 7.848 16.672 7.848 24.36C7.848 32.04 14.072 38.272 21.76 38.272Z" fill="#FE8470"/>
<path d="M35.672 24.36C35.672 16.68 29.448 10.448 21.76 10.448V38.272C29.44 38.272 35.672 32.04 35.672 24.36Z" fill="#BC453D"/>
<path d="M68.72 44.1761C73.304 39.5921 73.304 32.1681 68.72 27.5921C64.136 23.0081 56.712 23.0081 52.136 27.5921L40.36 39.3601L56.944 55.944L68.72 44.1761Z" fill="#FFAC98"/>
<path d="M40.36 39.3601L28.584 51.1281C24 55.7121 24 63.1361 28.584 67.7121C33.168 72.2961 40.592 72.2961 45.168 67.7121L56.936 55.9441L40.36 39.3601Z" fill="#E46759"/>
</svg>
