<svg id="Capa_1" enable-background="new 0 0 512 512" height="512" viewBox="0 0 512 512" width="512" xmlns="http://www.w3.org/2000/svg"><g><g><path d="m207.766 405.958-.006.026c.031-.14.031-.143.006-.026z"/><path d="m207.44 407.264-.001.006c-.004.015-.004.016.001-.006z"/><path d="m499.43 316-141.86 135.73-120.04 10.01-55 4.59 6-80.66 49-9.24 78.77-14.85 2.91-2.58 63.51-56.35c26.3-24.14 67.61-29.61 104.65 2.8z" fill="#ffbfab"/><path d="m499.43 316-141.86 135.73-120.04 10.01v-85.31l78.77-14.85 2.91-2.58 63.51-56.35c26.3-24.14 67.61-29.61 104.65 2.8z" fill="#f89580"/><path d="m402.57 390.794v.94c0 16.57-13.43 30-30 30-4.32 0-23.21 0-26.74-.03-.68 0-1.35 0-2.01-.01-28.74-.14-32.78-1.29-55.67-8.26-11.09-3.38-26.46-8.07-50.62-14.48-7.81-2.07-16.53-4.32-26.32-6.77-5.1 20.42-5.09 20.3-7.28 29.1 13 3.25 24.08 6.15 33.6 8.73 19.32 5.24 32.25 9.19 41.88 12.12 28.85 8.79 32.82 9.6 78.16 9.6-41.12 30.22-62.89 65.32-120.04 59.66-24.3-2.4-55-12.18-96.3-32.83-35.29-17.64-74.2-26.83-113.66-26.83h-15v-112.21c123.56-66.38 165.4-35.74 224.96-7.04 22.78 10.97 48.15 21.66 81.68 26.52 11.71 1.69 24.42 2.69 38.36 2.73h15.94c16.05 0 29.06 13.01 29.06 29.06z" fill="#ffe1ba"/><g fill="#ffbfab"><path d="m279.41 442.134c28.85 8.79 32.82 9.6 78.16 9.6-41.12 30.22-62.89 65.32-120.04 59.66v-81.38c19.32 5.24 32.25 9.19 41.88 12.12z"/><path d="m402.57 390.794v.94c0 16.57-13.43 30-30 30-4.32 0-23.21 0-26.74-.03-.68 0-1.35 0-2.01-.01-28.74-.14-32.78-1.29-55.67-8.26-11.09-3.38-26.46-8.07-50.62-14.48v-66.47c22.78 10.97 48.15 21.66 81.68 26.52 11.71 1.69 24.42 2.69 38.36 2.73h15.94c16.05 0 29.06 13.01 29.06 29.06z"/></g></g><g><path d="m297.53 60v15h-30v-15c0-16.54-13.46-30-30-30s-30 13.46-30 30v15h-30v-15c0-33.08 26.92-60 60-60s60 26.92 60 60z" fill="#6f3c83"/><path d="m297.53 60v15h-30v-15c0-16.54-13.46-30-30-30v-30c33.08 0 60 26.92 60 60z" fill="#4a2f61"/><path d="m102.53 120h270v150h-270z" fill="#6f3c83"/><path d="m237.53 120h135v150h-135z" fill="#4a2f61"/><path d="m222.53 165h30v45h-30z" fill="#ffde46"/><path d="m237.53 165h15v45h-15z" fill="#ffb64c"/><path d="m102.53 60v60c0 46.67 87.33 60 135 60 47.46 0 135-13.26 135-60v-60z" fill="#c86e59"/><path d="m372.53 60v60c0 46.74-87.54 60-135 60v-120z" fill="#a34f5c"/></g></g></svg>