<?xml version="1.0" encoding="iso-8859-1"?>
<!-- Generator: Adobe Illustrator 19.0.0, SVG Export Plug-In . SVG Version: 6.00 Build 0)  -->
<svg version="1.1" id="Capa_1" xmlns="http://www.w3.org/2000/svg" xmlns:xlink="http://www.w3.org/1999/xlink" x="0px" y="0px"
	 viewBox="0 0 504.242 504.242" style="enable-background:new 0 0 504.242 504.242;" xml:space="preserve">
<circle style="fill:#E1E6E9;" cx="290.133" cy="210.23" r="210.23"/>
<path style="fill:#2EA2DB;" d="M439.855,211.782c0-17.067-12.412-30.255-27.927-31.806c10.085-5.43,16.291-16.291,16.291-28.703
	c0-17.842-13.964-32.582-31.03-32.582c-0.776,0-0.776,0-1.552,0c0.776-2.327,1.552-4.655,1.552-7.758
	c0-17.842-13.964-32.582-31.03-32.582c-5.43,0-10.085,1.552-14.739,4.655c-1.552-17.067-14.739-30.255-31.03-30.255
	c-17.067,0-31.03,14.739-31.03,32.582s0,249.018,0,249.018c0,17.842,13.964,32.582,31.03,32.582c16.291,0,30.255-13.964,31.03-31.03
	c5.43,4.655,11.636,7.758,18.618,7.758c17.067,0,31.03-14.739,31.03-32.582c0-5.43-1.552-10.085-3.879-14.739
	c1.552,0,2.327,0.776,3.879,0.776c17.067,0,31.03-14.739,31.03-32.582c0-9.309-3.879-17.842-10.085-24.048
	C432.873,235.055,439.855,224.97,439.855,211.782z"/>
<g>
	<path style="fill:#193651;" d="M320.388,375.467c-21.721,0-38.788-17.842-38.788-40.339V86.109
		c0-22.497,17.842-40.339,38.788-40.339c16.291,0,31.03,10.861,36.461,27.152c3.103-0.776,6.206-1.552,9.309-1.552
		c21.721,0,38.788,17.842,38.788,40.339c0,0,0,0,0,0.776c17.842,3.879,31.03,20.17,31.03,39.564c0,9.309-3.103,18.618-9.309,25.6
		c12.412,6.982,20.17,20.17,20.17,34.909c0,11.636-4.655,22.497-13.188,30.255c3.879,6.206,6.206,13.964,6.206,22.497
		c0,20.17-13.964,36.461-31.806,39.564c0.776,2.327,0.776,4.655,0.776,6.982c0,22.497-17.842,40.339-38.788,40.339
		c-4.655,0-9.309-0.776-13.964-3.103C350.642,364.606,336.679,375.467,320.388,375.467z M320.388,60.509
		c-13.188,0-23.273,11.636-23.273,24.824v249.018c0,13.964,10.861,24.824,23.273,24.824s22.497-10.085,23.273-23.273
		c0-3.103,2.327-5.43,4.655-6.982s5.43-0.776,7.758,0.776c10.085,8.533,22.497,6.982,30.255-1.552
		c4.655-4.655,6.982-10.861,6.982-17.842c0-3.879-0.776-6.982-3.103-11.636c-1.552-2.327-0.776-5.43,0.776-7.758
		c1.552-2.327,4.655-3.879,6.982-3.103c0.776,0,1.552,0,3.103,0.776l0,0c13.188,0,23.273-10.861,23.273-24.824
		c0-6.982-2.327-13.188-7.758-17.842c-0.776-1.551-1.552-3.879-1.552-6.206c0-2.327,1.552-4.655,3.879-5.43
		c7.758-4.655,13.188-13.188,13.188-21.721c0-12.412-9.309-23.273-20.945-24.824c-3.103,0-6.206-3.103-6.982-6.206
		s0.776-6.982,3.879-8.533c7.758-4.655,12.412-12.412,12.412-21.721c0-13.964-10.085-24.824-22.497-24.824c-0.776,0-1.552,0-1.552,0
		c-2.327,0-4.655-0.776-6.206-3.103c-1.552-1.552-2.327-4.655-1.552-6.982l0.776-2.327c0.776-1.552,0.776-3.103,0.776-3.879
		c0-13.964-10.861-24.824-23.273-24.824c-3.103,0-6.982,0.776-10.861,3.103c-2.327,1.552-5.43,1.552-7.758,0
		s-3.879-3.879-3.879-6.206C342.109,70.594,332.024,60.509,320.388,60.509z"/>
	<path style="fill:#193651;" d="M352.194,169.891L352.194,169.891c-4.655,0-7.758-3.103-7.758-7.758
		c0-4.655,3.103-7.758,7.758-7.758l0,0l0,0c8.533,0,17.067-3.879,24.048-10.861c6.982-6.982,10.861-16.291,10.861-24.824
		c0-4.655,3.103-7.758,7.758-7.758s7.758,3.103,7.758,7.758c0,12.412-5.43,25.6-15.515,35.685
		C377.794,164.461,365.382,169.891,352.194,169.891z"/>
	<path style="fill:#193651;" d="M351.418,344.436c-4.655,0-7.758-3.103-7.758-7.758c0-11.636-11.636-22.497-23.273-22.497
		c-4.655,0-7.758-3.103-7.758-7.758s3.103-7.758,7.758-7.758c20.17,0,38.788,17.842,38.788,38.012
		C359.176,341.333,355.297,344.436,351.418,344.436z"/>
	<path style="fill:#193651;" d="M373.915,288.582L373.915,288.582c-4.655,0-7.758-3.103-7.758-7.758
		c0-26.376,30.255-47.321,56.63-47.321l0,0c4.655,0,7.758,3.103,7.758,7.758c0,4.655-3.103,7.758-7.758,7.758l0,0
		c-18.618,0-41.115,14.739-41.115,31.806C381.673,284.703,378.57,288.582,373.915,288.582z"/>
</g>
<path style="fill:#F16051;" d="M139.636,208.679c0,17.067,12.412,30.255,27.927,31.806c-10.085,5.43-16.291,16.291-16.291,28.703
	c0,17.842,13.964,32.582,31.03,32.582c0.776,0,0.776,0,1.552,0c-0.776,2.327-1.552,4.655-1.552,7.758
	c0,17.842,13.964,32.582,31.03,32.582c5.43,0,10.085-1.552,14.739-4.655c1.552,17.067,14.739,30.255,31.03,30.255
	c17.067,0,31.03-14.739,31.03-32.582s0-249.018,0-249.018c0-17.842-13.964-32.582-31.03-32.582c-16.291,0-30.255,13.964-31.03,31.03
	c-5.43-4.655-11.636-7.758-18.618-7.758c-17.067,0-31.03,14.739-31.03,32.582c0,5.43,1.552,10.085,3.879,14.739
	c-1.552,0-2.327-0.776-3.879-0.776c-17.067,0-31.03,14.739-31.03,32.582c0,9.309,3.879,17.842,10.085,24.048
	C146.618,185.406,139.636,196.267,139.636,208.679z"/>
<g>
	<path style="fill:#193651;" d="M259.103,375.467c-16.291,0-31.03-10.861-36.461-27.151c-3.103,0.776-6.206,1.552-9.309,1.552
		c-21.721,0-38.788-17.842-38.788-40.339c0,0,0,0,0-0.776c-17.842-3.879-31.03-20.17-31.03-39.564c0-9.309,3.103-18.618,9.309-25.6
		c-12.412-6.982-20.17-20.17-20.17-34.909c0-11.636,4.655-22.497,13.188-30.255c-3.879-6.206-6.206-13.964-6.206-22.497
		c0-20.17,13.964-36.461,31.806-39.564c-0.776-2.327-0.776-4.655-0.776-6.982c0-22.497,17.842-40.339,38.788-40.339
		c4.655,0,9.309,0.776,13.964,3.103c5.43-15.515,19.394-26.376,36.461-26.376c21.721,0,38.788,17.842,38.788,40.339v249.018
		C297.891,357.624,280.824,375.467,259.103,375.467z M228.073,329.697c1.552,0,2.327,0,3.879,0.776
		c2.327,1.552,3.879,3.879,3.879,6.206c0.776,13.188,10.861,22.497,23.273,22.497l0,0c13.188,0,23.273-11.636,23.273-24.824V86.109
		c0-13.964-10.861-24.824-23.273-24.824c-12.412,0-22.497,10.085-23.273,23.273c0,3.103-2.327,5.43-4.655,6.982
		c-2.327,1.552-5.43,0.776-7.758-0.776c-4.655-3.879-9.309-5.43-13.964-5.43c-13.188,0-23.273,11.636-23.273,24.824
		c0,3.879,0.776,6.982,3.103,11.636c1.552,2.327,0.776,5.43-0.776,7.758c-1.552,2.327-4.655,3.879-6.982,3.103
		c-0.776,0-1.552,0-3.103-0.776c-6.206,0-11.636,2.327-16.291,6.982c-4.655,4.655-6.982,10.861-6.982,17.842
		c0,6.982,2.327,13.188,7.758,17.842c1.552,1.552,2.327,3.879,2.327,6.206c0,2.327-1.552,4.655-3.879,5.43
		c-7.758,4.655-13.188,13.188-13.188,21.721c0,12.412,9.309,23.273,20.945,24.824c3.103,0,6.206,3.103,6.982,6.206
		c0.776,3.103-0.776,6.982-3.879,8.533c-8.533,4.655-13.188,12.412-13.188,21.721c0,13.964,10.085,24.824,22.497,24.824
		c0.776,0,1.552,0,1.552,0c2.327,0,4.655,0.776,6.206,3.103c1.552,1.552,2.327,4.655,1.552,6.982l-0.776,2.327
		c0,0.776,0,2.327,0,3.103c0,13.964,10.861,24.824,23.273,24.824c3.103,0,6.982-0.776,10.861-3.103
		C225.745,330.473,227.297,329.697,228.073,329.697z"/>
	<path style="fill:#193651;" d="M259.103,121.794L259.103,121.794c-20.17,0-38.012-17.842-38.012-38.012
		c0-4.655,3.103-7.758,7.758-7.758c4.655,0,7.758,3.103,7.758,7.758c0,11.636,11.636,22.497,23.273,22.497
		c4.655,0,7.758,3.103,7.758,7.758C266.861,117.915,262.982,121.794,259.103,121.794z"/>
	<path style="fill:#193651;" d="M156.703,187.733c-4.655,0-7.758-3.103-7.758-7.758c0-4.655,3.103-7.758,7.758-7.758l0,0
		c9.309,0,20.17-3.879,27.927-10.085c4.655-3.879,13.188-11.636,13.188-21.721c0-4.655,3.103-7.758,7.758-7.758l0,0
		c4.655,0,7.758,3.103,7.758,7.758c0,12.412-6.982,24.824-19.394,34.133C183.079,183.079,169.115,187.733,156.703,187.733z"/>
	<path style="fill:#193651;" d="M290.133,268.412c-4.655,0-7.758-3.103-7.758-7.758c0-25.6,20.945-46.545,46.545-46.545
		c4.655,0,7.758,3.103,7.758,7.758c0,4.655-3.103,7.758-7.758,7.758c-17.067,0-31.03,13.964-31.03,31.03
		C297.891,265.309,294.788,268.412,290.133,268.412z"/>
	<path style="fill:#193651;" d="M249.794,197.818c-4.655,0-7.758-3.103-7.758-7.758c0-25.6,20.945-46.545,46.545-46.545
		c4.655,0,7.758,3.103,7.758,7.758c0,4.655-3.103,7.758-7.758,7.758c-17.067,0-31.03,13.964-31.03,31.03
		C257.552,194.715,254.448,197.818,249.794,197.818z"/>
</g>
<path style="fill:#FFFFFF;" d="M259.879,273.067c0-62.836-51.976-112.485-115.588-109.382
	c-53.527,2.327-98.521,44.994-103.952,99.297c-3.879,41.891,15.515,79.127,46.545,100.848c8.533,6.206,13.964,16.291,13.964,26.376
	v74.473h98.521v-74.473c0-10.085,4.655-20.17,13.188-26.376C240.485,343.661,259.879,310.303,259.879,273.067z"/>
<path style="fill:#193651;" d="M198.594,471.661h-97.745c-4.655,0-7.758-3.103-7.758-7.758V389.43
	c0-8.533-3.879-15.515-10.861-20.17c-34.909-24.048-53.527-65.939-49.648-107.83c5.43-57.406,53.527-103.176,110.933-106.279
	c67.491-3.103,124.121,51.2,124.121,117.915c0,38.788-18.618,74.473-50.424,96.97c-6.206,4.655-10.085,11.636-10.085,20.17v74.473
	C206.352,467.782,203.248,471.661,198.594,471.661z M108.606,456.145h83.006V389.43c0-13.188,6.206-25.6,17.067-32.582
	c26.376-19.394,43.442-50.424,43.442-83.782c0-58.182-48.873-104.727-107.055-101.624c-50.424,2.327-91.539,41.891-96.97,91.539
	c-3.879,37.236,12.412,72.145,43.442,93.867c10.861,7.758,17.067,20.17,17.067,33.358
	C108.606,390.206,108.606,456.145,108.606,456.145z"/>
<path style="fill:#FDBF5E;" d="M149.721,190.061c-1.552,0-3.103,0-3.879,0c-39.564,1.552-74.473,34.133-78.352,74.473
	c-3.103,30.255,10.085,58.182,34.909,76.024c16.291,10.861,25.6,29.479,25.6,48.873v17.067h43.442V389.43
	c0-19.394,9.309-38.012,24.824-48.873c22.497-15.515,35.685-41.115,35.685-67.491C231.952,227.297,194.715,190.061,149.721,190.061z
	"/>
<rect x="467.782" y="202.473" style="fill:#193651;" width="15.515" height="16.291"/>
<rect x="443.096" y="109.407" transform="matrix(-0.8661 0.4999 -0.4999 -0.8661 900.0969 -6.0143)" style="fill:#193651;" width="15.515" height="16.291"/>
<rect x="374.89" y="41.35" transform="matrix(-0.5003 0.8658 -0.8658 -0.5003 616.9496 -257.0528)" style="fill:#193651;" width="15.514" height="16.29"/>
<rect x="281.6" y="388.655" style="fill:#193651;" width="16.291" height="15.515"/>
<rect x="281.6" y="16.291" style="fill:#193651;" width="16.291" height="15.515"/>
<rect x="374.724" y="363.793" transform="matrix(-0.8661 0.4999 -0.4999 -0.8661 900.2031 501.9528)" style="fill:#193651;" width="16.291" height="15.515"/>
<rect x="188.354" y="41.17" transform="matrix(-0.8661 0.4999 -0.4999 -0.8661 391.1436 -6.9256)" style="fill:#193651;" width="16.291" height="15.515"/>
<rect x="442.745" y="295.401" transform="matrix(-0.5001 0.866 -0.866 -0.5001 938.9125 64.3275)" style="fill:#193651;" width="16.29" height="15.514"/>
<rect x="120.184" y="109.602" transform="matrix(-0.4999 0.8661 -0.8661 -0.4999 294.1243 64.8829)" style="fill:#193651;" width="16.291" height="15.515"/>
<rect x="3.879" y="259.103" style="fill:#193651;" width="15.515" height="16.291"/>
<rect x="22.337" y="327.35" transform="matrix(-0.866 0.5 -0.5 -0.866 223.9089 610.9938)" style="fill:#193651;" width="15.515" height="16.291"/>
<rect x="72.17" y="139.83" transform="matrix(-0.8661 0.4999 -0.4999 -0.8661 223.6549 235.263)" style="fill:#193651;" width="16.291" height="15.515"/>
<rect x="21.792" y="190.37" transform="matrix(-0.4999 0.8661 -0.8661 -0.4999 216.4991 271.2412)" style="fill:#193651;" width="16.291" height="15.515"/>
<path style="fill:#FFFFFF;" d="M124.121,463.903v6.982c0,13.964,11.636,25.6,25.6,25.6c13.964,0,25.6-11.636,25.6-25.6v-6.982
	H124.121z"/>
<path style="fill:#193651;" d="M175.321,456.145h-51.2c-4.655,0-7.758,3.103-7.758,7.758v6.982
	c0,18.618,14.739,33.358,33.358,33.358s33.358-14.739,33.358-33.358v-6.982C183.079,459.249,179.2,456.145,175.321,456.145z
	 M149.721,488.727c-9.309,0-17.067-7.758-17.842-17.067h35.685C166.788,480.97,159.03,488.727,149.721,488.727z"/>
<path style="fill:#FFFFFF;" d="M196.267,271.515C196.267,271.515,196.267,272.291,196.267,271.515
	c10.861,11.636,1.552,30.255-13.188,30.255h-16.291v-16.291C166.012,269.964,184.63,260.655,196.267,271.515L196.267,271.515z"/>
<path style="fill:#193651;" d="M182.303,309.527h-16.291c-4.655,0-7.758-3.103-7.758-7.758v-16.291
	c0-14.739,11.636-26.376,26.376-26.376c6.206,0,12.412,2.327,17.067,6.982l0.776,0.776c6.982,6.982,8.533,17.067,4.655,27.152
	C202.473,303.321,193.164,309.527,182.303,309.527z M173.77,294.012h8.533c5.43,0,8.533-3.879,10.085-6.982
	c0.776-1.552,2.327-6.206-1.552-10.085c-2.327-2.327-3.879-3.103-6.206-3.103c-5.43,0-10.861,3.879-10.861,10.861V294.012z"/>
<path style="fill:#FFFFFF;" d="M103.176,271.515C103.176,271.515,103.176,272.291,103.176,271.515
	c-10.861,11.636-1.552,30.255,13.188,30.255h16.291v-16.291C132.655,269.964,114.036,260.655,103.176,271.515L103.176,271.515z"/>
<g>
	<path style="fill:#193651;" d="M132.655,309.527h-16.291c-10.085,0-20.17-6.206-24.048-16.291
		c-3.879-9.309-2.327-19.394,4.655-26.376l0.776-0.776c4.655-4.655,10.861-6.982,17.067-6.982c14.739,0,26.376,11.636,26.376,26.376
		v16.291C140.412,305.648,137.309,309.527,132.655,309.527z M114.812,274.618c-2.327,0-3.879,0.776-6.206,2.327
		c-3.879,3.879-2.327,8.533-2.327,10.085c1.552,3.103,4.655,6.982,10.085,6.982h8.533v-8.533
		C124.897,278.497,119.467,274.618,114.812,274.618z"/>
	<path style="fill:#193651;" d="M166.012,414.255c-4.655,0-7.758-3.103-7.758-7.758v-96.97h-17.842v96.97
		c0,4.655-3.103,7.758-7.758,7.758c-4.655,0-7.758-3.103-7.758-7.758V301.77c0-4.655,3.103-7.758,7.758-7.758h33.358
		c4.655,0,7.758,3.103,7.758,7.758v104.727C173.77,410.376,170.667,414.255,166.012,414.255z"/>
	<path style="fill:#193651;" d="M213.333,414.255h-128c-4.655,0-7.758-3.103-7.758-7.758c0-4.655,3.103-7.758,7.758-7.758h128
		c4.655,0,7.758,3.103,7.758,7.758C221.091,410.376,217.988,414.255,213.333,414.255z"/>
	<path style="fill:#193651;" d="M213.333,442.958h-128c-4.655,0-7.758-3.103-7.758-7.758c0-4.655,3.103-7.758,7.758-7.758h128
		c4.655,0,7.758,3.103,7.758,7.758C221.091,439.855,217.988,442.958,213.333,442.958z"/>
</g>
<g>
</g>
<g>
</g>
<g>
</g>
<g>
</g>
<g>
</g>
<g>
</g>
<g>
</g>
<g>
</g>
<g>
</g>
<g>
</g>
<g>
</g>
<g>
</g>
<g>
</g>
<g>
</g>
<g>
</g>
</svg>
