<svg width="24" height="24" viewBox="0 0 24 24" fill="none" xmlns="http://www.w3.org/2000/svg">
<path d="M22 24C21.74 24 21.48 23.9 21.29 23.71L16.59 19H4.54C2.59 19 1 17.41 1 15.46V5.54C1 3.59 2.59 2 4.54 2H19.47C21.41 2 23 3.59 23 5.54V23C23 23.4 22.76 23.77 22.38 23.92C22.26 23.98 22.13 24 22 24ZM4.54 4C3.69 4 3 4.69 3 5.54V15.47C3 16.31 3.69 17 4.54 17H17C17.27 17 17.52 17.11 17.71 17.29L21 20.59V5.54C21 4.69 20.31 4 19.46 4H4.54Z" fill="black" fill-opacity="0.4"/>
<path d="M17 9H7C6.45 9 6 8.55 6 8C6 7.45 6.45 7 7 7H17C17.55 7 18 7.45 18 8C18 8.55 17.55 9 17 9Z" fill="black" fill-opacity="0.4"/>
<path d="M17 14H7C6.45 14 6 13.55 6 13C6 12.45 6.45 12 7 12H17C17.55 12 18 12.45 18 13C18 13.55 17.55 14 17 14Z" fill="black" fill-opacity="0.4"/>
</svg>
