<svg width="213" height="32" viewBox="0 0 213 32" fill="none" xmlns="http://www.w3.org/2000/svg">
<path d="M0.0376422 31H6.98366V18.0881C6.98366 15.929 8.24787 14.5511 10.0661 14.5511C11.87 14.5511 13.0632 15.8153 13.0632 17.8324V31H19.7393V17.9744C19.7393 15.8864 20.8899 14.5511 22.8075 14.5511C24.5689 14.5511 25.8189 15.7301 25.8189 17.9034V31H32.7649V16.3125C32.7649 11.696 29.924 8.89773 25.8047 8.89773C22.5803 8.89773 20.0376 10.5881 19.228 13.1875H19.0007C18.4183 10.5739 16.0746 8.89773 13.049 8.89773C10.0661 8.89773 7.79332 10.5312 6.88423 13.1875H6.64276V9.18182H0.0376422V31ZM37.0689 31H44.0149V9.18182H37.0689V31ZM40.549 6.6392C42.5234 6.6392 44.1143 5.14773 44.1143 3.31534C44.1143 1.48295 42.5234 0.00568008 40.549 0.00568008C38.5888 0.00568008 36.9837 1.48295 36.9837 3.31534C36.9837 5.14773 38.5888 6.6392 40.549 6.6392ZM55.3821 18.5568C55.3963 16.071 56.8452 14.5938 59.0469 14.5938C61.2486 14.5938 62.5554 16.0426 62.5412 18.4574V31H69.4872V17.0938C69.5014 12.179 66.5043 8.89773 61.9162 8.89773C58.6918 8.89773 56.2486 10.5312 55.2827 13.1875H55.0412V9.18182H48.4361V31H55.3821V18.5568ZM81.7564 31.3125C85.0518 31.3125 87.0121 29.4801 87.8928 27.4631H88.1058V31H94.9808V1.90909H88.0348V12.9176H87.8928C87.0689 10.9148 85.1655 8.89773 81.728 8.89773C77.1683 8.89773 73.0348 12.4062 73.0348 20.1051C73.0348 27.5341 76.9411 31.3125 81.7564 31.3125ZM84.1712 25.9006C81.6001 25.9006 80.1655 23.6136 80.1655 20.0909C80.1655 16.5824 81.5859 14.3239 84.1712 14.3239C86.7138 14.3239 88.1911 16.5256 88.1911 20.0909C88.1911 23.6278 86.6996 25.9006 84.1712 25.9006ZM99.3736 31H118.507V25.2898H106.405V1.90909H99.3736V31ZM128.791 31L130.709 24.892H140.751L142.669 31H150.226L140.411 1.90909H131.05L121.234 31H128.791ZM132.385 19.5511L135.609 9.23864H135.837L139.075 19.5511H132.385ZM153.358 1.90909V31H160.205V13.0312H160.446L167.435 30.8153H171.81L178.798 13.1307H179.04V31H185.886V1.90909H177.179L169.793 19.9205H169.452L162.065 1.90909H153.358ZM190.272 31H197.303V21.9659H202.076C208.738 21.9659 212.9 18.017 212.9 11.9801C212.9 6 208.823 1.90909 202.289 1.90909H190.272V31ZM197.303 16.4261V7.5767H200.769C203.923 7.5767 205.613 9.28125 205.613 11.9801C205.613 14.6648 203.923 16.4261 200.769 16.4261H197.303Z" fill="black" fill-opacity="0.75"/>
</svg>
