<svg height="512pt" viewBox="0 0 512 512" width="512pt" xmlns="http://www.w3.org/2000/svg"><path d="m512 256c0 68.378906-26.628906 132.671875-74.980469 181.019531-48.347656 48.351563-112.640625 74.980469-181.019531 74.980469s-132.671875-26.628906-181.019531-74.980469c-48.351563-48.347656-74.980469-112.640625-74.980469-181.019531s26.628906-132.671875 74.980469-181.019531c48.347656-48.351563 112.640625-74.980469 181.019531-74.980469s132.671875 26.628906 181.019531 74.980469c48.351563 48.347656 74.980469 112.640625 74.980469 181.019531zm0 0" fill="#ffe171"/><path d="m512 256c0 68.378906-26.628906 132.671875-74.980469 181.019531-48.347656 48.351563-112.640625 74.980469-181.019531 74.980469v-512c68.378906 0 132.671875 26.628906 181.019531 74.980469 48.351563 48.347656 74.980469 112.640625 74.980469 181.019531zm0 0" fill="#ffd300"/><path d="m400.898438 314.25c-10.910157 29.21875-30.1875 54.21875-55.769532 72.289062-26.160156 18.5-56.988281 28.269532-89.128906 28.269532s-62.96875-9.769532-89.128906-28.269532c-25.582032-18.070312-44.859375-43.070312-55.769532-72.289062l28.097657-10.5c18.101562 48.488281 65.039062 81.058594 116.800781 81.058594s98.699219-32.570313 116.800781-81.058594zm0 0" fill="#b26d3c"/><path d="m154.984375 154.332031c-24.132813 0-43.765625 19.632813-43.765625 43.765625 0 24.132813 19.632812 43.761719 43.765625 43.761719s43.761719-19.632813 43.761719-43.761719c0-24.132812-19.632813-43.765625-43.761719-43.765625zm0 0" fill="#b26d3c"/><g fill="#7a3d06"><path d="m357.015625 154.332031c-24.132813 0-43.761719 19.632813-43.761719 43.765625 0 24.132813 19.632813 43.761719 43.761719 43.761719 24.132813 0 43.765625-19.632813 43.765625-43.761719 0-24.132812-19.632812-43.765625-43.765625-43.765625zm0 0"/><path d="m400.898438 314.25c-10.910157 29.21875-30.1875 54.21875-55.769532 72.289062-26.160156 18.5-56.988281 28.269532-89.128906 28.269532v-30c51.761719 0 98.699219-32.570313 116.800781-81.058594zm0 0"/></g></svg>