<svg width="100" height="100" viewBox="0 0 100 100" fill="none" xmlns="http://www.w3.org/2000/svg">
<path d="M26.72 88.93C39.4446 88.93 49.76 78.6146 49.76 65.89C49.76 53.1654 39.4446 42.85 26.72 42.85C13.9954 42.85 3.67999 53.1654 3.67999 65.89C3.67999 78.6146 13.9954 88.93 26.72 88.93Z" fill="#FFD645"/>
<path d="M17.76 58.22C19.1738 58.22 20.32 57.0739 20.32 55.66C20.32 54.2462 19.1738 53.1 17.76 53.1C16.3461 53.1 15.2 54.2462 15.2 55.66C15.2 57.0739 16.3461 58.22 17.76 58.22Z" fill="#B5882B"/>
<path d="M35.68 58.22C37.0938 58.22 38.24 57.0739 38.24 55.66C38.24 54.2462 37.0938 53.1 35.68 53.1C34.2661 53.1 33.12 54.2462 33.12 55.66C33.12 57.0739 34.2661 58.22 35.68 58.22Z" fill="#B5882B"/>
<path d="M15.2 63.97C15.2 70.33 20.36 75.49 26.72 75.49C33.08 75.49 38.24 70.33 38.24 63.97H15.2Z" fill="#B5882B"/>
<path d="M71.36 61.08C84.0846 61.08 94.4 50.7646 94.4 38.04C94.4 25.3154 84.0846 15 71.36 15C58.6354 15 48.32 25.3154 48.32 38.04C48.32 50.7646 58.6354 61.08 71.36 61.08Z" fill="#FFD645"/>
<path d="M80.96 30.03C82.13 30.96 83.18 31.91 84.38 32.55C85.57 33.21 86.89 33.53 88.31 33.73H88.32C88.57 33.77 88.75 34 88.71 34.25C88.68 34.46 88.51 34.62 88.3 34.65C87.53 34.74 86.74 34.73 85.95 34.57C85.17 34.42 84.4 34.14 83.7 33.76C82.29 32.98 81.2 31.84 80.29 30.68C80.13 30.48 80.16 30.19 80.36 30.03C80.56 29.9 80.8 29.9 80.96 30.03Z" fill="#B5882B"/>
<path d="M62.41 30.68C61.5 31.84 60.41 32.98 59 33.76C58.3 34.15 57.53 34.43 56.75 34.57C55.97 34.72 55.17 34.73 54.4 34.65C54.15 34.62 53.96 34.39 53.99 34.14C54.01 33.93 54.18 33.76 54.39 33.73H54.4C55.82 33.53 57.14 33.21 58.33 32.55C59.53 31.91 60.58 30.95 61.75 30.03C61.95 29.87 62.24 29.9 62.4 30.1C62.54 30.28 62.54 30.52 62.41 30.68Z" fill="#B5882B"/>
<path d="M75.82 40.39C76.74 41.07 77.62 41.57 78.53 41.84C79.43 42.13 80.35 42.2 81.27 42.11C82.19 42.01 83.1 41.75 84 41.35C84.9 40.95 85.78 40.41 86.73 39.74L86.74 39.73C86.92 39.61 87.16 39.65 87.28 39.83C87.35 39.93 87.37 40.05 87.33 40.16C86.61 42.56 84.19 44.43 81.49 44.65C80.15 44.77 78.74 44.47 77.6 43.76C76.45 43.06 75.59 41.99 75.21 40.8C75.14 40.6 75.26 40.38 75.46 40.32C75.58 40.28 75.71 40.31 75.8 40.38L75.82 40.39Z" fill="#B5882B"/>
<path d="M67.5 40.8C67.12 41.98 66.25 43.06 65.11 43.76C63.97 44.47 62.56 44.77 61.22 44.65C58.52 44.44 56.1 42.56 55.38 40.16C55.32 39.96 55.44 39.74 55.64 39.68C55.76 39.65 55.88 39.67 55.97 39.73L55.98 39.74C56.93 40.4 57.8 40.95 58.71 41.35C59.61 41.75 60.52 42.01 61.44 42.11C62.36 42.21 63.28 42.13 64.18 41.84C65.09 41.56 65.97 41.06 66.89 40.39L66.9 40.38C67.07 40.25 67.31 40.29 67.44 40.46C67.52 40.56 67.54 40.69 67.5 40.8Z" fill="#B5882B"/>
<path d="M71.36 54.03C74.1877 54.03 76.48 53.4569 76.48 52.75C76.48 52.0431 74.1877 51.47 71.36 51.47C68.5323 51.47 66.24 52.0431 66.24 52.75C66.24 53.4569 68.5323 54.03 71.36 54.03Z" fill="#B5882B"/>
</svg>
