<svg id="Capa_1" enable-background="new 0 0 512 512" height="512" viewBox="0 0 512 512" width="512" xmlns="http://www.w3.org/2000/svg"><circle cx="256" cy="359.992" fill="#68ca44" r="108.906"/><path d="m206.982 360.989c-4.143 0-7.5-3.358-7.5-7.5v-15.023c0-4.142 3.357-7.5 7.5-7.5s7.5 3.358 7.5 7.5v15.023c0 4.142-3.357 7.5-7.5 7.5z" fill="#444"/><path d="m304.673 360.989c-4.143 0-7.5-3.358-7.5-7.5v-15.023c0-4.142 3.357-7.5 7.5-7.5s7.5 3.358 7.5 7.5v15.023c0 4.142-3.358 7.5-7.5 7.5z" fill="#444"/><path d="m304.673 399.819h-97.69c-4.143 0-7.5-3.358-7.5-7.5s3.357-7.5 7.5-7.5h97.69c4.143 0 7.5 3.358 7.5 7.5s-3.358 7.5-7.5 7.5z" fill="#444"/><circle cx="108.906" cy="152.008" fill="#fac600" r="108.906"/><circle cx="403.094" cy="152.008" fill="#fb2b3a" r="108.906"/><path d="m364.905 359.991c0 60.149-48.756 108.905-108.905 108.905-35.698 0-67.387-17.171-87.252-43.708 18.826 15.525 42.957 24.851 69.258 24.851 60.149 0 108.905-48.756 108.905-108.905 0-24.44-8.051-46.998-21.633-65.177 24.204 19.967 39.627 50.196 39.627 84.034z" fill="#4fc123"/><path d="m217.813 152.01c0 60.149-48.756 108.905-108.905 108.905-35.698 0-67.387-17.171-87.251-43.708 18.826 15.526 42.957 24.851 69.258 24.851 60.149 0 108.905-48.756 108.905-108.905 0-24.44-8.051-46.998-21.633-65.177 24.204 19.968 39.626 50.196 39.626 84.034z" fill="#e0ae10"/><path d="m511.997 152.01c0 60.149-48.756 108.905-108.905 108.905-35.698 0-67.387-17.171-87.252-43.708 18.826 15.526 42.958 24.851 69.259 24.851 60.149 0 108.905-48.756 108.905-108.905 0-24.44-8.051-46.998-21.633-65.177 24.203 19.968 39.626 50.196 39.626 84.034z" fill="#e41f2d"/><g fill="#444"><path d="m60.061 153.005c-4.143 0-7.5-3.358-7.5-7.5v-15.023c0-4.142 3.357-7.5 7.5-7.5s7.5 3.358 7.5 7.5v15.023c0 4.142-3.358 7.5-7.5 7.5z"/><path d="m157.751 153.005c-4.143 0-7.5-3.358-7.5-7.5v-15.023c0-4.142 3.357-7.5 7.5-7.5s7.5 3.358 7.5 7.5v15.023c0 4.142-3.357 7.5-7.5 7.5z"/><path d="m108.588 212.858c-18.21 0-35.262-8.851-45.765-23.802-2.381-3.39-1.563-8.067 1.827-10.448s8.069-1.562 10.448 1.826c7.813 11.125 20.568 17.605 34.153 17.418 13.419-.216 25.892-7.016 33.364-18.19 2.304-3.444 6.963-4.367 10.403-2.065 3.443 2.303 4.368 6.96 2.065 10.403-10.208 15.265-27.252 24.555-45.591 24.85-.3.006-.603.008-.904.008z"/><path d="m354.249 153.005c-4.143 0-7.5-3.358-7.5-7.5v-15.023c0-4.142 3.357-7.5 7.5-7.5s7.5 3.358 7.5 7.5v15.023c0 4.142-3.357 7.5-7.5 7.5z"/><path d="m451.939 153.005c-4.143 0-7.5-3.358-7.5-7.5v-15.023c0-4.142 3.357-7.5 7.5-7.5s7.5 3.358 7.5 7.5v15.023c0 4.142-3.357 7.5-7.5 7.5z"/><path d="m363.479 207.248c-1.434 0-2.882-.41-4.162-1.267-3.443-2.302-4.368-6.96-2.065-10.403 10.208-15.265 27.251-24.555 45.591-24.851 18.553-.301 35.996 8.597 46.671 23.795 2.381 3.39 1.563 8.067-1.827 10.448-3.389 2.381-8.067 1.562-10.448-1.827-7.813-11.125-20.539-17.633-34.154-17.418-13.419.216-25.891 7.017-33.363 18.19-1.449 2.164-3.824 3.333-6.243 3.333z"/></g></svg>