<svg height="512" viewBox="0 0 58 58" width="512" xmlns="http://www.w3.org/2000/svg"><g id="Page-1" fill="none" fill-rule="evenodd"><g id="036---Quoting-Chat" fill-rule="nonzero"><path id="Shape" d="m49.424 47.677c-.4993204.1257968-.8180328.614315-.732 1.122l1.288 8.011c.0812981.4360035-.1343012.8734642-.5295993 1.0745807-.395298.2011166-.8758379.117832-1.1804007-.2045807l-8.382-9.348c-.1896334-.2112542-.4601177-.3319542-.744-.332h-28.144c-2.91738139 0-5.71527443-1.1589252-7.77817459-3.2218254-2.06290017-2.0629002-3.22182541-4.8607932-3.22182541-7.7781746v-26c0-6.07513225 4.92486775-11 11-11h36c6.0751322 0 11 4.92486775 11 11v26c-.0630977 5.1077287-3.6020991 9.5137359-8.576 10.677z" fill="#e57e25"/><path id="Shape" d="m57.94 9.86c-12.86.11-46.23 3.63-52.97 36.34-3.10666751-2.0281369-4.97678423-5.4899224-4.97-9.2v-26c-.00159287-2.91786941 1.15682085-5.71668804 3.22006641-7.77993359 2.06324555-2.06324556 4.86206418-3.22165928 7.77993359-3.22006641h36c5.6349055-.00330349 10.3596958 4.25505415 10.94 9.86z" fill="#f29c1f"/><g fill="#f9eab0"><path id="Shape" d="m11 16h-3c-.28082878.0040287-.55964321.0481407-.828.131.40277773-2.9182248 2.8822613-5.1011744 5.828-5.131.5522847 0 1-.4477153 1-1 0-.55228475-.4477153-1-1-1-.08 0-8 .1-8 9v4c0 1.6568542 1.34314575 3 3 3h3c1.6568542 0 3-1.3431458 3-3v-3c0-1.6568542-1.3431458-3-3-3z"/><path id="Shape" d="m22 16h-3c-.2808288.0040287-.5596432.0481407-.828.131.4027777-2.9182248 2.8822613-5.1011744 5.828-5.131.5522847 0 1-.4477153 1-1 0-.55228475-.4477153-1-1-1-.08 0-8 .1-8 9v4c0 1.6568542 1.3431458 3 3 3h3c1.6568542 0 3-1.3431458 3-3v-3c0-1.6568542-1.3431458-3-3-3z"/><path id="Shape" d="m50 23h-3c-1.6568542 0-3 1.3431458-3 3v3c0 1.6568542 1.3431458 3 3 3h3c.2808288-.0040287.5596432-.0481407.828-.131-.4027777 2.9182248-2.8822613 5.1011744-5.828 5.131-.5522847 0-1 .4477153-1 1s.4477153 1 1 1c.08 0 8-.1 8-9v-4c0-1.6568542-1.3431458-3-3-3z"/><path id="Shape" d="m39 23h-3c-1.6568542 0-3 1.3431458-3 3v3c0 1.6568542 1.3431458 3 3 3h3c.2808288-.0040287.5596432-.0481407.828-.131-.4027777 2.9182248-2.8822613 5.1011744-5.828 5.131-.5522847 0-1 .4477153-1 1s.4477153 1 1 1c.08 0 8-.1 8-9v-4c0-1.6568542-1.3431458-3-3-3z"/></g></g></g></svg>