<svg width="60" height="60" viewBox="0 0 60 60" fill="none" xmlns="http://www.w3.org/2000/svg">
<path d="M47.4302 23.4661C45.0842 25.8121 45.2162 29.7481 45.2162 29.7481C45.2162 29.7481 49.1522 29.8801 51.4982 27.5341C53.8442 25.1881 53.7122 21.2521 53.7122 21.2521C53.7122 21.2521 49.7822 21.1201 47.4302 23.4661Z" fill="#FE8470"/>
<path d="M44.3763 50.6461C50.0229 50.6461 54.6003 46.0687 54.6003 40.4221C54.6003 34.7756 50.0229 30.1981 44.3763 30.1981C38.7298 30.1981 34.1523 34.7756 34.1523 40.4221C34.1523 46.0687 38.7298 50.6461 44.3763 50.6461Z" fill="#FE8470"/>
<path d="M9.43202 50.6461H29.544L31.56 25.5841H7.41602L9.43202 50.6461Z" fill="#E46759"/>
<path d="M6.28809 11.592L7.41609 25.584H31.5601L32.6881 11.592H6.28809Z" fill="#FFCEC2"/>
</svg>
