<svg width="37" height="39" viewBox="0 0 37 39" fill="none" xmlns="http://www.w3.org/2000/svg">
<g id="Group">
<path id="Vector" d="M36.0267 0.898026H0V39.0053H36.0267V0.898026Z" fill="#FBC8BD"/>
<g id="Group_2">
<path id="Vector_2" d="M29.438 10.1932H5.9765C5.54845 10.1932 5.19626 9.69239 5.19626 9.07845C5.19626 8.46451 5.54303 7.96367 5.9765 7.96367H29.438C29.866 7.96367 30.2182 8.46451 30.2182 9.07845C30.2182 9.69778 29.866 10.1932 29.438 10.1932Z" fill="#D26758"/>
<path id="Vector_3" d="M29.9962 20.5657H6.03078C5.57563 20.5657 5.20177 20.0648 5.20177 19.4509C5.20177 18.8369 5.57022 18.3361 6.03078 18.3361H30.0016C30.4567 18.3361 30.8306 18.8369 30.8306 19.4509C30.8252 20.0648 30.4567 20.5657 29.9962 20.5657Z" fill="#D26758"/>
<path id="Vector_4" d="M29.9962 30.9326H6.03078C5.57563 30.9326 5.20177 30.4318 5.20177 29.8178C5.20177 29.2039 5.57022 28.703 6.03078 28.703H30.0016C30.4567 28.703 30.8306 29.2039 30.8306 29.8178C30.8252 30.4318 30.4567 30.9326 29.9962 30.9326Z" fill="#D26758"/>
</g>
</g>
</svg>
