<svg width="150" height="150" viewBox="0 0 150 150" fill="none" xmlns="http://www.w3.org/2000/svg">
<path d="M103.665 22.3652H28.5V121.5H103.665V22.3652Z" fill="#FFD645"/>
<path d="M84.78 47.5801H47.385C46.14 47.5801 45.135 46.5751 45.135 45.3301C45.135 44.0851 46.14 43.0801 47.385 43.0801H84.78C86.025 43.0801 87.03 44.0851 87.03 45.3301C87.03 46.5751 86.025 47.5801 84.78 47.5801Z" fill="#D0981F"/>
<path d="M84.78 65.46H47.385C46.14 65.46 45.135 64.455 45.135 63.21C45.135 61.965 46.14 60.96 47.385 60.96H84.78C86.025 60.96 87.03 61.965 87.03 63.21C87.03 64.455 86.025 65.46 84.78 65.46Z" fill="#D0981F"/>
<path d="M84.78 83.3398H47.385C46.14 83.3398 45.135 82.3348 45.135 81.0898C45.135 79.8448 46.14 78.8398 47.385 78.8398H84.78C86.025 78.8398 87.03 79.8448 87.03 81.0898C87.03 82.3348 86.025 83.3398 84.78 83.3398Z" fill="#D0981F"/>
<path d="M84.78 101.235H47.385C46.14 101.235 45.135 100.23 45.135 98.9849C45.135 97.7399 46.14 96.7349 47.385 96.7349H84.78C86.025 96.7349 87.03 97.7399 87.03 98.9849C87.03 100.23 86.025 101.235 84.78 101.235Z" fill="#D0981F"/>
<path d="M94.89 94.59C79.56 94.59 67.095 82.125 67.095 66.795C67.095 51.465 79.56 39 94.89 39C110.22 39 122.685 51.465 122.685 66.795C122.685 82.125 110.22 94.59 94.89 94.59ZM94.89 43.515C82.05 43.515 71.595 53.97 71.595 66.81C71.595 79.65 82.05 90.105 94.89 90.105C107.73 90.105 118.185 79.65 118.185 66.81C118.185 53.97 107.745 43.515 94.89 43.515Z" fill="#9E7200"/>
<path d="M139.245 112.62C138.675 112.62 138.09 112.395 137.655 111.96L112.23 86.5198C111.345 85.6348 111.345 84.2098 112.23 83.3398C113.115 82.4698 114.54 82.4548 115.41 83.3398L140.85 108.78C141.735 109.665 141.735 111.09 140.85 111.96C140.4 112.395 139.83 112.62 139.245 112.62Z" fill="#9E7200"/>
</svg>
