<svg width="80" height="80" viewBox="0 0 80 80" fill="none" xmlns="http://www.w3.org/2000/svg">
<path d="M58.4 13.5281H16.888V68.0001H58.4V13.5281Z" fill="#FFAC98"/>
<path d="M47.616 27.776H27.672C27.008 27.776 26.472 27.24 26.472 26.576C26.472 25.912 27.008 25.376 27.672 25.376H47.616C48.28 25.376 48.816 25.912 48.816 26.576C48.816 27.24 48.28 27.776 47.616 27.776Z" fill="#E46759"/>
<path d="M47.616 37.312H27.672C27.008 37.312 26.472 36.776 26.472 36.112C26.472 35.448 27.008 34.912 27.672 34.912H47.616C48.28 34.912 48.816 35.448 48.816 36.112C48.816 36.776 48.28 37.312 47.616 37.312Z" fill="#E46759"/>
<path d="M47.616 46.848H27.672C27.008 46.848 26.472 46.312 26.472 45.648C26.472 44.984 27.008 44.448 27.672 44.448H47.616C48.28 44.448 48.816 44.984 48.816 45.648C48.816 46.312 48.28 46.848 47.616 46.848Z" fill="#E46759"/>
<path d="M47.616 56.3919H27.672C27.008 56.3919 26.472 55.8559 26.472 55.1919C26.472 54.5279 27.008 53.9919 27.672 53.9919H47.616C48.28 53.9919 48.816 54.5279 48.816 55.1919C48.816 55.8559 48.28 56.3919 47.616 56.3919Z" fill="#E46759"/>
<path d="M74.72 24.8399C76.52 23.0399 76.52 20.1119 74.72 18.3119C72.92 16.5119 69.992 16.5119 68.192 18.3119L68.184 18.3039L66.552 19.9359L73.088 26.4719L71.456 28.1039L64.92 21.5679L46.36 40.1279L45.472 41.0159L52.008 47.5519L71.448 28.1119L74.72 24.8399Z" fill="#BC453D"/>
<path d="M66.5596 19.9382L64.9248 21.573L71.4641 28.1123L73.0989 26.4774L66.5596 19.9382Z" fill="#FFCEC2"/>
<path d="M43.088 49.9519L43.8 47.2799L45.752 49.2319L43.544 49.8239L43.088 49.9519L52.016 47.5599L45.48 41.0159L43.088 49.9519Z" fill="#FFCEC2"/>
<path d="M43.544 49.8239L45.752 49.2319L43.8 47.2799L43.208 49.4879C43.152 49.6959 43.344 49.8799 43.544 49.8239Z" fill="#BC453D"/>
</svg>
