<svg width="52" height="51" viewBox="0 0 52 51" fill="none" xmlns="http://www.w3.org/2000/svg">
<g clip-path="url(#clip0)">
<path d="M36.0267 12.898H0V51.0053H36.0267V12.898Z" fill="#FBC8BD"/>
<path d="M29.438 22.1932H5.9765C5.54845 22.1932 5.19626 21.6924 5.19626 21.0785C5.19626 20.4645 5.54303 19.9637 5.9765 19.9637H29.438C29.866 19.9637 30.2182 20.4645 30.2182 21.0785C30.2182 21.6978 29.866 22.1932 29.438 22.1932Z" fill="#D26758"/>
<path d="M29.9962 32.5657H6.03078C5.57563 32.5657 5.20177 32.0648 5.20177 31.4509C5.20177 30.8369 5.57022 30.3361 6.03078 30.3361H30.0016C30.4567 30.3361 30.8306 30.8369 30.8306 31.4509C30.8252 32.0648 30.4567 32.5657 29.9962 32.5657Z" fill="#D26758"/>
<path d="M29.9962 42.9326H6.03078C5.57563 42.9326 5.20177 42.4318 5.20177 41.8178C5.20177 41.2039 5.57022 40.703 6.03078 40.703H30.0016C30.4567 40.703 30.8306 41.2039 30.8306 41.8178C30.8252 42.4318 30.4567 42.9326 29.9962 42.9326Z" fill="#D26758"/>
<path d="M46.6629 10.6093C49.6105 10.6093 52 8.23432 52 5.30465C52 2.37497 49.6105 0 46.6629 0C43.7153 0 41.3258 2.37497 41.3258 5.30465C41.3258 8.23432 43.7153 10.6093 46.6629 10.6093Z" fill="#FE8470"/>
<path d="M50.4475 9.06397L42.8844 1.5469L16.4979 27.773L24.061 35.2901L50.4475 9.06397Z" fill="#D26758"/>
<path d="M16.6073 27.6596L13.8385 37.9296L14.6675 34.8653L16.9215 37.111L13.8385 37.9296L24.1713 35.1777L16.6073 27.6596Z" fill="#FBC8BD"/>
<path d="M14.6674 34.8653L13.9847 37.4073C13.9197 37.6388 14.1364 37.8542 14.3694 37.7896L16.9269 37.1111L14.6674 34.8653Z" fill="#D26758"/>
<path d="M48.5585 10.942L40.9955 3.4249L39.131 5.27804L46.694 12.7951L48.5585 10.942Z" fill="#FBC8BD"/>
</g>
<defs>
<clipPath id="clip0">
<rect width="52" height="51" fill="white"/>
</clipPath>
</defs>
</svg>
