<svg width="39" height="38" viewBox="0 0 39 38" fill="none" xmlns="http://www.w3.org/2000/svg">
<path d="M33.6629 10.6093C36.6105 10.6093 39 8.23432 39 5.30465C39 2.37497 36.6105 0 33.6629 0C30.7153 0 28.3258 2.37497 28.3258 5.30465C28.3258 8.23432 30.7153 10.6093 33.6629 10.6093Z" fill="#FE8470"/>
<path d="M37.4475 9.06397L29.8844 1.5469L3.49792 27.773L11.061 35.2901L37.4475 9.06397Z" fill="#D26758"/>
<path d="M3.60727 27.6596L0.838486 37.9296L1.66749 34.8653L3.92153 37.111L0.838486 37.9296L11.1713 35.1777L3.60727 27.6596Z" fill="#FBC8BD"/>
<path d="M1.66743 34.8653L0.984721 37.4073C0.919701 37.6388 1.13644 37.8542 1.36943 37.7896L3.92689 37.1111L1.66743 34.8653Z" fill="#D26758"/>
<path d="M35.5585 10.942L27.9955 3.4249L26.131 5.27804L33.694 12.7951L35.5585 10.942Z" fill="#FBC8BD"/>
</svg>
