<?xml version="1.0" encoding="utf-8"?>
<!-- Generator: Adobe Illustrator 24.3.0, SVG Export Plug-In . SVG Version: 6.00 Build 0)  -->
<svg version="1.1" id="Layer_1" xmlns="http://www.w3.org/2000/svg" xmlns:xlink="http://www.w3.org/1999/xlink" x="0px" y="0px"
	 viewBox="0 0 100 100" style="enable-background:new 0 0 100 100;" xml:space="preserve">
<style type="text/css">
	.st0{fill:#618EF7;}
	.st1{fill:#A3CFFF;}
	.st2{fill:#7DB2FF;}
</style>
<path class="st0" d="M80.2,68.6c-9.7,9.7-25,10.7-29.4,10.8c-0.7,0-1.3-0.6-1.2-1.2c0.1-4.4,1.1-19.7,10.8-29.4s25-10.7,29.4-10.8
	c0.7,0,1.3,0.6,1.2,1.2C90.9,43.6,89.9,58.9,80.2,68.6z"/>
<path class="st0" d="M19.8,68.6c9.7,9.7,25,10.7,29.4,10.8c0.7,0,1.3-0.6,1.2-1.2c-0.1-4.4-1.1-19.7-10.8-29.4S14.7,38,10.2,37.9
	c-0.7,0-1.2,0.6-1.2,1.2C9.1,43.6,10.1,58.9,19.8,68.6z"/>
<path class="st1" d="M34.3,48c0,15,11,27.5,14.3,31c0.5,0.5,1.4,0.5,1.9,0c3.4-3.5,14.3-16,14.3-31s-11-27.5-14.3-31
	c-0.5-0.5-1.4-0.5-1.9,0C45.3,20.4,34.3,33,34.3,48z"/>
<path class="st2" d="M-65.7,19.9c-1.6,1.6-1.5,4.2-1.5,4.2s2.6,0.1,4.2-1.5c1.6-1.6,1.5-4.2,1.5-4.2S-64.1,18.3-65.7,19.9z"/>
<path class="st2" d="M-67.7,38c3.8,0,6.8-3.1,6.8-6.8c0-3.8-3.1-6.8-6.8-6.8c-3.8,0-6.8,3.1-6.8,6.8C-74.5,35-71.5,38-67.7,38z"/>
<path class="st0" d="M-91,38h13.4l1.3-16.7h-16.1L-91,38z"/>
<path class="st1" d="M-93.1,12l0.8,9.3h16.1l0.8-9.3H-93.1z"/>
</svg>
