<?xml version="1.0" encoding="utf-8"?>
<!-- Generator: Adobe Illustrator 24.3.0, SVG Export Plug-In . SVG Version: 6.00 Build 0)  -->
<svg version="1.1" id="Layer_1" xmlns="http://www.w3.org/2000/svg" xmlns:xlink="http://www.w3.org/1999/xlink" x="0px" y="0px"
	 viewBox="0 0 80 80" style="enable-background:new 0 0 80 80;" xml:space="preserve">
<style type="text/css">
	.st0{fill:#7DB2FF;}
	.st1{fill:#5685E2;}
	.st2{fill:#A3CFFF;}
	.st3{fill:#618EF7;}
</style>
<path class="st0" d="M21.8,38.3V10.4c-7.7,0-13.9,6.2-13.9,13.9C7.8,32,14.1,38.3,21.8,38.3z"/>
<path class="st1" d="M35.7,24.4c0-7.7-6.2-13.9-13.9-13.9v27.8C29.4,38.3,35.7,32,35.7,24.4z"/>
<path class="st2" d="M68.7,44.2c4.6-4.6,4.6-12,0-16.6c-4.6-4.6-12-4.6-16.6,0L40.4,39.4l16.6,16.6L68.7,44.2z"/>
<path class="st3" d="M40.4,39.4L28.6,51.1c-4.6,4.6-4.6,12,0,16.6c4.6,4.6,12,4.6,16.6,0l11.8-11.8L40.4,39.4z"/>
</svg>
