<?xml version="1.0" encoding="utf-8"?>
<!-- Generator: Adobe Illustrator 24.3.0, SVG Export Plug-In . SVG Version: 6.00 Build 0)  -->
<svg version="1.1" id="Layer_1" xmlns="http://www.w3.org/2000/svg" xmlns:xlink="http://www.w3.org/1999/xlink" x="0px" y="0px"
	 viewBox="0 0 60 60" style="enable-background:new 0 0 60 60;" xml:space="preserve">
<style type="text/css">
	.st0{fill:#A3CFFF;}
	.st1{fill:#618EF7;}
</style>
<path class="st0" d="M16,53.4c7.6,0,13.8-6.2,13.8-13.8c0-7.6-6.2-13.8-13.8-13.8c-7.6,0-13.8,6.2-13.8,13.8
	C2.2,47.2,8.4,53.4,16,53.4z"/>
<path class="st0" d="M42.8,36.6c7.6,0,13.8-6.2,13.8-13.8S50.5,9,42.8,9S29,15.2,29,22.8S35.2,36.6,42.8,36.6z"/>
<path class="st1" d="M10.7,34.9c0.8,0,1.5-0.7,1.5-1.5s-0.7-1.5-1.5-1.5c-0.8,0-1.5,0.7-1.5,1.5S9.8,34.9,10.7,34.9z"/>
<path class="st1" d="M21.4,34.9c0.8,0,1.5-0.7,1.5-1.5s-0.7-1.5-1.5-1.5c-0.8,0-1.5,0.7-1.5,1.5S20.6,34.9,21.4,34.9z"/>
<path class="st1" d="M9.1,38.4c0,3.8,3.1,6.9,6.9,6.9s6.9-3.1,6.9-6.9H9.1z"/>
<path class="st1" d="M48.6,18c0.7,0.6,1.3,1.1,2.1,1.5c0.7,0.4,1.5,0.6,2.4,0.7h0c0.1,0,0.3,0.2,0.2,0.3c0,0.1-0.1,0.2-0.2,0.2
	c-0.5,0.1-0.9,0-1.4,0c-0.5-0.1-0.9-0.3-1.4-0.5c-0.8-0.5-1.5-1.2-2-1.8c-0.1-0.1-0.1-0.3,0-0.4C48.3,17.9,48.5,17.9,48.6,18z"/>
<path class="st1" d="M37.4,18.4c-0.5,0.7-1.2,1.4-2,1.8c-0.4,0.2-0.9,0.4-1.3,0.5c-0.5,0.1-0.9,0.1-1.4,0c-0.1,0-0.3-0.2-0.2-0.3
	c0-0.1,0.1-0.2,0.2-0.2h0c0.9-0.1,1.6-0.3,2.4-0.7c0.7-0.4,1.3-1,2.1-1.5c0.1-0.1,0.3-0.1,0.4,0C37.5,18.2,37.5,18.3,37.4,18.4z"/>
<path class="st1" d="M45.5,24.2c0.6,0.4,1.1,0.7,1.6,0.9c0.5,0.2,1.1,0.2,1.6,0.2c0.6-0.1,1.1-0.2,1.6-0.5s1.1-0.6,1.6-1l0,0
	c0.1-0.1,0.3,0,0.3,0.1c0,0.1,0.1,0.1,0,0.2c-0.4,1.4-1.9,2.6-3.5,2.7c-0.8,0.1-1.6-0.1-2.3-0.5c-0.7-0.4-1.2-1.1-1.4-1.8
	c0-0.1,0-0.3,0.1-0.3C45.3,24.2,45.4,24.2,45.5,24.2L45.5,24.2z"/>
<path class="st1" d="M40.5,24.5c-0.2,0.7-0.8,1.4-1.4,1.8c-0.7,0.4-1.5,0.6-2.3,0.5c-1.6-0.1-3.1-1.3-3.5-2.7c0-0.1,0-0.3,0.2-0.3
	c0.1,0,0.1,0,0.2,0l0,0c0.6,0.4,1.1,0.7,1.6,1c0.5,0.2,1.1,0.4,1.6,0.5c0.6,0.1,1.1,0,1.6-0.2c0.5-0.2,1.1-0.5,1.6-0.9l0,0
	c0.1-0.1,0.2-0.1,0.3,0C40.5,24.3,40.5,24.4,40.5,24.5z"/>
<path class="st1" d="M42.8,32.4c1.7,0,3.1-0.3,3.1-0.8c0-0.4-1.4-0.8-3.1-0.8c-1.7,0-3.1,0.3-3.1,0.8C39.7,32.1,41.1,32.4,42.8,32.4
	z"/>
</svg>
