<?xml version="1.0" encoding="utf-8"?>
<!-- Generator: Adobe Illustrator 24.3.0, SVG Export Plug-In . SVG Version: 6.00 Build 0)  -->
<svg version="1.1" id="Layer_1" xmlns="http://www.w3.org/2000/svg" xmlns:xlink="http://www.w3.org/1999/xlink" x="0px" y="0px"
	 viewBox="0 0 60 60" style="enable-background:new 0 0 60 60;" xml:space="preserve">
<style type="text/css">
	.st0{fill:#A3CFFF;}
	.st1{fill:#618EF7;}
</style>
<path class="st0" d="M32.1,19.2l16.1-4.6l-1.7-1.3c-10.2,0-15.2,3.5-16.6,4.7c-1.4-1.2-6.4-4.7-16.6-4.7l-1.7,1.3l16.1,4.6H32.1z"/>
<path class="st1" d="M49,14.3l-16.9,4.8h-4.3l-16.9-4.8c-0.5-0.1-1,0.2-1,0.7v26.5c0,0.3,0.2,0.6,0.6,0.7l17.3,5h4.3l17.3-5
	c0.3-0.1,0.6-0.4,0.6-0.7V15.1C50,14.6,49.5,14.2,49,14.3z"/>
<path class="st0" d="M31.6,27.2h-3.4v11.3h3.4V27.2z"/>
</svg>
