<?xml version="1.0" encoding="utf-8"?>
<!-- Generator: Adobe Illustrator 24.3.0, SVG Export Plug-In . SVG Version: 6.00 Build 0)  -->
<svg version="1.1" id="Layer_1" xmlns="http://www.w3.org/2000/svg" xmlns:xlink="http://www.w3.org/1999/xlink" x="0px" y="0px"
	 viewBox="0 0 60 60" style="enable-background:new 0 0 60 60;" xml:space="preserve">
<style type="text/css">
	.st0{fill:#7DB2FF;}
	.st1{fill:#A3CFFF;}
</style>
<path class="st0" d="M39.7,13.4c2.5,3.2,3.9,7.3,3.7,11.7c-0.5,8.5-7.4,15.4-15.9,15.9c-3.6,0.2-6.9-0.6-9.7-2.3
	c-0.4-0.2-0.8,0.2-0.7,0.6c3.2,6.8,10.1,11.4,18.1,11.2c10.2-0.3,18.5-8.6,18.8-18.7c0.3-9.1-5.6-16.8-13.8-19.2
	C39.7,12.6,39.4,13.1,39.7,13.4z"/>
<path class="st1" d="M12.6,28.5l3.7,1.5c0.2,0.1,0.2,0.3,0,0.4l-3.7,1.5l-1.5,3.7c-0.1,0.2-0.3,0.2-0.4,0l-1.5-3.7l-3.7-1.5
	c-0.2-0.1-0.2-0.3,0-0.4l3.7-1.5l1.5-3.7c0.1-0.2,0.3-0.2,0.4,0L12.6,28.5z"/>
<path class="st1" d="M27.6,15.8l5.6,2.2c0.3,0.1,0.3,0.5,0,0.6l-5.6,2.2l-2.2,5.6c-0.1,0.3-0.5,0.3-0.6,0l-2.2-5.6l-5.6-2.2
	c-0.3-0.1-0.3-0.5,0-0.6l5.6-2.2l2.2-5.6c0.1-0.3,0.5-0.3,0.6,0L27.6,15.8z"/>
</svg>
