<?xml version="1.0" encoding="utf-8"?>
<!-- Generator: Adobe Illustrator 24.3.0, SVG Export Plug-In . SVG Version: 6.00 Build 0)  -->
<svg version="1.1" id="Layer_1" xmlns="http://www.w3.org/2000/svg" xmlns:xlink="http://www.w3.org/1999/xlink" x="0px" y="0px"
	 viewBox="0 0 60 60" style="enable-background:new 0 0 60 60;" xml:space="preserve">
<style type="text/css">
	.st0{fill:#A3CFFF;}
	.st1{fill:#618EF7;}
	.st2{fill:#7DB2FF;}
</style>
<path class="st0" d="M29.9,52.3c10.6,0,19.2-6.8,19.2-15.2s-8.6-15.2-19.2-15.2c-10.6,0-19.2,6.8-19.2,15.2S19.3,52.3,29.9,52.3z"/>
<path class="st0" d="M15.2,27.4l-0.2-5.3c0-0.6,0.6-1.1,1.2-0.8l5.8,2.6L15.2,27.4z"/>
<path class="st0" d="M14.5,42.2l-6.7-1.8v-6.7l6.7-1.8V42.2z"/>
<path class="st0" d="M23.3,54.6h-4.5c-0.4,0-0.8-0.3-0.8-0.8l-0.6-7.1h6.7v7C24.1,54.2,23.7,54.6,23.3,54.6z"/>
<path class="st0" d="M42.1,54.6h-4.5c-0.5,0-0.8-0.4-0.8-0.8v-7.1h6.7l-0.6,7.1C42.9,54.3,42.5,54.6,42.1,54.6z"/>
<path class="st0" d="M48.1,34.2c0,0,3.1,0.3,4.3-0.8c0.2-0.2,0.5,0,0.5,0.2c-0.1,1.9-1.6,3.2-4.5,3.4C45,37.4,48.1,34.2,48.1,34.2z"
	/>
<path class="st1" d="M15.7,33.8c0.7,0,1.2-0.6,1.2-1.2c0-0.7-0.6-1.2-1.2-1.2c-0.7,0-1.2,0.6-1.2,1.2C14.5,33.3,15.1,33.8,15.7,33.8
	z"/>
<path class="st1" d="M36.8,26.4c-0.1,0-0.2,0-0.3-0.1c0,0-2.4-1.2-6.5-1.2c-4.1,0-5.8,1.1-5.9,1.1c-0.3,0.2-0.7,0.1-0.9-0.2
	c-0.2-0.3-0.1-0.7,0.2-0.9c0.1-0.1,2.1-1.3,6.5-1.3c4.4,0,7,1.2,7.1,1.3c0.3,0.1,0.4,0.5,0.3,0.8C37.2,26.3,37,26.4,36.8,26.4z"/>
<path class="st2" d="M30.6,5.4C27,5.4,24,8.3,24,11.9c0,1.8,0.7,3.4,1.9,4.6l9.2-9.2C34,6.1,32.4,5.4,30.6,5.4z"/>
<path class="st1" d="M35.2,7.3L26,16.5c1.2,1.2,2.8,1.9,4.6,1.9c3.6,0,6.5-2.9,6.5-6.5C37.1,10.1,36.4,8.5,35.2,7.3z"/>
</svg>
