<?xml version="1.0" encoding="utf-8"?>
<!-- Generator: Adobe Illustrator 24.3.0, SVG Export Plug-In . SVG Version: 6.00 Build 0)  -->
<svg version="1.1" id="Layer_1" xmlns="http://www.w3.org/2000/svg" xmlns:xlink="http://www.w3.org/1999/xlink" x="0px" y="0px"
	 viewBox="0 0 60 60" style="enable-background:new 0 0 60 60;" xml:space="preserve">
<style type="text/css">
	.st0{fill:#7DB2FF;}
	.st1{fill:#A3CFFF;}
	.st2{fill:#FFEFEC;}
	.st3{fill:#618EF7;}
</style>
<path class="st0" d="M46.8,51H13.2c-2,0-3.6-1.6-3.6-3.6V12.6c0-2,1.6-3.6,3.6-3.6h33.5c2,0,3.6,1.6,3.6,3.6v34.7
	C50.4,49.4,48.8,51,46.8,51z"/>
<path class="st1" d="M41.4,19.6c0-0.1,0-0.3,0-0.5v-2.4c0-1.7-1.4-3-3-3H21.6c-1.7,0-3,1.3-3,3v2.4c0,0.2,0,0.3,0,0.5
	C21.6,16.8,25.6,15,30,15S38.4,16.8,41.4,19.6z"/>
<path class="st2" d="M21.6,22.2h16.8c1.5,0,2.7-1.1,3-2.6C38.4,16.8,34.4,15,30,15s-8.4,1.8-11.4,4.6C18.9,21.1,20.1,22.2,21.6,22.2
	z"/>
<path class="st3" d="M29.4,22.2h1.2v-6c0-0.3-0.2-0.6-0.6-0.6c-0.4,0-0.6,0.3-0.6,0.6V22.2z"/>
</svg>
