<?xml version="1.0" encoding="utf-8"?>
<!-- Generator: Adobe Illustrator 24.3.0, SVG Export Plug-In . SVG Version: 6.00 Build 0)  -->
<svg version="1.1" id="Layer_1" xmlns="http://www.w3.org/2000/svg" xmlns:xlink="http://www.w3.org/1999/xlink" x="0px" y="0px"
	 viewBox="0 0 60 60" style="enable-background:new 0 0 60 60;" xml:space="preserve">
<style type="text/css">
	.st0{fill:#618EF7;}
	.st1{fill:#A3CFFF;}
</style>
<path class="st0" d="M45.3,9.7L9.6,45.3c-1.1,1.1-1.1,2.9,0,4l1.4,1.4c1.1,1.1,2.9,1.1,4,0l35.6-35.6c1.1-1.1,1.1-2.9,0-4l-1.4-1.4
	C48.2,8.5,46.4,8.5,45.3,9.7z"/>
<path class="st1" d="M54.1,21.7L51.8,24c-0.5,0.5-1.4,0.5-2,0L36.5,10.6c-0.5-0.5-0.5-1.4,0-2l2.3-2.3c0.5-0.5,1.4-0.5,2,0
	l13.3,13.3C54.7,20.2,54.7,21.1,54.1,21.7z"/>
<path class="st1" d="M24,51.8l-2.3,2.3c-0.5,0.5-1.4,0.5-2,0L6.4,40.8c-0.5-0.5-0.5-1.4,0-2l2.3-2.3c0.5-0.5,1.4-0.5,2,0L24,49.8
	C24.6,50.4,24.6,51.3,24,51.8z"/>
<path class="st1" d="M26.5,9.3l3.4-3.4c0.5-0.5,1.4-0.5,2,0l21.5,21.5c0.5,0.5,0.5,1.4,0,2l-3.4,3.4c-0.5,0.5-1.4,0.5-2,0L26.5,11.3
	C26,10.8,26,9.9,26.5,9.3z"/>
<path class="st1" d="M32.7,50l-3.4,3.4c-0.5,0.5-1.4,0.5-2,0L5.9,31.9c-0.5-0.5-0.5-1.4,0-2l3.4-3.4c0.5-0.5,1.4-0.5,2,0L32.7,48
	C33.3,48.5,33.3,49.4,32.7,50z"/>
</svg>
