<svg width="60" height="60" viewBox="0 0 60 60" fill="none" xmlns="http://www.w3.org/2000/svg">
<path d="M32.0815 19.158L48.2215 14.544L46.5475 13.2C36.3115 13.2 31.3495 16.71 29.9575 17.91C28.5595 16.71 23.6035 13.2 13.3675 13.2L11.6875 14.544L27.8275 19.158H32.0815Z" fill="#FFCEC2"/>
<path d="M48.978 14.328L32.082 19.158H27.828L10.932 14.328C10.446 14.19 9.95996 14.556 9.95996 15.06V41.556C9.95996 41.898 10.188 42.192 10.512 42.288L27.828 47.238H32.082L49.398 42.288C49.722 42.192 49.95 41.898 49.95 41.556V15.06C49.95 14.556 49.464 14.19 48.978 14.328Z" fill="#FE8470"/>
<path d="M31.6378 27.2161H28.2598V38.4721H31.6378V27.2161Z" fill="#FFCEC2"/>
</svg>
