<svg width="22" height="22" viewBox="0 0 22 22" fill="none" xmlns="http://www.w3.org/2000/svg">
<path d="M20.77 3.41957L18.67 1.30957C17.51 0.139567 15.6 0.129568 14.43 1.28957L2.30003 13.2896C2.29003 13.2996 2.28003 13.3196 2.27003 13.3396C2.21003 13.3996 2.17003 13.4796 2.13003 13.5596C2.11003 13.6096 2.07003 13.6496 2.06003 13.6996C2.06003 13.7096 2.05003 13.7196 2.04003 13.7296L0.0400293 20.7296C-0.0599707 21.0796 0.0400293 21.4496 0.290029 21.7096C0.480029 21.8996 0.740029 21.9996 1.00003 21.9996C1.09003 21.9996 1.18003 21.9896 1.27003 21.9596L8.27003 19.9596C8.29003 19.9496 8.30003 19.9396 8.32003 19.9296C8.38003 19.9096 8.44003 19.8696 8.50003 19.8396C8.56003 19.8096 8.61003 19.7796 8.66003 19.7296C8.67003 19.7196 8.69003 19.7096 8.70003 19.6996L20.76 7.64957C21.93 6.47957 21.93 4.57957 20.77 3.41957ZM13.55 4.96957L17.08 8.49957L8.15003 17.4296L6.83003 15.4396C6.76003 15.3296 6.66003 15.2396 6.55003 15.1596L4.57003 13.8396L13.55 4.96957ZM3.59003 15.5896L5.28003 16.7196L6.41003 18.4096L2.46003 19.5396L3.59003 15.5896ZM19.35 6.23957L18.5 7.08957L14.97 3.55957L15.83 2.70957C16.22 2.31957 16.86 2.31957 17.24 2.71957L19.34 4.83957C19.74 5.20957 19.74 5.84957 19.35 6.23957Z" fill="#4C66D6"/>
</svg>
