<svg width="170" height="226" viewBox="0 0 170 226" fill="none" xmlns="http://www.w3.org/2000/svg">
<g id="Ribbon">
<g id="Frame" clip-path="url(#clip0)">
<g id="Group">
<path id="Vector" d="M28.9992 119.176C27.8517 119.176 26.9309 120.095 26.9309 121.241V223.657C26.9309 225.199 28.5742 226.204 29.9484 225.496L84.6884 205.704L85.0284 205.831V119.176H28.9992Z" fill="#38C396"/>
<path id="Vector_2" d="M140.377 119.176H85.0283V205.831L139.428 225.496C140.802 226.204 142.446 225.199 142.446 223.657V121.255C142.446 120.109 141.525 119.176 140.377 119.176Z" fill="#65DEB4"/>
</g>
<path id="Vector_3" d="M85 7.86039C76.4434 7.86039 66.4559 -1.83087 58.7209 0.673298C50.7167 3.26235 48.3508 17.0565 41.6925 21.895C34.9633 26.7902 21.1225 24.7953 16.2208 31.5155C11.3758 38.165 17.51 50.6858 14.9033 58.6793C12.41 66.4041 0 72.8838 0 81.429C0 89.9743 12.41 96.454 14.9175 104.165C17.51 112.158 11.3758 124.665 16.235 131.328C21.1367 138.049 34.9775 136.068 41.7067 140.949C48.365 145.787 50.7308 159.582 58.735 162.171C66.4558 164.675 76.4434 154.984 85.0142 154.984C93.5709 154.984 103.558 164.675 111.293 162.171C119.298 159.582 121.663 145.787 128.322 140.949C135.051 136.054 148.892 138.049 153.793 131.328C158.638 124.679 152.504 112.158 155.111 104.165C157.59 96.454 170 89.9743 170 81.429C170 72.8838 157.59 66.404 155.083 58.6935C152.49 50.7 158.624 38.1933 153.765 31.5297C148.863 24.8095 135.023 26.7902 128.293 21.9092C121.635 17.0706 119.269 3.2765 111.265 0.687446C103.544 -1.83087 93.5567 7.86039 85 7.86039Z" fill="#BCEFDD"/>
<g id="Group_2">
<path id="Vector_4" d="M84.9999 140.143C52.5866 140.143 26.2083 113.799 26.2083 81.4291C26.2083 49.0589 52.5866 22.7157 84.9999 22.7157C117.413 22.7157 143.792 49.0589 143.792 81.4291C143.792 113.799 117.413 140.143 84.9999 140.143ZM84.9999 28.3748C55.7033 28.3748 31.8749 52.1714 31.8749 81.4291C31.8749 110.687 55.7033 134.483 84.9999 134.483C114.297 134.483 138.125 110.687 138.125 81.4291C138.125 52.1714 114.297 28.3748 84.9999 28.3748Z" fill="#38C396"/>
</g>
</g>
<g id="Group 52">
<path id="14" d="M76.6743 57.8038V86.8947H70.5238V63.6419H70.3533L63.6914 67.818V62.3635L70.8931 57.8038H76.6743ZM83.1481 81.7811V76.9373L95.293 57.8038H99.4691V64.5083H96.9975L89.3412 76.6248V76.8521H106.6V81.7811H83.1481ZM97.1111 86.8947V80.3038L97.2248 78.1589V57.8038H102.992V86.8947H97.1111Z" fill="#00765C"/>
<path id="days" d="M70.811 107.364C70.1254 107.364 69.5118 107.188 68.9701 106.836C68.4285 106.483 68.0004 105.972 67.686 105.301C67.3716 104.631 67.2144 103.817 67.2144 102.858C67.2144 101.889 67.3735 101.07 67.6917 100.404C68.0137 99.7333 68.4474 99.2276 68.9929 98.8867C69.5383 98.542 70.1463 98.3696 70.8167 98.3696C71.3281 98.3696 71.7485 98.4567 72.0781 98.631C72.4076 98.8014 72.669 99.0079 72.8622 99.2503C73.0554 99.4889 73.205 99.7143 73.311 99.9264H73.3963V95.5742H75.4588V107.211H73.436V105.836H73.311C73.205 106.048 73.0516 106.273 72.8508 106.512C72.6501 106.747 72.3849 106.947 72.0554 107.114C71.7258 107.281 71.311 107.364 70.811 107.364ZM71.3849 105.676C71.8205 105.676 72.1917 105.559 72.4985 105.324C72.8054 105.086 73.0383 104.754 73.1974 104.33C73.3565 103.906 73.436 103.411 73.436 102.847C73.436 102.282 73.3565 101.792 73.1974 101.375C73.0421 100.959 72.811 100.635 72.5042 100.404C72.2012 100.173 71.8281 100.057 71.3849 100.057C70.9266 100.057 70.544 100.176 70.2372 100.415C69.9304 100.654 69.6993 100.983 69.544 101.404C69.3887 101.824 69.311 102.305 69.311 102.847C69.311 103.392 69.3887 103.879 69.544 104.307C69.7031 104.731 69.936 105.067 70.2429 105.313C70.5535 105.555 70.9341 105.676 71.3849 105.676ZM80.1619 107.387C79.6089 107.387 79.1108 107.288 78.6676 107.091C78.2282 106.89 77.8797 106.595 77.6221 106.205C77.3683 105.815 77.2414 105.334 77.2414 104.762C77.2414 104.269 77.3323 103.862 77.5142 103.54C77.696 103.218 77.9441 102.961 78.2585 102.767C78.5729 102.574 78.927 102.428 79.321 102.33C79.7187 102.228 80.1297 102.154 80.5539 102.108C81.0653 102.055 81.4801 102.008 81.7983 101.966C82.1164 101.921 82.3475 101.853 82.4914 101.762C82.6392 101.667 82.713 101.521 82.713 101.324V101.29C82.713 100.862 82.5861 100.531 82.3323 100.296C82.0786 100.061 81.713 99.9435 81.2358 99.9435C80.732 99.9435 80.3323 100.053 80.0369 100.273C79.7452 100.493 79.5483 100.752 79.446 101.051L77.5255 100.779C77.677 100.248 77.927 99.8052 78.2755 99.4492C78.624 99.0893 79.0501 98.8204 79.5539 98.6423C80.0577 98.4605 80.6145 98.3696 81.2244 98.3696C81.6448 98.3696 82.0634 98.4189 82.4801 98.5173C82.8967 98.6158 83.2774 98.7787 83.6221 99.006C83.9668 99.2295 84.2433 99.5344 84.4517 99.9208C84.6638 100.307 84.7698 100.79 84.7698 101.37V107.211H82.7926V106.012H82.7244C82.5994 106.254 82.4233 106.481 82.196 106.693C81.9725 106.902 81.6903 107.07 81.3494 107.199C81.0123 107.324 80.6164 107.387 80.1619 107.387ZM80.696 105.875C81.1089 105.875 81.4668 105.794 81.7698 105.631C82.0729 105.464 82.3058 105.245 82.4687 104.972C82.6354 104.699 82.7187 104.402 82.7187 104.08V103.051C82.6543 103.104 82.5445 103.154 82.3892 103.199C82.2376 103.245 82.0672 103.284 81.8778 103.318C81.6884 103.353 81.5009 103.383 81.3153 103.409C81.1297 103.436 80.9687 103.459 80.8323 103.478C80.5255 103.519 80.2509 103.587 80.0085 103.682C79.7661 103.777 79.5748 103.909 79.4346 104.08C79.2945 104.247 79.2244 104.462 79.2244 104.728C79.2244 105.106 79.3626 105.392 79.6392 105.586C79.9157 105.779 80.2679 105.875 80.696 105.875ZM87.8039 110.466C87.5236 110.466 87.2642 110.443 87.0255 110.398C86.7907 110.356 86.6032 110.305 86.463 110.245L86.9403 108.648C87.3873 108.777 87.7623 108.798 88.0653 108.711C88.3721 108.627 88.624 108.345 88.821 107.864L88.9971 107.392L85.8323 98.4833H88.0142L90.0255 105.074H90.1164L92.1335 98.4833L94.3323 98.4946L90.8267 108.267C90.6638 108.722 90.4479 109.114 90.1789 109.443C89.91 109.773 89.5804 110.025 89.1903 110.199C88.8039 110.377 88.3418 110.466 87.8039 110.466ZM102.658 100.79L100.783 100.995C100.73 100.805 100.637 100.627 100.504 100.461C100.375 100.294 100.201 100.159 99.9815 100.057C99.7618 99.9548 99.4929 99.9037 99.1747 99.9037C98.7466 99.9037 98.3868 99.9965 98.0951 100.182C97.8072 100.368 97.6652 100.608 97.669 100.904C97.6652 101.157 97.758 101.364 97.9474 101.523C98.1406 101.682 98.4588 101.813 98.9019 101.915L100.391 102.233C101.216 102.411 101.83 102.693 102.231 103.08C102.637 103.466 102.841 103.972 102.845 104.597C102.841 105.146 102.68 105.631 102.362 106.051C102.048 106.468 101.61 106.794 101.05 107.029C100.489 107.264 99.8451 107.381 99.1179 107.381C98.0497 107.381 97.1898 107.157 96.5383 106.711C95.8868 106.26 95.4985 105.633 95.3735 104.83L97.3792 104.637C97.4701 105.031 97.6633 105.328 97.9588 105.529C98.2542 105.729 98.6387 105.83 99.1122 105.83C99.6008 105.83 99.9929 105.729 100.288 105.529C100.588 105.328 100.737 105.08 100.737 104.784C100.737 104.534 100.641 104.328 100.447 104.165C100.258 104.002 99.9625 103.877 99.561 103.79L98.0724 103.478C97.2353 103.303 96.616 103.01 96.2144 102.597C95.8129 102.18 95.6141 101.654 95.6179 101.017C95.6141 100.479 95.7599 100.014 96.0554 99.6196C96.3546 99.2219 96.7694 98.9151 97.2997 98.6992C97.8338 98.4795 98.4493 98.3696 99.1463 98.3696C100.169 98.3696 100.974 98.5874 101.561 99.023C102.152 99.4586 102.517 100.048 102.658 100.79Z" fill="#00765C"/>
</g>
</g>
<defs>
<clipPath id="clip0">
<rect width="170" height="225.474" fill="white" transform="translate(0 0.263123)"/>
</clipPath>
</defs>
</svg>
