<svg width="170" height="226" viewBox="0 0 170 226" fill="none" xmlns="http://www.w3.org/2000/svg">
<g clip-path="url(#clip0)">
<path d="M28.9992 119.176C27.8517 119.176 26.9309 120.095 26.9309 121.241V223.657C26.9309 225.199 28.5742 226.204 29.9484 225.496L84.6884 205.704L85.0284 205.831V119.176H28.9992Z" fill="#7DB2FF"/>
<path d="M140.377 119.176H85.0283V205.831L139.428 225.496C140.802 226.204 142.446 225.199 142.446 223.657V121.255C142.446 120.109 141.525 119.176 140.377 119.176Z" fill="#FE8470"/>
<path d="M85 7.86039C76.4434 7.86039 66.4559 -1.83087 58.7209 0.673298C50.7167 3.26235 48.3508 17.0565 41.6925 21.895C34.9633 26.7902 21.1225 24.7953 16.2208 31.5155C11.3758 38.165 17.51 50.6858 14.9033 58.6793C12.41 66.4041 0 72.8838 0 81.429C0 89.9743 12.41 96.454 14.9175 104.165C17.51 112.158 11.3758 124.665 16.235 131.328C21.1367 138.049 34.9775 136.068 41.7067 140.949C48.365 145.787 50.7308 159.582 58.735 162.171C66.4558 164.675 76.4434 154.984 85.0142 154.984C93.5709 154.984 103.558 164.675 111.293 162.171C119.298 159.582 121.663 145.787 128.322 140.949C135.051 136.054 148.892 138.049 153.793 131.328C158.638 124.679 152.504 112.158 155.111 104.165C157.59 96.454 170 89.9743 170 81.429C170 72.8838 157.59 66.404 155.083 58.6935C152.49 50.7 158.624 38.1933 153.765 31.5297C148.863 24.8095 135.023 26.7902 128.293 21.9092C121.635 17.0706 119.269 3.2765 111.265 0.687446C103.544 -1.83087 93.5567 7.86039 85 7.86039Z" fill="#FFE27A"/>
<path d="M84.9999 140.143C52.5866 140.143 26.2083 113.799 26.2083 81.4291C26.2083 49.0589 52.5866 22.7157 84.9999 22.7157C117.413 22.7157 143.792 49.0589 143.792 81.4291C143.792 113.799 117.413 140.143 84.9999 140.143ZM84.9999 28.3748C55.7033 28.3748 31.8749 52.1714 31.8749 81.4291C31.8749 110.687 55.7033 134.483 84.9999 134.483C114.297 134.483 138.125 110.687 138.125 81.4291C138.125 52.1714 114.297 28.3748 84.9999 28.3748Z" fill="#38C396"/>
</g>
<path d="M76.6743 57.8038H70.8931L63.6914 62.3635V67.818L70.3533 63.6419H70.5238V86.8947H76.6743V57.8038ZM83.1481 81.7811H97.1111V86.8947H102.992V81.7811H106.6V76.8521H102.992V57.8038H95.293L83.1481 76.9373V81.7811ZM97.2248 76.8521H89.3412V76.6248L96.9975 64.5083H97.2248V76.8521Z" fill="black" fill-opacity="0.75"/>
<path d="M70.811 107.364C72.311 107.364 72.9872 106.472 73.311 105.836H73.436V107.211H75.4588V95.5742H73.3963V99.9264H73.311C72.9985 99.2958 72.3565 98.3696 70.8167 98.3696C68.7997 98.3696 67.2144 99.9492 67.2144 102.858C67.2144 105.733 68.7542 107.364 70.811 107.364ZM71.3849 105.676C70.0269 105.676 69.311 104.483 69.311 102.847C69.311 101.222 70.0156 100.057 71.3849 100.057C72.7088 100.057 73.436 101.154 73.436 102.847C73.436 104.54 72.6974 105.676 71.3849 105.676ZM80.1619 107.387C81.5312 107.387 82.3494 106.745 82.7244 106.012H82.7926V107.211H84.7698V101.37C84.7698 99.0628 82.8892 98.3696 81.2244 98.3696C79.3892 98.3696 77.9801 99.1878 77.5255 100.779L79.446 101.051C79.6505 100.455 80.2301 99.9435 81.2358 99.9435C82.1903 99.9435 82.713 100.432 82.713 101.29V101.324C82.713 101.915 82.0937 101.943 80.5539 102.108C78.8608 102.29 77.2414 102.796 77.2414 104.762C77.2414 106.478 78.4971 107.387 80.1619 107.387ZM80.696 105.875C79.838 105.875 79.2244 105.483 79.2244 104.728C79.2244 103.938 79.9119 103.608 80.8323 103.478C81.3721 103.404 82.4517 103.267 82.7187 103.051V104.08C82.7187 105.051 81.9346 105.875 80.696 105.875ZM87.8039 110.466C89.4062 110.466 90.3323 109.637 90.8267 108.267L94.3323 98.4946L92.1335 98.4833L90.1164 105.074H90.0255L88.0142 98.4833H85.8323L88.9971 107.392L88.821 107.864C88.4289 108.83 87.838 108.904 86.9403 108.648L86.463 110.245C86.7414 110.364 87.2414 110.466 87.8039 110.466ZM102.658 100.79C102.374 99.3128 101.192 98.3696 99.1463 98.3696C97.044 98.3696 95.6122 99.4037 95.6179 101.017C95.6122 102.29 96.3963 103.131 98.0724 103.478L99.561 103.79C100.362 103.966 100.737 104.29 100.737 104.784C100.737 105.381 100.089 105.83 99.1122 105.83C98.169 105.83 97.5554 105.421 97.3792 104.637L95.3735 104.83C95.6292 106.432 96.9758 107.381 99.1179 107.381C101.3 107.381 102.839 106.25 102.845 104.597C102.839 103.353 102.038 102.591 100.391 102.233L98.9019 101.915C98.0156 101.716 97.6633 101.409 97.669 100.904C97.6633 100.313 98.3167 99.9037 99.1747 99.9037C100.124 99.9037 100.624 100.421 100.783 100.995L102.658 100.79Z" fill="black" fill-opacity="0.75"/>
<defs>
<clipPath id="clip0">
<rect width="170" height="225.474" fill="white" transform="translate(0 0.263123)"/>
</clipPath>
</defs>
</svg>
