<svg id="Layer_1" data-name="Layer 1" xmlns="http://www.w3.org/2000/svg" viewBox="0 0 170 226"><defs><style>.cls-1{fill:#38c396;}.cls-2{fill:#65deb4;}.cls-3{fill:#bcefdd;}.cls-4{fill:#00765c;}</style></defs><g id="Frame"><g id="Group"><path id="Vector" class="cls-1" d="M30.53,119a2,2,0,0,0-2,2v99.61a2,2,0,0,0,2.94,1.79L84.7,203.16l.33.13V119Z"/><path id="Vector_2" data-name="Vector 2" class="cls-2" d="M138.86,119H85v84.28l52.91,19.12a2,2,0,0,0,2.93-1.79V121A2,2,0,0,0,138.86,119Z"/></g><path id="Vector_3" data-name="Vector 3" class="cls-3" d="M85,10.74c-8.32,0-18-9.42-25.56-7C51.66,6.27,49.36,19.69,42.88,24.39s-20,2.82-24.77,9.36,1.25,18.64-1.29,26.42C14.4,67.68,2.33,74,2.33,82.29S14.4,96.91,16.84,104.41c2.52,7.77-3.45,19.94,1.28,26.42s18.23,4.61,24.77,9.35,8.78,18.13,16.56,20.64c7.51,2.44,17.23-7,25.56-7s18,9.43,25.56,7c7.79-2.51,10.09-15.93,16.56-20.64s20-2.82,24.78-9.35-1.26-18.65,1.28-26.42c2.41-7.5,14.48-13.8,14.48-22.12S155.6,67.68,153.16,60.18c-2.52-7.77,3.45-19.94-1.28-26.42s-18.23-4.61-24.77-9.35S118.33,6.28,110.55,3.77C103,1.32,93.32,10.74,85,10.74Z"/><g id="Group_2" data-name="Group 2"><path id="Vector_4" data-name="Vector 4" class="cls-1" d="M85,139.4a57.11,57.11,0,1,1,57.18-57.11A57.21,57.21,0,0,1,85,139.4ZM85,30.69a51.6,51.6,0,1,0,51.67,51.6A51.7,51.7,0,0,0,85,30.69Z"/></g></g><g id="Group_52" data-name="Group 52"><path id="_14" data-name="14" class="cls-4" d="M76.9,59.32V87.61h-6V65h-.17l-6.47,4.07V63.75l7-4.43Zm6.3,23.32V77.93L95,59.32h4.06v6.52h-2.4L89.22,77.62v.22H106v4.8Zm13.58,5V81.2l.11-2.09V59.32h5.61V87.61Z"/><path id="days" class="cls-4" d="M71.2,107.52a3.16,3.16,0,0,1-1.79-.52,3.49,3.49,0,0,1-1.25-1.49,6.32,6.32,0,0,1,0-4.76,3.42,3.42,0,0,1,1.26-1.48,3.29,3.29,0,0,1,1.78-.5,2.73,2.73,0,0,1,1.22.25,2.25,2.25,0,0,1,.76.61,3.55,3.55,0,0,1,.44.65h.08V96.05h2v11.32h-2V106h-.12a3,3,0,0,1-.45.66,2.49,2.49,0,0,1-.77.59A2.69,2.69,0,0,1,71.2,107.52Zm.56-1.64a1.73,1.73,0,0,0,1.08-.35,2.08,2.08,0,0,0,.68-1,4.62,4.62,0,0,0,0-2.88,2,2,0,0,0-.67-.94,1.73,1.73,0,0,0-1.09-.34,1.78,1.78,0,0,0-1.12.35,2.06,2.06,0,0,0-.67,1,4.09,4.09,0,0,0-.23,1.41,4.19,4.19,0,0,0,.23,1.42,2.16,2.16,0,0,0,.68,1A1.72,1.72,0,0,0,71.76,105.88Zm8.53,1.66a3.57,3.57,0,0,1-1.45-.29,2.32,2.32,0,0,1-1-.86,2.58,2.58,0,0,1-.37-1.4,2.36,2.36,0,0,1,.27-1.19,2.16,2.16,0,0,1,.72-.75,3.73,3.73,0,0,1,1-.43,7.51,7.51,0,0,1,1.2-.21l1.21-.14a1.84,1.84,0,0,0,.67-.2.48.48,0,0,0,.22-.43v0a1.28,1.28,0,0,0-.37-1,1.58,1.58,0,0,0-1.07-.34,2,2,0,0,0-1.17.32,1.65,1.65,0,0,0-.57.76l-1.87-.27a3,3,0,0,1,.73-1.29A3.12,3.12,0,0,1,79.7,99a4.68,4.68,0,0,1,1.63-.27,5.64,5.64,0,0,1,1.22.14,3.66,3.66,0,0,1,1.11.48,2.41,2.41,0,0,1,.81.89,2.94,2.94,0,0,1,.31,1.41v5.68H82.85V106.2h-.06a2.48,2.48,0,0,1-.52.67,2.52,2.52,0,0,1-.82.49A3.37,3.37,0,0,1,80.29,107.54Zm.52-1.47a2.17,2.17,0,0,0,1-.24,1.75,1.75,0,0,0,.68-.64,1.63,1.63,0,0,0,.24-.87v-1a.87.87,0,0,1-.32.15,4.75,4.75,0,0,1-.5.11,5.07,5.07,0,0,1-.54.09l-.47.07a3,3,0,0,0-.8.2,1.29,1.29,0,0,0-.56.38,1.06,1.06,0,0,0,.2,1.47A1.73,1.73,0,0,0,80.81,106.07Zm6.92,4.47a4.37,4.37,0,0,1-.76-.07,2.5,2.5,0,0,1-.55-.15l.47-1.55a2.08,2.08,0,0,0,1.09.06c.3-.08.54-.36.74-.83l.17-.45-3.08-8.67h2.12l2,6.41H90l2-6.41h2.14l-3.41,9.51a3.91,3.91,0,0,1-.63,1.14,2.67,2.67,0,0,1-1,.74A3.28,3.28,0,0,1,87.73,110.54Zm14.44-9.42-1.82.2a1.53,1.53,0,0,0-.27-.52,1.44,1.44,0,0,0-.51-.39,1.81,1.81,0,0,0-.78-.15,1.91,1.91,0,0,0-1.05.27.82.82,0,0,0-.42.71.77.77,0,0,0,.27.6,2.42,2.42,0,0,0,.93.38l1.45.31a3.69,3.69,0,0,1,1.79.82,2,2,0,0,1,.6,1.48,2.34,2.34,0,0,1-.47,1.41,3.06,3.06,0,0,1-1.28,1,4.81,4.81,0,0,1-1.88.34,4.33,4.33,0,0,1-2.51-.65,2.63,2.63,0,0,1-1.13-1.83l2-.18a1.38,1.38,0,0,0,.56.86,1.94,1.94,0,0,0,1.13.3,2,2,0,0,0,1.14-.3.85.85,0,0,0,.44-.72.76.76,0,0,0-.29-.6,2,2,0,0,0-.86-.37l-1.45-.3a3.45,3.45,0,0,1-1.8-.86,2.07,2.07,0,0,1-.58-1.53,2.1,2.1,0,0,1,.42-1.36,2.8,2.8,0,0,1,1.21-.9,4.78,4.78,0,0,1,1.8-.32,3.83,3.83,0,0,1,2.35.64A2.64,2.64,0,0,1,102.17,101.12Z"/></g></svg>