<svg width="24" height="24" viewBox="0 0 24 24" fill="none" xmlns="http://www.w3.org/2000/svg">
<path d="M12 1C5.93 1 1 5.93 1 12C1 18.07 5.93 23 12 23C18.07 23 23 18.07 23 12C23 5.93 18.07 1 12 1ZM12 21C7.04 21 3 16.96 3 12C3 7.04 7.04 3 12 3C16.96 3 21 7.04 21 12C21 16.96 16.96 21 12 21Z" fill="#5784EE"/>
<path d="M17.72 11.3006L13.45 6.88058C13.07 6.48058 12.43 6.47058 12.04 6.86058C11.64 7.24058 11.63 7.88058 12.02 8.27058L14.64 11.0006H7C6.45 11.0006 6 11.4506 6 12.0006C6 12.5506 6.45 13.0006 7 13.0006H14.63L11.98 15.7206C11.6 16.1206 11.6 16.7506 12 17.1306C12.19 17.3206 12.45 17.4106 12.7 17.4106C12.96 17.4106 13.22 17.3106 13.42 17.1106L17.72 12.6906C18.09 12.3106 18.09 11.6906 17.72 11.3006Z" fill="#5784EE"/>
</svg>
