<svg width="80" height="80" viewBox="0 0 80 80" fill="none" xmlns="http://www.w3.org/2000/svg">
<path d="M61.6 74.4H18.4C17.072 74.4 16 73.328 16 72V14.456C16 13.128 17.072 12.056 18.4 12.056H61.6C62.928 12.056 64 13.128 64 14.456V72C64 73.328 62.928 74.4 61.6 74.4Z" fill="#49C89F"/>
<path d="M60.8 16.0081H19.2V71.2001H60.8V16.0081Z" fill="#BCEFDD"/>
<path d="M46.392 9.56H45.616C45.584 6.48 43.08 4 40 4C36.92 4 34.416 6.48 34.384 9.56H33.608C30.2 9.56 27.2 12.592 27.2 16V17.6H52.8V16C52.8 12.592 49.8 9.56 46.392 9.56ZM40 12.128C38.616 12.128 37.488 11.008 37.488 9.616C37.488 8.224 38.608 7.104 40 7.104C41.392 7.104 42.512 8.224 42.512 9.616C42.512 11.008 41.384 12.128 40 12.128Z" fill="#2F9D7E"/>
<path d="M39.056 60.136C47.3712 60.136 54.112 53.3952 54.112 45.08C54.112 36.7648 47.3712 30.024 39.056 30.024C30.7408 30.024 24 36.7648 24 45.08C24 53.3952 30.7408 60.136 39.056 60.136Z" fill="#65DEB4"/>
<path d="M33.2 46.7841C34.1234 46.7841 34.872 46.0355 34.872 45.1121C34.872 44.1886 34.1234 43.4401 33.2 43.4401C32.2766 43.4401 31.528 44.1886 31.528 45.1121C31.528 46.0355 32.2766 46.7841 33.2 46.7841Z" fill="#2F9D7E"/>
<path d="M44.912 46.7841C45.8354 46.7841 46.584 46.0355 46.584 45.1121C46.584 44.1886 45.8354 43.4401 44.912 43.4401C43.9886 43.4401 43.24 44.1886 43.24 45.1121C43.24 46.0355 43.9886 46.7841 44.912 46.7841Z" fill="#2F9D7E"/>
<path d="M34.144 54.52H43.968C44.248 54.52 44.48 54.288 44.48 54.008V53.048C44.48 51.864 43.52 50.896 42.328 50.896H35.776C34.592 50.896 33.624 51.856 33.624 53.048V54.008C33.632 54.296 33.864 54.52 34.144 54.52Z" fill="#2F9D7E"/>
<path d="M56.624 40.7601L54.224 36.64C54.152 36.52 53.984 36.52 53.92 36.64L51.52 40.7601C51.248 41.1921 51.088 41.7041 51.072 42.2481C51.024 43.8961 52.392 45.32 54.04 45.336C55.712 45.352 57.072 44 57.072 42.336C57.072 41.76 56.904 41.2241 56.624 40.7601Z" fill="#2F9D7E"/>
<path d="M47.752 40.5681C46.696 40.4241 45.936 40.1921 45.28 39.8321C44.696 39.5201 44.16 39.0801 43.592 38.6161C43.424 38.4801 43.256 38.3441 43.088 38.2081C42.984 38.1201 42.848 38.0801 42.712 38.0801C42.576 38.0801 42.44 38.1281 42.336 38.2081C42.208 38.3121 42.128 38.4561 42.112 38.6161C42.096 38.7761 42.136 38.9361 42.24 39.0641C42.72 39.6801 43.488 40.5681 44.56 41.1601C45.056 41.4321 45.576 41.6241 46.12 41.7281C46.424 41.7921 46.752 41.8161 47.088 41.8161C47.304 41.8161 47.52 41.8001 47.744 41.7761C48.016 41.7441 48.24 41.5281 48.28 41.2561C48.312 40.9201 48.08 40.6081 47.752 40.5681Z" fill="#2F9D7E"/>
<path d="M35.416 38.072C35.28 38.072 35.144 38.12 35.04 38.2C34.872 38.336 34.704 38.472 34.536 38.608C33.968 39.072 33.432 39.512 32.848 39.816C32.192 40.184 31.432 40.408 30.376 40.552C30.096 40.592 29.88 40.808 29.848 41.088C29.808 41.424 30.048 41.72 30.384 41.76C30.608 41.784 30.824 41.8 31.04 41.8C31.376 41.8 31.696 41.768 32.008 41.712C32.544 41.616 33.08 41.416 33.568 41.144C34.64 40.552 35.408 39.664 35.888 39.048C36.064 38.824 36.064 38.512 35.888 38.296C35.776 38.16 35.6 38.072 35.416 38.072Z" fill="#2F9D7E"/>
</svg>
