<svg width="80" height="80" viewBox="0 0 80 80" fill="none" xmlns="http://www.w3.org/2000/svg">
<path d="M21.376 71.144C31.5557 71.144 39.808 62.8917 39.808 52.712C39.808 42.5323 31.5557 34.28 21.376 34.28C11.1963 34.28 2.944 42.5323 2.944 52.712C2.944 62.8917 11.1963 71.144 21.376 71.144Z" fill="#FFD645"/>
<path d="M57.088 48.864C67.2677 48.864 75.52 40.6117 75.52 30.432C75.52 20.2523 67.2677 12 57.088 12C46.9083 12 38.656 20.2523 38.656 30.432C38.656 40.6117 46.9083 48.864 57.088 48.864Z" fill="#FFD645"/>
<path d="M14.208 46.576C15.3391 46.576 16.256 45.6591 16.256 44.528C16.256 43.3969 15.3391 42.48 14.208 42.48C13.0769 42.48 12.16 43.3969 12.16 44.528C12.16 45.6591 13.0769 46.576 14.208 46.576Z" fill="#A67200"/>
<path d="M28.544 46.576C29.6751 46.576 30.592 45.6591 30.592 44.528C30.592 43.3969 29.6751 42.48 28.544 42.48C27.4129 42.48 26.496 43.3969 26.496 44.528C26.496 45.6591 27.4129 46.576 28.544 46.576Z" fill="#A67200"/>
<path d="M12.16 51.176C12.16 56.264 16.288 60.392 21.376 60.392C26.464 60.392 30.592 56.264 30.592 51.176H12.16Z" fill="#A67200"/>
<path d="M64.768 24.024C65.704 24.768 66.544 25.528 67.504 26.04C68.456 26.568 69.512 26.824 70.648 26.984H70.656C70.856 27.016 71 27.2 70.968 27.4C70.944 27.568 70.808 27.696 70.64 27.72C70.024 27.792 69.392 27.784 68.76 27.656C68.136 27.536 67.52 27.312 66.96 27.008C65.832 26.384 64.96 25.472 64.232 24.544C64.104 24.384 64.128 24.152 64.288 24.024C64.448 23.92 64.64 23.92 64.768 24.024Z" fill="#A67200"/>
<path d="M49.928 24.544C49.2 25.472 48.328 26.384 47.2 27.008C46.64 27.32 46.024 27.544 45.4 27.656C44.776 27.776 44.136 27.784 43.52 27.72C43.32 27.696 43.168 27.512 43.192 27.312C43.208 27.144 43.344 27.008 43.512 26.984H43.52C44.656 26.824 45.712 26.568 46.664 26.04C47.624 25.528 48.464 24.76 49.4 24.024C49.56 23.896 49.792 23.92 49.92 24.08C50.032 24.224 50.032 24.416 49.928 24.544Z" fill="#A67200"/>
<path d="M60.656 32.3119C61.392 32.8559 62.096 33.2559 62.824 33.4719C63.544 33.7039 64.28 33.7599 65.016 33.6879C65.752 33.6079 66.48 33.3999 67.2 33.0799C67.92 32.7599 68.624 32.3279 69.384 31.7919L69.392 31.7839C69.536 31.6879 69.728 31.7199 69.824 31.8639C69.88 31.9439 69.896 32.0399 69.864 32.1279C69.288 34.0479 67.352 35.5439 65.192 35.7199C64.12 35.8159 62.992 35.5759 62.08 35.0079C61.16 34.4479 60.472 33.5919 60.168 32.6399C60.112 32.4799 60.208 32.3039 60.368 32.2559C60.464 32.2239 60.568 32.2479 60.64 32.3039L60.656 32.3119Z" fill="#A67200"/>
<path d="M54 32.6409C53.696 33.5849 53 34.4489 52.088 35.0089C51.176 35.5769 50.048 35.8169 48.976 35.7209C46.816 35.5529 44.88 34.0489 44.304 32.1289C44.256 31.9689 44.352 31.7929 44.512 31.7449C44.608 31.7209 44.704 31.7369 44.776 31.7849L44.784 31.7929C45.544 32.3209 46.24 32.7609 46.968 33.0809C47.688 33.4009 48.416 33.6089 49.152 33.6889C49.888 33.7689 50.624 33.7049 51.344 33.4729C52.072 33.2489 52.776 32.8489 53.512 32.3129L53.52 32.3049C53.656 32.2009 53.848 32.2329 53.952 32.3689C54.016 32.4489 54.032 32.5529 54 32.6409Z" fill="#A67200"/>
<path d="M57.088 43.224C59.3502 43.224 61.184 42.7656 61.184 42.2C61.184 41.6345 59.3502 41.176 57.088 41.176C54.8258 41.176 52.992 41.6345 52.992 42.2C52.992 42.7656 54.8258 43.224 57.088 43.224Z" fill="#A67200"/>
</svg>
