<svg width="63" height="51" viewBox="0 0 63 51" fill="none" xmlns="http://www.w3.org/2000/svg">
<g clip-path="url(#clip0)">
<path d="M15.9968 50.9999C24.8316 50.9999 31.9936 43.8856 31.9936 35.1096C31.9936 26.3336 24.8316 19.2193 15.9968 19.2193C7.16201 19.2193 0 26.3336 0 35.1096C0 43.8856 7.16201 50.9999 15.9968 50.9999Z" fill="#FFD645"/>
<path d="M9.7747 29.8127C10.7575 29.8127 11.5543 29.0213 11.5543 28.045C11.5543 27.0687 10.7575 26.2773 9.7747 26.2773C8.79187 26.2773 7.99512 27.0687 7.99512 28.045C7.99512 29.0213 8.79187 29.8127 9.7747 29.8127Z" fill="#8D6400"/>
<path d="M22.2188 29.8127C23.2017 29.8127 23.9984 29.0213 23.9984 28.045C23.9984 27.0687 23.2017 26.2773 22.2188 26.2773C21.236 26.2773 20.4392 27.0687 20.4392 28.045C20.4392 29.0213 21.236 29.8127 22.2188 29.8127Z" fill="#8D6400"/>
<path d="M8.00172 33.787C8.00172 38.1741 11.5804 41.7353 16.0034 41.7353C20.4264 41.7353 24.005 38.1805 24.005 33.787H8.00172Z" fill="#8D6400"/>
<path d="M47.0034 31.7806C55.8382 31.7806 63.0002 24.6663 63.0002 15.8903C63.0002 7.11434 55.8382 0 47.0034 0C38.1686 0 31.0066 7.11434 31.0066 15.8903C31.0066 24.6663 38.1686 31.7806 47.0034 31.7806Z" fill="#FFD645"/>
<path d="M53.6737 10.3676C54.4856 11.0063 55.213 11.6709 56.0508 12.1096C56.8757 12.5676 57.7979 12.787 58.7787 12.9225H58.7852C58.9605 12.9483 59.0839 13.1096 59.0579 13.2838C59.0385 13.4321 58.9151 13.5418 58.7787 13.5547C58.2461 13.6128 57.694 13.6063 57.1485 13.5031C56.6029 13.3999 56.0703 13.2128 55.5897 12.9418C54.609 12.4063 53.8556 11.6128 53.2256 10.8128C53.1152 10.6773 53.1411 10.4709 53.2775 10.3612C53.3944 10.2773 53.5568 10.2773 53.6737 10.3676Z" fill="#8D6400"/>
<path d="M40.7879 10.8207C40.1514 11.6207 39.398 12.4078 38.4238 12.9497C37.9367 13.2142 37.4041 13.4078 36.865 13.511C36.3194 13.6142 35.7674 13.6207 35.2348 13.5626C35.0594 13.5432 34.9295 13.3819 34.949 13.2078C34.9685 13.0594 35.0789 12.9497 35.2218 12.9303H35.2283C36.2155 12.7948 37.1313 12.569 37.9561 12.1174C38.7875 11.6787 39.5214 11.0142 40.3333 10.3755C40.4696 10.2658 40.6775 10.2916 40.7879 10.4271C40.8788 10.5432 40.8723 10.7045 40.7879 10.8207Z" fill="#8D6400"/>
<path d="M50.1015 17.5096C50.738 17.9805 51.3485 18.3225 51.985 18.516C52.6085 18.716 53.2515 18.7676 53.888 18.7031C54.5244 18.6386 55.1609 18.4515 55.7844 18.1805C56.4144 17.9031 57.0185 17.5289 57.6809 17.0708L57.6874 17.0644C57.8108 16.9805 57.9797 17.0063 58.0641 17.1289C58.1096 17.1999 58.1226 17.2838 58.1031 17.3612C57.603 19.0192 55.9273 20.3096 54.0503 20.4579C53.1216 20.5418 52.1408 20.3354 51.3485 19.845C50.5561 19.3612 49.9521 18.6192 49.6858 17.8063C49.6403 17.6644 49.7183 17.516 49.8547 17.4708C49.9391 17.445 50.03 17.4579 50.095 17.5096H50.1015Z" fill="#8D6400"/>
<path d="M44.321 17.8C44.0548 18.6194 43.4572 19.3549 42.6584 19.8387C41.866 20.3291 40.8853 20.5355 39.9565 20.4516C38.0795 20.3033 36.3973 19.0129 35.9037 17.3549C35.8583 17.2129 35.9427 17.0646 36.0856 17.0258C36.17 17 36.248 17.0194 36.3129 17.0646L36.3259 17.071C36.9884 17.5291 37.5924 17.9033 38.2224 18.1807C38.8459 18.4516 39.4824 18.6387 40.1189 18.7033C40.7554 18.7678 41.3984 18.7162 42.0219 18.5162C42.6519 18.3226 43.2624 17.9807 43.9054 17.5097L43.9119 17.5033C44.0288 17.4194 44.1976 17.4387 44.2821 17.5613C44.3405 17.6323 44.347 17.7226 44.321 17.8Z" fill="#8D6400"/>
<path d="M47.0034 26.929C48.9655 26.929 50.5561 26.5332 50.5561 26.0451C50.5561 25.5569 48.9655 25.1612 47.0034 25.1612C45.0413 25.1612 43.4507 25.5569 43.4507 26.0451C43.4507 26.5332 45.0413 26.929 47.0034 26.929Z" fill="#8D6400"/>
</g>
<defs>
<clipPath id="clip0">
<rect width="63" height="51" fill="white"/>
</clipPath>
</defs>
</svg>
