<svg width="60" height="60" viewBox="0 0 60 60" fill="none" xmlns="http://www.w3.org/2000/svg">
<path d="M29.9344 52.272C40.5382 52.272 49.1344 45.4676 49.1344 37.074C49.1344 28.6804 40.5382 21.876 29.9344 21.876C19.3305 21.876 10.7344 28.6804 10.7344 37.074C10.7344 45.4676 19.3305 52.272 29.9344 52.272Z" fill="#FFAC98"/>
<path d="M15.1806 27.3539L14.9346 22.0919C14.9046 21.4679 15.5406 21.0299 16.1166 21.2879L21.9606 23.8859L15.1806 27.3539Z" fill="#FFAC98"/>
<path d="M14.4782 42.24L7.78223 40.422V33.726L14.4782 31.914V42.24Z" fill="#FFAC98"/>
<path d="M23.2744 54.5999H18.7864C18.3544 54.5999 18.0004 54.2699 17.9644 53.8379L17.4004 46.7219H24.0964V53.7719C24.0964 54.2279 23.7304 54.5999 23.2744 54.5999Z" fill="#FFAC98"/>
<path d="M42.0659 54.5999H37.5779C37.1219 54.5999 36.7559 54.2279 36.7559 53.7779V46.7219H43.4519L42.8939 53.8379C42.8579 54.2699 42.4979 54.5999 42.0659 54.5999Z" fill="#FFAC98"/>
<path d="M48.1199 34.2359C48.1199 34.2359 51.2039 34.5179 52.4039 33.4199C52.5959 33.2459 52.9139 33.4019 52.8959 33.6659C52.7639 35.5259 51.2579 36.8819 48.3659 37.1159C44.9699 37.3859 48.1199 34.2359 48.1199 34.2359Z" fill="#FFAC98"/>
<path d="M15.7497 33.81C16.4323 33.81 16.9857 33.2566 16.9857 32.574C16.9857 31.8914 16.4323 31.338 15.7497 31.338C15.067 31.338 14.5137 31.8914 14.5137 32.574C14.5137 33.2566 15.067 33.81 15.7497 33.81Z" fill="#E46759"/>
<path d="M36.7978 26.382C36.7018 26.382 36.6118 26.3579 36.5218 26.3159C36.4978 26.304 34.1038 25.1399 29.9878 25.1399C25.9378 25.1399 24.1558 26.268 24.1378 26.274C23.8558 26.46 23.4718 26.382 23.2798 26.094C23.0938 25.812 23.1718 25.4279 23.4538 25.2419C23.5378 25.1879 25.5178 23.8979 29.9878 23.8979C34.4158 23.8979 36.9718 25.1459 37.0738 25.1999C37.3798 25.3499 37.5058 25.7219 37.3498 26.028C37.2418 26.262 37.0258 26.382 36.7978 26.382Z" fill="#E46759"/>
<path d="M30.5759 5.40002C26.9698 5.40002 24.0479 8.32202 24.0479 11.928C24.0479 13.734 24.7799 15.366 25.9619 16.548L35.1959 7.31402C34.0139 6.13202 32.3819 5.40002 30.5759 5.40002Z" fill="#FE8470"/>
<path d="M35.1961 7.31403L25.9561 16.548C27.1381 17.73 28.7701 18.462 30.5761 18.462C34.1821 18.462 37.1041 15.54 37.1041 11.934C37.1041 10.128 36.3781 8.49603 35.1961 7.31403Z" fill="#E46759"/>
</svg>
