<svg width="150" height="150" viewBox="0 0 150 150" fill="none" xmlns="http://www.w3.org/2000/svg">
<path d="M116.625 130.5H33.375C28.2 130.5 24 126.3 24 121.125V28.875C24 23.7 28.2 19.5 33.375 19.5H116.625C121.8 19.5 126 23.7 126 28.875V121.125C126 126.3 121.8 130.5 116.625 130.5Z" fill="#FE8470"/>
<path d="M63 118.5C61.44 118.5 59.91 118.02 58.635 117.09C56.88 115.83 55.755 113.88 55.545 111.735C54.345 99.6904 65.895 88.7854 79.305 76.1704C78.09 76.8604 76.86 77.5654 75.63 78.2854C67.14 83.1754 58.365 88.2454 47.79 92.4604C45.33 93.4354 42.54 93.0454 40.455 91.4404C38.37 89.8354 37.26 87.2404 37.575 84.6154C39.6 67.2454 49.59 58.2754 59.49 51.0004C55.545 52.8604 51.81 55.2754 48.375 58.2154C45.225 60.9004 40.5 60.5404 37.8 57.3904C35.115 54.2404 35.49 49.5004 38.625 46.8154C51.885 35.4904 68.28 30.2104 86.055 31.5454C88.86 31.7554 91.305 33.5104 92.4 36.1054C93.495 38.6854 93.06 41.6704 91.26 43.8304C85.26 51.0304 78.255 56.0254 72.075 60.4354C67.545 63.6754 63.555 66.5104 60.36 69.7504C63 68.2804 65.58 66.7954 68.13 65.3254C79.35 58.8604 90.96 52.1704 105.255 48.7654C108.09 48.0904 111.06 49.1254 112.86 51.4054C114.66 53.6854 114.99 56.8204 113.685 59.4154C108.93 68.9254 99.165 78.1054 89.715 86.9854C86.19 90.2854 81.87 94.3504 78.21 98.2654C89.265 93.6754 98.595 87.7654 106.83 82.2754C110.28 79.9804 114.93 80.9104 117.225 84.3604C119.52 87.8104 118.59 92.4604 115.14 94.7554C101.91 103.575 86.01 113.4 64.665 118.32C64.125 118.44 63.57 118.5 63 118.5Z" fill="#FFCEC2"/>
</svg>
