<svg width="150" height="150" viewBox="0 0 150 150" fill="none" xmlns="http://www.w3.org/2000/svg">
<path d="M99.15 33.5251C105.465 41.4901 109.02 51.7501 108.315 62.8501C106.965 84.0751 89.835 101.295 68.61 102.72C59.715 103.32 51.345 101.19 44.265 97.0801C43.275 96.5101 42.15 97.5601 42.63 98.5951C50.535 115.515 67.905 127.11 87.93 126.555C113.37 125.85 134.145 105.15 134.955 79.7251C135.675 57.0901 120.87 37.8151 100.395 31.7101C99.315 31.3801 98.43 32.6401 99.15 33.5251Z" fill="#F1BD39"/>
<path d="M31.53 71.235L40.8 74.895C41.28 75.09 41.28 75.765 40.8 75.96L31.53 79.62L27.87 88.89C27.675 89.37 27 89.37 26.805 88.89L23.145 79.62L13.875 75.96C13.395 75.765 13.395 75.09 13.875 74.895L23.145 71.235L26.805 61.965C27 61.485 27.675 61.485 27.87 61.965L31.53 71.235Z" fill="#FFD645"/>
<path d="M68.91 39.5403L82.86 45.0453C83.58 45.3303 83.58 46.3653 82.86 46.6503L68.91 52.1553L63.405 66.1053C63.12 66.8253 62.085 66.8253 61.8 66.1053L56.295 52.1553L42.345 46.6503C41.625 46.3653 41.625 45.3303 42.345 45.0453L56.295 39.5403L61.8 25.5903C62.085 24.8703 63.12 24.8703 63.405 25.5903L68.91 39.5403Z" fill="#FFD645"/>
</svg>
