<svg width="100" height="100" viewBox="0 0 100 100" fill="none" xmlns="http://www.w3.org/2000/svg">
<path d="M66.1 22.35C70.31 27.66 72.68 34.5 72.21 41.9C71.31 56.05 59.89 67.53 45.74 68.48C39.81 68.88 34.23 67.46 29.51 64.72C28.85 64.34 28.1 65.04 28.42 65.73C33.69 77.01 45.27 84.74 58.62 84.37C75.58 83.9 89.43 70.1 89.97 53.15C90.45 38.06 80.58 25.21 66.93 21.14C66.21 20.92 65.62 21.76 66.1 22.35Z" fill="#FFD645"/>
<path d="M21.02 47.49L27.2 49.93C27.52 50.06 27.52 50.51 27.2 50.64L21.02 53.08L18.58 59.26C18.45 59.58 18 59.58 17.87 59.26L15.43 53.08L9.25001 50.64C8.93001 50.51 8.93001 50.06 9.25001 49.93L15.43 47.49L17.87 41.31C18 40.99 18.45 40.99 18.58 41.31L21.02 47.49Z" fill="#FEEAA4"/>
<path d="M45.94 26.36L55.24 30.03C55.72 30.22 55.72 30.91 55.24 31.1L45.94 34.77L42.27 44.07C42.08 44.55 41.39 44.55 41.2 44.07L37.53 34.77L28.23 31.1C27.75 30.91 27.75 30.22 28.23 30.03L37.53 26.36L41.2 17.06C41.39 16.58 42.08 16.58 42.27 17.06L45.94 26.36Z" fill="#FEEAA4"/>
</svg>
