<svg width="60" height="60" viewBox="0 0 60 60" fill="none" xmlns="http://www.w3.org/2000/svg">
<path d="M39.6596 13.4101C42.1856 16.5961 43.6076 20.7001 43.3256 25.1401C42.7856 33.6301 35.9336 40.5181 27.4436 41.0881C23.8856 41.3281 20.5376 40.4761 17.7056 38.8321C17.3096 38.6041 16.8596 39.0241 17.0516 39.4381C20.2136 46.2061 27.1616 50.8441 35.1716 50.6221C45.3476 50.3401 53.6576 42.0601 53.9816 31.8901C54.2696 22.8361 48.3476 15.1261 40.1576 12.6841C39.7256 12.5521 39.3716 13.0561 39.6596 13.4101Z" fill="#FE8470"/>
<path d="M12.6122 28.4941L16.3202 29.9581C16.5122 30.0361 16.5122 30.3061 16.3202 30.3841L12.6122 31.8481L11.1482 35.5561C11.0702 35.7481 10.8003 35.7481 10.7222 35.5561L9.25825 31.8481L5.55025 30.3841C5.35825 30.3061 5.35825 30.0361 5.55025 29.9581L9.25825 28.4941L10.7222 24.7861C10.8003 24.5941 11.0702 24.5941 11.1482 24.7861L12.6122 28.4941Z" fill="#FFAC98"/>
<path d="M27.5637 15.8159L33.1437 18.0179C33.4317 18.1319 33.4317 18.5459 33.1437 18.6599L27.5637 20.8619L25.3617 26.4419C25.2477 26.7299 24.8337 26.7299 24.7197 26.4419L22.5177 20.8619L16.9377 18.6599C16.6497 18.5459 16.6497 18.1319 16.9377 18.0179L22.5177 15.8159L24.7197 10.2359C24.8337 9.9479 25.2477 9.9479 25.3617 10.2359L27.5637 15.8159Z" fill="#FFAC98"/>
</svg>
