<svg id="Layer_1" enable-background="new 0 0 512 512" height="512" viewBox="0 0 512 512" width="512" xmlns="http://www.w3.org/2000/svg"><g><g><path d="m473.703 379.064c-24.389 52.547-67.35 93.596-120.957 115.613-28.137 11.549-57.664 17.323-87.191 17.323-29.967 0-59.924-5.954-88.411-17.842-27.678-11.558-52.337-28.032-73.028-48.491-21.61-21.358-38.893-47.042-50.788-75.973-23.28-56.663-23.1-118.99.52-175.513s67.85-100.459 124.535-123.735c6.237-2.607 13.424-2.447 19.611.489 5.847 2.757 10.266 7.632 12.445 13.716s1.859 12.657-.91 18.501c-21.311 45.684-22.47 98.691-3.159 145.344 8.966 21.668 21.78 41.019 37.693 57.302 16.843 17.242 37.174 31.049 60.124 40.559 44.28 18.362 93.039 18.521 137.409.479.28-.14.56-.26.84-.389 6.327-2.637 13.504-2.477 19.701.46 12.056 5.694 17.224 20.109 11.566 32.157z" fill="#ffd400"/><g fill="#5a5a5a"><path d="m461.006 64.272h-24.789l35.852-39.173c4.011-4.382 5.053-10.72 2.657-16.155-2.395-5.436-7.777-8.944-13.72-8.944h-58.824c-8.281 0-14.993 6.709-14.993 14.985s6.713 14.985 14.993 14.985h24.789l-35.852 39.173c-4.011 4.382-5.053 10.72-2.657 16.155 2.395 5.436 7.778 8.944 13.72 8.944h58.824c8.281 0 14.993-6.709 14.993-14.985s-6.712-14.985-14.993-14.985z"/><path d="m277.674 111.545c2.395 5.436 7.778 8.944 13.721 8.944h47.015c8.281 0 14.993-6.709 14.993-14.985s-6.713-14.985-14.993-14.985h-12.981l24.044-26.271c4.011-4.382 5.053-10.72 2.657-16.155-2.395-5.436-7.778-8.944-13.721-8.944h-47.015c-8.281 0-14.993 6.709-14.993 14.985s6.713 14.985 14.993 14.985h12.981l-24.044 26.271c-4.011 4.383-5.053 10.72-2.657 16.155z"/><path d="m374.631 199.711c2.395 5.436 7.778 8.944 13.721 8.944h47.015c8.281 0 14.993-6.709 14.993-14.985s-6.713-14.985-14.993-14.985h-12.981l24.044-26.271c4.011-4.382 5.053-10.72 2.657-16.155-2.395-5.436-7.778-8.944-13.721-8.944h-47.015c-8.281 0-14.993 6.709-14.993 14.985s6.713 14.985 14.993 14.985h12.981l-24.044 26.271c-4.011 4.383-5.053 10.72-2.657 16.155z"/></g></g><path d="m473.703 379.064c-24.389 52.547-67.35 93.596-120.957 115.613-28.137 11.549-57.664 17.323-87.191 17.323-29.967 0-59.924-5.954-88.411-17.842-27.678-11.558-52.337-28.032-73.028-48.491l139.948-139.869c16.843 17.242 37.174 31.049 60.124 40.559 44.28 18.362 93.039 18.521 137.409.479.28-.14.56-.26.84-.389 6.327-2.637 13.504-2.477 19.701.46 12.055 5.694 17.223 20.109 11.565 32.157z" fill="#ffbf00"/></g></svg>