<svg width="48" height="65" viewBox="0 0 48 65" fill="none" xmlns="http://www.w3.org/2000/svg">
<g clip-path="url(#clip0)">
<path d="M45.7501 65H2.2466C1.00643 65 0 64.014 0 62.7989V10.1945C0 8.97945 1.00643 7.9934 2.2466 7.9934H45.7501C46.9903 7.9934 47.9967 8.97945 47.9967 10.1945V62.7989C48 64.014 46.9936 65 45.7501 65Z" fill="#33A59A"/>
<path d="M43.4061 11.4065H4.59058V61.5839H43.4061V11.4065Z" fill="#A5E4DC"/>
<path d="M29.6375 4.00783H28.0856C28.0856 1.79398 26.2546 0 23.995 0C21.7354 0 19.9043 1.79398 19.9043 4.00783H18.3525C15.3462 4.00783 12.9081 6.39662 12.9081 9.34206L12.8107 11.3841H34.9812L35.0786 9.34206C35.0851 6.39662 32.647 4.00783 29.6375 4.00783ZM23.9982 2.12797C25.0566 2.12797 25.9137 2.9677 25.9137 4.00465C25.9137 5.04159 25.0566 5.88133 23.9982 5.88133C22.9399 5.88133 22.0828 5.04159 22.0828 4.00465C22.0828 2.9677 22.9399 2.12797 23.9982 2.12797Z" fill="#007B74"/>
<path d="M23.3034 50.1075C30.5938 50.1075 36.5038 44.3171 36.5038 37.1743C36.5038 30.0315 30.5938 24.2411 23.3034 24.2411C16.013 24.2411 10.103 30.0315 10.103 37.1743C10.103 44.3171 16.013 50.1075 23.3034 50.1075Z" fill="#65CEBF"/>
<path d="M18.1708 38.6407C18.9812 38.6407 19.6382 37.997 19.6382 37.2029C19.6382 36.4089 18.9812 35.7652 18.1708 35.7652C17.3603 35.7652 16.7033 36.4089 16.7033 37.2029C16.7033 37.997 17.3603 38.6407 18.1708 38.6407Z" fill="#007B74"/>
<path d="M28.4396 38.6407C29.25 38.6407 29.907 37.997 29.907 37.2029C29.907 36.4089 29.25 35.7652 28.4396 35.7652C27.6291 35.7652 26.9722 36.4089 26.9722 37.2029C26.9722 37.997 27.6291 38.6407 28.4396 38.6407Z" fill="#007B74"/>
<path d="M18.9986 45.2884H27.6149C27.8617 45.2884 28.063 45.0912 28.063 44.8495V44.0225C28.063 43.0046 27.2189 42.1776 26.18 42.1776H20.4336C19.3947 42.1776 18.5506 43.0046 18.5506 44.0225V44.8495C18.5474 45.0912 18.7486 45.2884 18.9986 45.2884Z" fill="#007B74"/>
<path d="M38.7018 33.4687L36.5981 29.9316C36.5364 29.8298 36.3903 29.8298 36.3286 29.9316L34.2248 33.4687C33.9878 33.844 33.845 34.2798 33.832 34.7474C33.7898 36.1628 34.991 37.3843 36.4357 37.4002C37.9032 37.4161 39.0979 36.2551 39.0979 34.8205C39.0979 34.3243 38.9518 33.8599 38.7018 33.4687Z" fill="#007B74"/>
<path d="M30.9231 33.2968C29.9946 33.1696 29.329 32.9755 28.7544 32.6638C28.2382 32.3935 27.7707 32.0181 27.274 31.6205C27.1279 31.5028 26.9818 31.3851 26.8325 31.2706C26.7383 31.1975 26.6214 31.1593 26.5013 31.1593C26.3812 31.1593 26.2643 31.2007 26.1702 31.2706C26.0598 31.3565 25.9884 31.4806 25.9721 31.6205C25.9559 31.7605 25.9948 31.8973 26.0825 32.0054C26.5046 32.5334 27.1766 33.2936 28.1148 33.8026C28.5466 34.0379 29.0076 34.2002 29.4849 34.286C29.7543 34.3369 30.04 34.3656 30.3322 34.3656C30.5205 34.3656 30.7121 34.356 30.9069 34.3338C31.1503 34.3083 31.3419 34.1238 31.3744 33.8884C31.4166 33.6022 31.2153 33.3382 30.9231 33.2968Z" fill="#007B74"/>
<path d="M20.109 31.1593C19.9888 31.1593 19.872 31.2007 19.7778 31.2738C19.6285 31.3915 19.4824 31.5092 19.3363 31.6237C18.8396 32.0213 18.3688 32.3966 17.8591 32.6638C17.2812 32.9755 16.6157 33.1728 15.6937 33.2968C15.4469 33.3318 15.2586 33.5195 15.2294 33.7548C15.197 34.0411 15.408 34.2988 15.7002 34.3338C15.895 34.356 16.0865 34.3656 16.2748 34.3656C16.567 34.3656 16.8527 34.3401 17.1254 34.286C17.5929 34.2002 18.0669 34.0348 18.4922 33.8026C19.4304 33.2936 20.1025 32.5302 20.5278 32.0022C20.6803 31.8114 20.6803 31.5442 20.5278 31.3533C20.4271 31.2293 20.2745 31.1593 20.109 31.1593Z" fill="#007B74"/>
</g>
<defs>
<clipPath id="clip0">
<rect width="48" height="65" fill="white"/>
</clipPath>
</defs>
</svg>
