<svg id="Capa_1" enable-background="new 0 0 512 512" height="512" viewBox="0 0 512 512" width="512" xmlns="http://www.w3.org/2000/svg"><g><path d="m467.89 401.23 21.57 86.27-97.32-48.66c-15.86 3.8-30.67 5.66-45.14 5.66-84.63 0-165-54.99-165-135 0-13.12 2.29-26.1 6.81-38.57l119.39-92.69c12.63-2.48 25.69-3.74 38.8-3.74 84.63 0 165 54.99 165 135 0 34.46-15.58 66.7-44.11 91.73z" fill="#ffde46"/><path d="m467.89 401.23 21.57 86.27-97.32-48.66c-15.86 3.8-30.67 5.66-45.14 5.66v-270c84.63 0 165 54.99 165 135 0 34.46-15.58 66.7-44.11 91.73z" fill="#ffb64c"/><g><path d="m165 24.5c-84.63 0-165 54.99-165 135 0 34.46 15.58 66.7 44.11 91.73l-21.57 86.27 97.32-48.66c15.86 3.8 30.67 5.66 45.14 5.66 84.63 0 165-54.99 165-135 0-78.57-78.56-135-165-135z" fill="#91e6a9"/></g><path d="m330 159.5c0 80.01-80.37 135-165 135v-270c86.44 0 165 56.43 165 135z" fill="#26bfa6"/><g><path d="m90 144.5h30v30h-30z" fill="#6f3c83"/></g><g><path d="m150 144.5h30v30h-30z" fill="#6f3c83"/><path d="m165 144.5h15v30h-15z" fill="#4a2f61"/></g><g><path d="m210 144.5h30v30h-30z" fill="#4a2f61"/></g><g><path d="m272 294.5h30v30h-30z" fill="#6f3c83"/></g><g><path d="m332 294.5h30v30h-30z" fill="#6f3c83"/></g><path d="m347 294.5h15v30h-15z" fill="#4a2f61"/><g><path d="m392 294.5h30v30h-30z" fill="#4a2f61"/></g></g></svg>