<svg width="90" height="90" viewBox="0 0 90 90" fill="none" xmlns="http://www.w3.org/2000/svg">
<g clip-path="url(#clip0)">
<path d="M17.8385 54.9066C18.8355 54.4465 19.3724 53.3323 19.0701 52.2768C18.4024 49.9311 18.046 47.4547 18.046 44.8971C18.046 31.4413 27.9172 20.2544 40.7975 18.1839C41.8848 18.008 42.6743 17.0607 42.6743 15.9646V2.29681C42.6743 0.948071 41.5013 -0.0939296 40.1614 0.0549277C17.5768 2.52235 0 21.6528 0 44.8925C0 49.9221 0.825605 54.7577 2.34147 59.2731C2.77006 60.5541 4.20472 61.1902 5.43185 60.6263L17.8385 54.9066Z" fill="#3C5DDD"/>
<path d="M49.1032 18.129C60.7835 19.8612 70.0546 29.0813 71.8592 40.7373C72.0307 41.8334 72.9736 42.6363 74.0834 42.6363H87.7397C89.0661 42.6363 90.1218 41.4951 89.9865 40.1779C87.7849 18.968 70.8802 2.12459 49.6401 0.00901689C48.3227 -0.121797 47.1903 0.933736 47.1903 2.25541V15.9007C47.1858 17.0148 48.0024 17.9666 49.1032 18.129Z" fill="#CFE3FF"/>
<path d="M50.5063 73.4408C50.2175 72.3672 49.1889 71.668 48.0881 71.7898C47.1136 71.8981 46.1211 71.9567 45.115 71.9567C35.6905 71.9567 27.3803 67.1121 22.5304 59.7865C21.9214 58.8663 20.7213 58.5415 19.7198 59.0016L7.31314 64.7213C6.08602 65.2852 5.63938 66.7873 6.33415 67.9466C14.2022 81.1498 28.6255 90 45.115 90C47.5377 90 49.9108 89.806 52.2297 89.4407C53.5651 89.2287 54.4268 87.9205 54.0749 86.6169L50.5063 73.4408Z" fill="#5784EE"/>
<path d="M71.8592 49.0327C70.4381 58.2483 64.3566 65.9438 56.1005 69.6246C55.0944 70.0757 54.5711 71.1989 54.8598 72.2634L58.4284 85.4441C58.7803 86.7432 60.1834 87.4424 61.4376 86.9552C76.8669 80.9648 88.1818 66.7332 89.9774 49.6642C90.1172 48.3245 89.0841 47.1517 87.7352 47.1517H74.0788C72.978 47.1472 72.0261 47.9456 71.8592 49.0327Z" fill="#7DB2FF"/>
</g>
<defs>
<clipPath id="clip0">
<rect width="90" height="90" fill="white"/>
</clipPath>
</defs>
</svg>
