    <?xml version="1.0" encoding="iso-8859-1"?>
<!-- Generator: Adobe Illustrator 19.0.0, SVG Export Plug-In . SVG Version: 6.00 Build 0)  -->
<svg version="1.1" id="Capa_1" xmlns="http://www.w3.org/2000/svg" xmlns:xlink="http://www.w3.org/1999/xlink" x="0px" y="0px"
	 viewBox="0 0 512 512" style="enable-background:new 0 0 512 512;" xml:space="preserve">
<path style="fill:#FFC850;" d="M227.02,286.134c-22.798-27.712-36.489-63.198-36.489-101.884c0-19.893,3.63-38.935,10.246-56.514
	c-12.238-3.166-25.04-4.934-38.228-5.101C74.209,121.516,1.027,192.868,0.011,281.21c-0.76,66.08,38.429,123.091,94.916,148.402
	c1.869,0.837,2.406,3.239,1.098,4.813l-39.11,47.053c-1.941,2.336-0.503,5.902,2.518,6.217
	c28.814,3.01,141.59,6.843,225.032-102.714c7.482-9.094,13.975-19.031,19.333-29.639C277.577,339.871,251.08,317.723,227.02,286.134
	z"/>
<g>
	<path style="fill:#E4EAF8;" d="M157.435,277.238H85.22c-4.263,0-7.719-3.456-7.719-7.719s3.456-7.719,7.719-7.719h72.215
		c4.263,0,7.719,3.456,7.719,7.719C165.154,273.782,161.698,277.238,157.435,277.238z"/>
	<path style="fill:#E4EAF8;" d="M208.664,322.364H85.22c-4.263,0-7.719-3.456-7.719-7.719s3.456-7.719,7.719-7.719h123.444
		c4.263,0,7.719,3.456,7.719,7.719C216.383,318.908,212.927,322.364,208.664,322.364z"/>
	<path style="fill:#E4EAF8;" d="M157.435,232.113H85.22c-4.263,0-7.719-3.456-7.719-7.719s3.456-7.719,7.719-7.719h72.215
		c4.263,0,7.719,3.456,7.719,7.719C165.154,228.657,161.698,232.113,157.435,232.113z"/>
	<path style="fill:#E4EAF8;" d="M208.664,367.49H85.22c-4.263,0-7.719-3.456-7.719-7.719s3.456-7.719,7.719-7.719h123.444
		c4.263,0,7.719,3.456,7.719,7.719S212.927,367.49,208.664,367.49z"/>
</g>
<path style="fill:#FF5050;" d="M416.769,331.234c58.582-26.249,95.958-84.687,95.22-148.878
	c-0.493-42.836-17.765-83.023-48.636-113.157c-30.897-30.16-71.526-46.456-114.424-45.927
	c-88.061,1.115-158.912,72.74-158.912,160.978c0,37.218,13,73.518,36.594,102.196c35.604,46.747,80.442,78.289,133.267,93.752
	c28.027,8.204,53.167,10.194,70.957,10.194c9.323,0,16.63-0.547,21.272-1.032c1.607-0.168,2.93-1.162,3.54-2.66
	c0.612-1.505,0.358-3.148-0.68-4.397l-39.109-47.053c-0.525-0.631-0.719-1.453-0.534-2.253
	C415.506,332.205,416.034,331.563,416.769,331.234z"/>
<path style="fill:#E1A546;" d="M80.017,487.696c-3.021-0.315-4.46-3.881-2.518-6.217l39.109-47.053
	c1.309-1.574,0.771-3.976-1.098-4.813c-56.487-25.311-95.676-82.321-94.915-148.402c0.967-84.158,67.427-152.895,150.094-158.251
	c-2.697-0.17-5.408-0.29-8.14-0.325C74.209,121.516,1.027,192.868,0.011,281.21c-0.76,66.081,38.429,123.091,94.915,148.402
	c1.869,0.837,2.406,3.239,1.098,4.813l-39.109,47.053c-1.942,2.336-0.503,5.902,2.518,6.217c6.616,0.691,17.669,1.422,31.769,0.817
	C86.7,488.31,82.925,488,80.017,487.696z"/>
<path style="fill:#F24646;" d="M380.462,380.198c-52.825-15.463-97.663-47.005-133.267-93.752
	C163.498,184.71,231.525,31.777,361.249,23.587c-4.081-0.258-8.189-0.367-12.319-0.316c-88.061,1.115-158.912,72.74-158.912,160.978
	c0,37.218,13,73.518,36.594,102.196c35.604,46.747,80.442,78.289,133.267,93.752c28.027,8.204,53.167,10.194,70.957,10.194
	c3.734,0,7.138-0.088,10.184-0.225C424.395,389.461,403.398,386.911,380.462,380.198z"/>
<path style="fill:#E4EAF8;" d="M392.834,144.713c0,5.164-0.928,9.831-2.78,14.002c-10.805,24.284-29.25,23.135-30.388,43.297
	c-0.534,9.288,1.579,14.995-10.129,14.995c-7.325,0-9.136-3.614-9.136-11.122c0-33.527,19.62-31.383,29.295-49.355
	c5.457-10.133,1.726-26.117-18.371-26.117c-4.9,0-8.574,0.729-11.023,2.185c-9.545,5.679-8.386,11.519-14.995,11.519
	c-2.253,0-4.469-0.76-6.654-2.284c-5.128-3.569-5.031-14.129,5.959-22.542C345.877,102.989,392.834,110.546,392.834,144.713z
	 M349.736,231.308c7.466,0,13.505,6.046,13.505,13.505c0,6.894-5.463,13.505-13.505,13.505c-8.009,0-13.307-6.586-13.307-13.505
	C336.429,237.411,342.205,231.308,349.736,231.308z"/>
<g>
</g>
<g>
</g>
<g>
</g>
<g>
</g>
<g>
</g>
<g>
</g>
<g>
</g>
<g>
</g>
<g>
</g>
<g>
</g>
<g>
</g>
<g>
</g>
<g>
</g>
<g>
</g>
<g>
</g>
</svg>
