<svg id="Capa_1" enable-background="new 0 0 512 512" height="512" viewBox="0 0 512 512" width="512" xmlns="http://www.w3.org/2000/svg"><g><path d="m256 30h-195v482h195 195v-482z" fill="#ff6c6c"/><path d="m256 30h195v482h-195z" fill="#e63950"/><path d="m316 60-30-30h-30-30l-30 30h-105v422h165 165v-422z" fill="#f0f7ff"/><path d="m421 60h-105l-30-30h-30v452h165z" fill="#dfe7f4"/><g fill="#c7cfe1"><path d="m271 121h120v30h-120z"/><path d="m271 181h60v30h-60z"/><path d="m271 241h120v30h-120z"/><path d="m271 301h60v30h-60z"/><path d="m271 361h120v30h-120z"/><path d="m271 421h60v30h-60z"/></g><path d="m211 211h-90v-90h90z" fill="#97de3d"/><path d="m211 331h-90v-90h90z" fill="#97de3d"/><path d="m211 451h-90v-90h90z" fill="#97de3d"/><path d="m151 151h30v30h-30z" fill="#f0f7ff"/><path d="m151 271h30v30h-30z" fill="#f0f7ff"/><path d="m151 391h30v30h-30z" fill="#f0f7ff"/><path d="m256 0h-60v60h60 60v-60z" fill="#474f54"/><path d="m256 0h60v60h-60z" fill="#32393f"/></g></svg>