<svg width="24" height="24" viewBox="0 0 24 24" fill="none" xmlns="http://www.w3.org/2000/svg">
<path d="M13.5 22.53C12.64 22.53 11.79 22.2 11.14 21.55L3.52 13.93C2.55 12.97 2 11.63 2 10.26V5.31C2 3.49 3.49 2 5.31 2H10.26C11.63 2 12.97 2.55 13.93 3.52L21.55 11.14C22.85 12.44 22.85 14.56 21.55 15.86L15.86 21.55C15.21 22.2 14.36 22.53 13.5 22.53ZM5.31 4C4.59 4 4 4.59 4 5.31V10.26C4 11.1 4.34 11.92 4.94 12.52L12.56 20.14C13.08 20.66 13.93 20.66 14.46 20.14L20.15 14.45C20.67 13.93 20.67 13.08 20.15 12.55L12.53 4.93C11.93 4.34 11.1 4 10.26 4H5.31Z" fill="#4C66D6"/>
<path d="M8.49994 7.5C8.75994 7.5 9.00994 7.6 9.20994 7.79C9.59994 8.18 9.59994 8.81 9.20994 9.2C9.00994 9.4 8.75994 9.5 8.49994 9.5C8.23994 9.5 7.98994 9.4 7.78994 9.21C7.39994 8.82 7.39994 8.19 7.78994 7.8C7.98994 7.6 8.23994 7.5 8.49994 7.5ZM8.49994 5.5C7.69994 5.5 6.94994 5.81 6.37994 6.38C5.20994 7.55 5.20994 9.45 6.37994 10.62C6.94994 11.19 7.69994 11.5 8.49994 11.5C9.29994 11.5 10.0499 11.19 10.6199 10.62C11.7899 9.45 11.7899 7.55 10.6199 6.38C10.0499 5.81 9.29994 5.5 8.49994 5.5Z" fill="#4C66D6"/>
</svg>
