<svg width="24" height="24" viewBox="0 0 24 24" fill="none" xmlns="http://www.w3.org/2000/svg">
<path d="M7.32 2L19.12 2C20.71 2 22 3.29 22 4.88L22 11.12C22 12.71 20.71 14 19.12 14L16.69 14L13.93 21.35C13.79 21.74 13.42 22 13 22C10.46 22 9 20.54 9 18L9 16L3.94 16C3.16 16 2.44 15.65 1.96 15.03C1.48 14.41 1.31 13.63 1.5 12.87L3.47 5C3.91 3.24 5.5 2 7.32 2ZM15 4L7.32 4C6.41 4 5.62 4.62 5.4 5.5L3.43 13.37C3.38 13.58 3.47 13.74 3.52 13.81C3.58 13.88 3.71 14.01 3.92 14.01L10 14.01C10.55 14.01 11 14.46 11 15.01L11 18C11 19.19 11.38 19.78 12.33 19.95L15 12.82L15 4ZM19.12 12C19.61 12 20 11.61 20 11.12L20 4.88C20 4.39 19.61 4 19.12 4L17 4L17 12L19.12 12Z" fill="black"/>
</svg>
