<svg width="24" height="24" viewBox="0 0 24 24" fill="none" xmlns="http://www.w3.org/2000/svg">
<path d="M16.68 22H4.88C3.29 22 2 20.71 2 19.12V12.88C2 11.29 3.29 10 4.88 10H7.31L10.07 2.65C10.21 2.26 10.58 2 11 2C13.54 2 15 3.46 15 6V8H20.06C20.84 8 21.56 8.35 22.04 8.97C22.52 9.59 22.69 10.37 22.5 11.13L20.53 19C20.09 20.76 18.5 22 16.68 22ZM9 20H16.68C17.59 20 18.38 19.38 18.6 18.5L20.57 10.63C20.62 10.42 20.53 10.26 20.48 10.19C20.42 10.12 20.29 9.99 20.08 9.99H14C13.45 9.99 13 9.54 13 8.99V6C13 4.81 12.62 4.22 11.67 4.05L9 11.18V20ZM4.88 12C4.39 12 4 12.39 4 12.88V19.12C4 19.61 4.39 20 4.88 20H7V12H4.88Z" fill="black" fill-opacity="0.75"/>
</svg>
