<svg width="24" height="24" viewBox="0 0 24 24" fill="none" xmlns="http://www.w3.org/2000/svg">
<path d="M12 1C5.93 1 1 5.93 1 12C1 18.07 5.93 23 12 23C18.07 23 23 18.07 23 12C23 5.93 18.07 1 12 1ZM12 3C16.96 3 21 7.04 21 12C21 13.93 20.38 15.72 19.34 17.18C17.68 15.22 14.95 14 12 14C9.03 14 6.32 15.22 4.66 17.19C3.62 15.72 3 13.93 3 12C3 7.04 7.04 3 12 3ZM5.99 18.68C7.25 17.03 9.5 16 12 16C14.48 16 16.75 17.04 18 18.69C16.41 20.12 14.31 21 12 21C9.69 21 7.59 20.12 5.99 18.68Z" fill="black" fill-opacity="0.4"/>
<path d="M12 13C14.21 13 16 11.21 16 9C16 6.79 14.21 5 12 5C9.79 5 8 6.79 8 9C8 11.21 9.79 13 12 13ZM12 7C13.1 7 14 7.9 14 9C14 10.1 13.1 11 12 11C10.9 11 10 10.1 10 9C10 7.9 10.9 7 12 7Z" fill="black" fill-opacity="0.4"/>
</svg>
