<svg xmlns="http://www.w3.org/2000/svg" width="84" height="84" viewBox="0 0 84 84">
  <g id="Group_2" data-name="Group 2" transform="translate(-316 -327)">
    <g id="Ellipse_1" data-name="Ellipse 1" transform="translate(316 327)" fill="#2e8bfe" stroke="#000" stroke-width="2">
      <circle cx="42" cy="42" r="42" stroke="none"/>
      <circle cx="42" cy="42" r="41" fill="none"/>
    </g>
    <g id="Group_1" data-name="Group 1" transform="translate(0.278 -0.489)">
      <path id="Rectangle_1" data-name="Rectangle 1" d="M0,0H30a5,5,0,0,1,5,5V26a0,0,0,0,1,0,0H3a3,3,0,0,1-3-3V0A0,0,0,0,1,0,0Z" transform="translate(334 356)" fill="#fff"/>
      <path id="Path_1" data-name="Path 1" d="M369.443,364.512l10.393-7.662s2.276-1.138,2.352,1.745,0,22.607,0,22.607-.91,2.5-2.807.759-9.938-7.283-9.938-7.283Z" fill="#fff"/>
      <path id="Union_1" data-name="Union 1" d="M6.522,29.022a5.965,5.965,0,0,1-5.617-3.3A8.462,8.462,0,0,1,0,22.549V0H17.25a1,1,0,0,1,0,2H2V22.469a6.49,6.49,0,0,0,.7,2.381,3.98,3.98,0,0,0,3.818,2.174H34.069c.3-.05,1.517-.323,1.517-1.444V8.958l0-.042a7.314,7.314,0,0,0-1.636-4.987A6.988,6.988,0,0,0,28.587,2h-5.4a1,1,0,0,1,0-2h5.4a8.873,8.873,0,0,1,6.851,2.588A8.859,8.859,0,0,1,37.58,8l8.726-6.475L46.36,1.5a3.22,3.22,0,0,1,2.949-.176,3,3,0,0,1,1.247,2.822v13.1h-2V4.143c0-.746-.167-1.041-.256-1.094a1.361,1.361,0,0,0-.915.167l-9.8,7.271v8.937l10.348,7.341a.952.952,0,0,0,.49.07,1.274,1.274,0,0,0,.132-.715V21.979h2v4.142a2.625,2.625,0,0,1-1.07,2.41,2.136,2.136,0,0,1-1.152.315,3.265,3.265,0,0,1-1.328-.3l-.075-.036-9.345-6.629v3.7a3.219,3.219,0,0,1-1.733,2.9,4.692,4.692,0,0,1-1.591.536l-.059.006Z" transform="translate(332.722 354.489)"/>
    </g>
  </g>
</svg>
