<svg width="40" height="40" viewBox="0 0 40 40" fill="none" xmlns="http://www.w3.org/2000/svg">
<path d="M31.62 15.644C30.056 17.208 30.144 19.832 30.144 19.832C30.144 19.832 32.768 19.92 34.332 18.356C35.896 16.792 35.808 14.168 35.808 14.168C35.808 14.168 33.188 14.08 31.62 15.644Z" fill="#7DB2FF"/>
<path d="M29.5841 33.764C33.3484 33.764 36.4001 30.7123 36.4001 26.948C36.4001 23.1836 33.3484 20.132 29.5841 20.132C25.8197 20.132 22.7681 23.1836 22.7681 26.948C22.7681 30.7123 25.8197 33.764 29.5841 33.764Z" fill="#7DB2FF"/>
<path d="M6.28785 33.764H19.6958L21.0398 17.056H4.94385L6.28785 33.764Z" fill="#618EF7"/>
<path d="M4.19189 7.72797L4.94389 17.056H21.0399L21.7919 7.72797H4.19189Z" fill="#A3CFFF"/>
</svg>
