<svg width="60" height="60" viewBox="0 0 60 60" fill="none" xmlns="http://www.w3.org/2000/svg">
<path d="M46.7516 51H13.2476C11.2316 51 9.59961 49.368 9.59961 47.352V12.648C9.59961 10.632 11.2316 9 13.2476 9H46.7576C48.7736 9 50.4056 10.632 50.4056 12.648V47.358C50.3996 49.368 48.7676 51 46.7516 51Z" fill="#FE8470"/>
<path d="M41.3516 19.65C41.3756 19.5 41.3996 19.35 41.3996 19.188V16.812C41.3996 15.15 40.0496 13.8 38.3876 13.8H21.6116C19.9496 13.8 18.5996 15.15 18.5996 16.812V19.188C18.5996 19.344 18.6236 19.494 18.6476 19.65C21.5696 16.776 25.5776 15 29.9996 15C34.4216 15 38.4296 16.776 41.3516 19.65Z" fill="#FFAC98"/>
<path d="M21.6115 22.2H38.3875C39.8935 22.2 41.1295 21.09 41.3515 19.65C38.4295 16.776 34.4215 15 29.9995 15C25.5775 15 21.5695 16.776 18.6475 19.65C18.8695 21.09 20.1055 22.2 21.6115 22.2Z" fill="#FFEFEC"/>
<path d="M29.4004 22.2H30.6004V16.2C30.6004 15.87 30.3664 15.6 30.0004 15.6C29.6344 15.6 29.4004 15.87 29.4004 16.2V22.2Z" fill="#E46759"/>
</svg>
