<svg width="100" height="100" viewBox="0 0 100 100" fill="none" xmlns="http://www.w3.org/2000/svg">
<path d="M88.03 36.62C87.56 27.13 79.88 19.4 70.39 18.87C64.87 18.56 59.84 20.64 56.23 24.17V24.15L50.57 29.81L44.91 24.15V24.17C41.29 20.64 36.26 18.56 30.74 18.87C21.25 19.4 13.58 27.13 13.1 36.62C12.82 42.19 14.97 47.26 18.59 50.86L18.51 50.89L49.97 82.35C50.3 82.68 50.83 82.68 51.15 82.35L82.61 50.89L82.53 50.86C86.15 47.26 88.31 42.19 88.03 36.62Z" fill="#FFD645"/>
<path d="M10.81 54.01H34.82L39.56 35.17L45.47 66.74L52.64 44.82L58.36 60.21L63.06 53.56H89" stroke="#B5882B" stroke-width="3" stroke-miterlimit="10" stroke-linecap="round" stroke-linejoin="round"/>
</svg>
