<svg width="150" height="150" viewBox="0 0 150 150" fill="none" xmlns="http://www.w3.org/2000/svg">
<path d="M132.045 54.9299C131.34 40.6949 119.82 29.0999 105.585 28.3049C97.305 27.8399 89.76 30.9599 84.345 36.2549V36.2249L75.855 44.7149L67.365 36.2249V36.2549C61.935 30.9599 54.39 27.8399 46.11 28.3049C31.875 29.0999 20.37 40.6949 19.65 54.9299C19.23 63.2849 22.455 70.8899 27.885 76.2899L27.765 76.3349L74.955 123.525C75.45 124.02 76.245 124.02 76.725 123.525L123.915 76.3349L123.795 76.2899C129.225 70.8899 132.465 63.2849 132.045 54.9299Z" fill="#FFD645"/>
<path d="M68.205 102.36C68.16 102.36 68.1 102.36 68.055 102.36C67.035 102.3 66.18 101.535 65.985 100.53L59.01 63.2851L54.405 81.5851C54.15 82.5901 53.25 83.2801 52.23 83.2801H16.215C14.97 83.2801 13.965 82.2751 13.965 81.0301C13.965 79.7851 14.97 78.7801 16.215 78.7801H50.475L57.15 52.2151C57.405 51.1951 58.35 50.4751 59.4 50.5201C60.45 50.5501 61.35 51.3151 61.545 52.3501L68.79 91.0651L76.815 66.5401C77.115 65.6251 77.955 65.0101 78.915 64.9951C78.93 64.9951 78.945 64.9951 78.96 64.9951C79.905 64.9951 80.745 65.5801 81.075 66.4651L88.17 85.5601L92.76 79.0651C93.18 78.4651 93.87 78.1201 94.605 78.1201H133.5C134.745 78.1201 135.75 79.1251 135.75 80.3701C135.75 81.6151 134.745 82.6201 133.5 82.6201H95.76L89.385 91.6501C88.905 92.3251 88.08 92.6851 87.255 92.5801C86.43 92.4751 85.725 91.9201 85.44 91.1401L79.11 74.0851L70.335 100.8C70.035 101.73 69.165 102.36 68.205 102.36Z" fill="#D2961F"/>
</svg>
