<svg id="Layer_1" data-name="Layer 1" xmlns="http://www.w3.org/2000/svg" xmlns:xlink="http://www.w3.org/1999/xlink" viewBox="0 0 900 900"><defs><style>.cls-1{fill:#6d6d6d;}</style><symbol id="New_Symbol" data-name="New Symbol" viewBox="0 0 224.7 259.52"><circle class="cls-1" cx="20.57" cy="128.18" r="20.57"/><circle class="cls-1" cx="110.77" cy="132.92" r="15.82"/><circle class="cls-1" cx="82.29" cy="36.4" r="36.4"/><circle class="cls-1" cx="164.57" cy="216.79" r="23.74"/><circle class="cls-1" cx="202.55" cy="109.19" r="22.15"/><circle class="cls-1" cx="47.47" cy="218.37" r="41.14"/></symbol></defs><use width="224.7" height="259.52" transform="matrix(-0.01, 1, -1, -0.01, 1061.72, -14.6)" xlink:href="#New_Symbol"/><use width="224.7" height="259.52" transform="matrix(-0.01, 1, -1, -0.01, 1033.76, 449.97)" xlink:href="#New_Symbol"/><use width="224.7" height="259.52" transform="matrix(-0.01, 1, -1, -0.01, 687.75, 388.34)" xlink:href="#New_Symbol"/><use width="224.7" height="259.52" transform="matrix(-0.01, 1, -1, -0.01, 463.81, 228.06)" xlink:href="#New_Symbol"/><use width="224.7" height="259.52" transform="matrix(-0.01, 1, -1, -0.01, 694.2, 695.03)" xlink:href="#New_Symbol"/><use width="224.7" height="259.52" transform="matrix(-0.01, 1, -1, -0.01, 501.37, 696.61)" xlink:href="#New_Symbol"/><use width="224.7" height="259.52" transform="matrix(-0.01, 1, -1, -0.01, 659.14, 75.04)" xlink:href="#New_Symbol"/><use width="224.7" height="259.52" transform="matrix(-0.01, 1, -1, -0.01, 745.15, 33.78)" xlink:href="#New_Symbol"/><use width="224.7" height="259.52" transform="matrix(-0.01, 1, -1, -0.01, 354.13, -31.97)" xlink:href="#New_Symbol"/><use width="224.7" height="259.52" transform="matrix(-0.01, 1, -1, -0.01, 216.73, 305.62)" xlink:href="#New_Symbol"/><use width="224.7" height="259.52" transform="matrix(-0.01, 1, -1, -0.01, 219.38, 592.2)" xlink:href="#New_Symbol"/><use width="224.7" height="259.52" transform="matrix(-0.01, 1, -1, -0.01, 419.48, 474.86)" xlink:href="#New_Symbol"/><use width="224.7" height="259.52" transform="matrix(-0.01, 1, -1, -0.01, 956.75, 198.82)" xlink:href="#New_Symbol"/><use width="224.7" height="259.52" transform="matrix(-0.01, 1, -1, -0.01, 1004.37, 797.41)" xlink:href="#New_Symbol"/><ellipse class="cls-1" cx="689.12" cy="646.8" rx="26.11" ry="28.48"/><circle class="cls-1" cx="786.44" cy="718.01" r="14.24"/><circle class="cls-1" cx="855.27" cy="722.76" r="28.48"/><circle class="cls-1" cx="74.35" cy="214.8" r="26.11"/><circle class="cls-1" cx="138.44" cy="236.16" r="16.62"/><circle class="cls-1" cx="24.51" cy="65.26" r="30.86"/><circle class="cls-1" cx="50.62" cy="141.22" r="14.24"/></svg>