<svg id="Layer_1" data-name="Layer 1" xmlns="http://www.w3.org/2000/svg" xmlns:xlink="http://www.w3.org/1999/xlink" viewBox="0 0 900 900"><defs><style>.cls-1{fill:none;}.cls-2{fill:#d0a981;stroke:#231f20;stroke-width:0.5px;}.cls-3{fill:url(#Perl_Color);}</style><pattern id="Perl_Color" data-name="Perl Color" width="42.75" height="77.14" patternUnits="userSpaceOnUse" viewBox="0 0 42.75 77.14"><rect class="cls-1" width="42.75" height="77.14"/><path class="cls-2" d="M42.75,87.83l4.3,4.3L57.74,81.44a6.09,6.09,0,0,0,0-8.6Z"/><path class="cls-2" d="M21.38,87.83l4.3,4.3L36.36,81.44a6.07,6.07,0,0,0,0-8.6Z"/><path class="cls-2" d="M0,87.83l4.3,4.3L15,81.44a6.09,6.09,0,0,0,0-8.6Z"/><path class="cls-2" d="M42.75,49.26l4.3,4.3L57.74,42.87a6.09,6.09,0,0,0,0-8.6Z"/><path class="cls-2" d="M42.75,10.69l4.3,4.3L57.74,4.3a6.09,6.09,0,0,0,0-8.6Z"/><path class="cls-2" d="M42.75,27.88l-4.3-4.3L27.77,34.27a6.07,6.07,0,0,0,0,8.6Z"/><path class="cls-2" d="M42.75,66.45l-4.3-4.3L27.77,72.84a6.07,6.07,0,0,0,0,8.6Z"/><path class="cls-2" d="M21.38,27.88l-4.3-4.3L6.39,34.27a6.09,6.09,0,0,0,0,8.6Z"/><path class="cls-2" d="M21.38,66.45l-4.3-4.3L6.39,72.84a6.09,6.09,0,0,0,0,8.6Z"/><path class="cls-2" d="M32.07,47.17l4.29-4.3L47.05,53.56a6.06,6.06,0,0,1,0,8.59Z"/><path class="cls-2" d="M10.69,47.17l4.3-4.3L25.68,53.56a6.08,6.08,0,0,1,0,8.59Z"/><path class="cls-2" d="M32.07,8.6l4.29-4.3L47.05,15a6.06,6.06,0,0,1,0,8.59Z"/><path class="cls-2" d="M10.69,8.6,15,4.3,25.68,15a6.08,6.08,0,0,1,0,8.59Z"/><path class="cls-2" d="M21.38,49.26l4.3,4.3L36.36,42.87a6.07,6.07,0,0,0,0-8.6Z"/><path class="cls-2" d="M0,49.26l4.3,4.3L15,42.87a6.09,6.09,0,0,0,0-8.6Z"/><path class="cls-2" d="M21.38,10.69l4.3,4.3L36.36,4.3a6.07,6.07,0,0,0,0-8.6Z"/><path class="cls-2" d="M0,10.69,4.3,15,15,4.3a6.09,6.09,0,0,0,0-8.6Z"/><path class="cls-2" d="M53.44,68.54l-4.29,4.3L38.45,62.15a6.08,6.08,0,0,1,0-8.59Z"/><path class="cls-2" d="M32.07,68.54l-4.3,4.3L17.08,62.15a6.06,6.06,0,0,1,0-8.59Z"/><path class="cls-2" d="M53.44,30l-4.29,4.3L38.45,23.58a6.08,6.08,0,0,1,0-8.59Z"/><path class="cls-2" d="M32.07,30l-4.3,4.3L17.08,23.58a6.06,6.06,0,0,1,0-8.59Z"/><path class="cls-2" d="M0,27.88l-4.3-4.3L-15,34.27a6.09,6.09,0,0,0,0,8.6Z"/><path class="cls-2" d="M0,66.45l-4.3-4.3L-15,72.84a6.09,6.09,0,0,0,0,8.6Z"/><path class="cls-2" d="M-10.69,47.17l4.3-4.3L4.3,53.56a6.08,6.08,0,0,1,0,8.59Z"/><path class="cls-2" d="M-10.69,8.6l4.3-4.3L4.3,15a6.08,6.08,0,0,1,0,8.59Z"/><path class="cls-2" d="M10.69,68.54l-4.3,4.3L-4.3,62.15a6.08,6.08,0,0,1,0-8.59Z"/><path class="cls-2" d="M10.69,30l-4.3,4.3L-4.3,23.58A6.08,6.08,0,0,1-4.3,15Z"/><path class="cls-2" d="M42.75-10.69,38.45-15,27.77-4.3a6.07,6.07,0,0,0,0,8.6Z"/><path class="cls-2" d="M21.38-10.69,17.08-15,6.39-4.3a6.09,6.09,0,0,0,0,8.6Z"/><path class="cls-2" d="M0-10.69-4.3-15-15-4.3a6.09,6.09,0,0,0,0,8.6Z"/></pattern></defs><rect class="cls-3" x="0.77" y="2.35" width="895.65" height="900.4"/></svg>