<svg id="Layer_1" data-name="Layer 1" xmlns="http://www.w3.org/2000/svg" xmlns:xlink="http://www.w3.org/1999/xlink" viewBox="0 0 900 900"><defs><style>.cls-1{fill:none;}.cls-2{fill:#f8be8b;stroke:#c1832c;stroke-linejoin:bevel;stroke-width:0.3px;}.cls-3{fill:url(#Knit_Color);}</style><pattern id="Knit_Color" data-name="Knit Color" width="75.75" height="75.56" patternUnits="userSpaceOnUse" viewBox="0 0 75.75 75.56"><rect class="cls-1" width="75.75" height="75.56"/><path class="cls-2" d="M69.65,92.9a6.32,6.32,0,0,1,6.11-4.75,6.31,6.31,0,0,0,6.1-4.73c.48-1.75-.27-3.63,1.89-7.9a12.86,12.86,0,0,0,4.82,4.73,5.67,5.67,0,0,0-.17,1.86A12.69,12.69,0,0,1,69.65,92.9Z"/><path class="cls-2" d="M50.69,70.81a6.34,6.34,0,0,0,6.11,4.75,6.31,6.31,0,0,1,6.1,4.73c.48,1.75-.27,3.62,1.9,7.9a13.34,13.34,0,0,1,4.81-4.73,5.7,5.7,0,0,1-.17-1.86A12.69,12.69,0,0,0,50.69,70.81Z"/><path class="cls-2" d="M12.81,70.81a6.34,6.34,0,0,0,6.11,4.75A6.33,6.33,0,0,1,25,80.29c.47,1.75-.28,3.62,1.89,7.9a13.23,13.23,0,0,1,4.81-4.73,5.79,5.79,0,0,1-.16-1.86A12.7,12.7,0,0,0,12.81,70.81Z"/><path class="cls-2" d="M69.65,92.9a6.31,6.31,0,0,1,6.1-4.75,6.32,6.32,0,0,0,6.11-4.73c.48-1.75-.27-3.63,1.89-7.9a12.86,12.86,0,0,0,4.82,4.73,5.4,5.4,0,0,0-.17,1.86A12.69,12.69,0,0,1,69.65,92.9Z"/><path class="cls-2" d="M31.77,92.9a6.33,6.33,0,0,1,6.11-4.75A6.31,6.31,0,0,0,44,83.42c.48-1.75-.27-3.63,1.9-7.9a12.81,12.81,0,0,0,4.81,4.73,5.75,5.75,0,0,0-.16,1.86A12.7,12.7,0,0,1,31.77,92.9Z"/><path class="cls-2" d="M-6.11,92.9A6.33,6.33,0,0,1,0,88.15a6.33,6.33,0,0,0,6.11-4.73c.47-1.75-.28-3.63,1.89-7.9a12.78,12.78,0,0,0,4.82,4.73,5.4,5.4,0,0,0-.17,1.86A12.7,12.7,0,0,1-6.11,92.9Z"/><path class="cls-2" d="M62.9,80.29a6.34,6.34,0,0,0-6.11-4.75,6.31,6.31,0,0,1-6.1-4.73c-.48-1.75.27-3.62-1.9-7.89A12.72,12.72,0,0,1,44,67.64a5.7,5.7,0,0,1,.17,1.86A12.69,12.69,0,0,0,62.9,80.29Z"/><path class="cls-2" d="M25,80.29a6.35,6.35,0,0,0-6.12-4.75,6.31,6.31,0,0,1-6.1-4.73c-.48-1.75.27-3.62-1.89-7.89A12.84,12.84,0,0,1,6.1,67.64a5.43,5.43,0,0,1,.17,1.86A12.69,12.69,0,0,0,25,80.29Z"/><path class="cls-2" d="M-6.11,92.9A6.33,6.33,0,0,1,0,88.15a6.33,6.33,0,0,0,6.11-4.73c.47-1.75-.28-3.63,1.89-7.9a12.78,12.78,0,0,0,4.82,4.73,5.4,5.4,0,0,0-.17,1.86A12.7,12.7,0,0,1-6.11,92.9Z"/><path class="cls-2" d="M69.65,42.52a6.33,6.33,0,0,1,6.11-4.74A6.32,6.32,0,0,0,81.86,33c.48-1.75-.27-3.62,1.89-7.89a12.93,12.93,0,0,0,4.82,4.73,5.59,5.59,0,0,0-.17,1.85A12.69,12.69,0,0,1,69.65,42.52Z"/><path class="cls-2" d="M69.65,67.71A6.33,6.33,0,0,1,75.76,63a6.31,6.31,0,0,0,6.1-4.73c.48-1.75-.27-3.62,1.89-7.9a12.79,12.79,0,0,0,4.82,4.73,5.7,5.7,0,0,0-.17,1.86A12.69,12.69,0,0,1,69.65,67.71Z"/><path class="cls-2" d="M69.65,17.34a6.32,6.32,0,0,1,6.11-4.75,6.31,6.31,0,0,0,6.1-4.74c.48-1.74-.27-3.62,1.89-7.89a12.86,12.86,0,0,0,4.82,4.73,5.63,5.63,0,0,0-.17,1.85A12.69,12.69,0,0,1,69.65,17.34Z"/><path class="cls-2" d="M81.86,33a6.34,6.34,0,0,1-6.11,4.75,6.31,6.31,0,0,0-6.1,4.73c-.48,1.75.27,3.63-1.9,7.9a12.94,12.94,0,0,0-4.81-4.73,5.7,5.7,0,0,0,.17-1.86A12.69,12.69,0,0,1,81.86,33Z"/><path class="cls-2" d="M81.86,58.23A6.34,6.34,0,0,1,75.75,63a6.31,6.31,0,0,0-6.1,4.73c-.48,1.75.27,3.62-1.9,7.89a13,13,0,0,0-4.81-4.72A5.7,5.7,0,0,0,63.11,69,12.69,12.69,0,0,1,81.86,58.23Z"/><path class="cls-2" d="M81.86,7.85a6.33,6.33,0,0,1-6.11,4.75,6.3,6.3,0,0,0-6.1,4.74c-.48,1.74.27,3.62-1.9,7.89a13,13,0,0,0-4.81-4.73,5.63,5.63,0,0,0,.17-1.85A12.69,12.69,0,0,1,81.86,7.85Z"/><path class="cls-2" d="M50.69,20.44a6.34,6.34,0,0,0,6.11,4.74,6.31,6.31,0,0,1,6.1,4.74c.48,1.74-.27,3.62,1.9,7.89a12.51,12.51,0,0,1,4.81-4.73,5.63,5.63,0,0,1-.17-1.85A12.69,12.69,0,0,0,50.69,20.44Z"/><path class="cls-2" d="M12.81,20.44a6.34,6.34,0,0,0,6.11,4.74A6.32,6.32,0,0,1,25,29.92c.47,1.74-.28,3.62,1.89,7.89a13.31,13.31,0,0,1,4.81-4.73,5.72,5.72,0,0,1-.16-1.85A12.69,12.69,0,0,0,12.81,20.44Z"/><path class="cls-2" d="M69.65,42.52a6.31,6.31,0,0,1,6.1-4.74A6.33,6.33,0,0,0,81.86,33c.48-1.75-.27-3.62,1.89-7.89a12.93,12.93,0,0,0,4.82,4.73,5.33,5.33,0,0,0-.17,1.85A12.69,12.69,0,0,1,69.65,42.52Z"/><path class="cls-2" d="M31.77,42.52a6.34,6.34,0,0,1,6.11-4.74A6.31,6.31,0,0,0,44,33c.48-1.75-.27-3.62,1.9-7.89a12.89,12.89,0,0,0,4.81,4.73,5.68,5.68,0,0,0-.16,1.85A12.7,12.7,0,0,1,31.77,42.52Z"/><path class="cls-2" d="M50.69,45.62a6.33,6.33,0,0,0,6.11,4.75,6.31,6.31,0,0,1,6.1,4.73c.48,1.75-.27,3.63,1.9,7.9a13.44,13.44,0,0,1,4.81-4.73,5.67,5.67,0,0,1-.17-1.86A12.69,12.69,0,0,0,50.69,45.62Z"/><path class="cls-2" d="M-6.11,42.52A6.34,6.34,0,0,1,0,37.78,6.34,6.34,0,0,0,6.11,33c.47-1.75-.28-3.62,1.89-7.89a12.85,12.85,0,0,0,4.82,4.73,5.33,5.33,0,0,0-.17,1.85A12.7,12.7,0,0,1-6.11,42.52Z"/><path class="cls-2" d="M12.81,45.62a6.33,6.33,0,0,0,6.11,4.75A6.33,6.33,0,0,1,25,55.1c.47,1.75-.28,3.63,1.89,7.9a13.31,13.31,0,0,1,4.81-4.73,5.75,5.75,0,0,1-.16-1.86A12.7,12.7,0,0,0,12.81,45.62Z"/><path class="cls-2" d="M69.65,67.71A6.32,6.32,0,0,1,75.75,63a6.32,6.32,0,0,0,6.11-4.73c.48-1.75-.27-3.62,1.89-7.9a12.79,12.79,0,0,0,4.82,4.73,5.43,5.43,0,0,0-.17,1.86A12.69,12.69,0,0,1,69.65,67.71Z"/><path class="cls-2" d="M31.77,67.71A6.34,6.34,0,0,1,37.88,63,6.31,6.31,0,0,0,44,58.23c.48-1.75-.27-3.62,1.9-7.9a12.74,12.74,0,0,0,4.81,4.73,5.79,5.79,0,0,0-.16,1.86A12.7,12.7,0,0,1,31.77,67.71Z"/><path class="cls-2" d="M50.69,70.81a6.34,6.34,0,0,0,6.11,4.75,6.31,6.31,0,0,1,6.1,4.73c.48,1.75-.27,3.62,1.9,7.9a13.06,13.06,0,0,1,4.81-4.73,5.7,5.7,0,0,1-.17-1.86A12.69,12.69,0,0,0,50.69,70.81Z"/><path class="cls-2" d="M-6.11,67.71A6.34,6.34,0,0,1,0,63a6.33,6.33,0,0,0,6.11-4.73c.47-1.75-.28-3.62,1.89-7.9a12.71,12.71,0,0,0,4.82,4.73,5.43,5.43,0,0,0-.17,1.86A12.7,12.7,0,0,1-6.11,67.71Z"/><path class="cls-2" d="M12.81,70.81a6.34,6.34,0,0,0,6.11,4.75A6.33,6.33,0,0,1,25,80.29c.47,1.75-.28,3.62,1.89,7.9a13.23,13.23,0,0,1,4.81-4.73,5.79,5.79,0,0,1-.16-1.86A12.7,12.7,0,0,0,12.81,70.81Z"/><path class="cls-2" d="M50.69-4.75A6.34,6.34,0,0,0,56.8,0a6.32,6.32,0,0,1,6.1,4.74c.48,1.75-.27,3.62,1.9,7.89a13.34,13.34,0,0,1,4.81-4.73A5.59,5.59,0,0,1,69.44,6,12.69,12.69,0,0,0,50.69-4.75Z"/><path class="cls-2" d="M12.81-4.75A6.34,6.34,0,0,0,18.92,0,6.34,6.34,0,0,1,25,4.73c.47,1.75-.28,3.62,1.89,7.89a13.31,13.31,0,0,1,4.81-4.73A5.68,5.68,0,0,1,31.57,6,12.7,12.7,0,0,0,12.81-4.75Z"/><path class="cls-2" d="M69.65,17.34a6.31,6.31,0,0,1,6.1-4.75,6.31,6.31,0,0,0,6.11-4.74c.48-1.74-.27-3.62,1.89-7.89a12.86,12.86,0,0,0,4.82,4.73,5.36,5.36,0,0,0-.17,1.85A12.69,12.69,0,0,1,69.65,17.34Z"/><path class="cls-2" d="M31.77,17.34a6.33,6.33,0,0,1,6.11-4.75A6.3,6.3,0,0,0,44,7.85c.48-1.74-.27-3.62,1.9-7.89a12.81,12.81,0,0,0,4.81,4.73,5.72,5.72,0,0,0-.16,1.85A12.7,12.7,0,0,1,31.77,17.34Z"/><path class="cls-2" d="M-6.11,17.34A6.33,6.33,0,0,1,0,12.59,6.32,6.32,0,0,0,6.11,7.85C6.58,6.11,5.83,4.23,8,0a12.78,12.78,0,0,0,4.82,4.73,5.36,5.36,0,0,0-.17,1.85A12.7,12.7,0,0,1-6.11,17.34Z"/><path class="cls-2" d="M81.86,33a6.34,6.34,0,0,1-6.11,4.75,6.31,6.31,0,0,0-6.1,4.73c-.48,1.75.27,3.63-1.9,7.9a12.94,12.94,0,0,0-4.81-4.73,5.79,5.79,0,0,0,.16-1.86A12.7,12.7,0,0,1,81.86,33Z"/><path class="cls-2" d="M44,33a6.32,6.32,0,0,1-6.11,4.75,6.31,6.31,0,0,0-6.1,4.73c-.48,1.75.27,3.63-1.89,7.9a13,13,0,0,0-4.82-4.73,5.7,5.7,0,0,0,.17-1.86A12.69,12.69,0,0,1,44,33Z"/><path class="cls-2" d="M62.9,55.1a6.34,6.34,0,0,0-6.11-4.74,6.31,6.31,0,0,1-6.1-4.74c-.48-1.74.27-3.62-1.9-7.89A12,12,0,0,1,44,42.46a5.63,5.63,0,0,1,.17,1.85A12.69,12.69,0,0,0,62.9,55.1Z"/><path class="cls-2" d="M6.11,33A6.34,6.34,0,0,1,0,37.79a6.33,6.33,0,0,0-6.11,4.73c-.48,1.75.27,3.63-1.89,7.9a12.9,12.9,0,0,0-4.82-4.73,5.43,5.43,0,0,0,.17-1.86A12.7,12.7,0,0,1,6.11,33Z"/><path class="cls-2" d="M25,55.1a6.34,6.34,0,0,0-6.12-4.74,6.31,6.31,0,0,1-6.1-4.74c-.48-1.74.27-3.62-1.89-7.89A12.15,12.15,0,0,1,6.1,42.46a5.36,5.36,0,0,1,.17,1.85A12.69,12.69,0,0,0,25,55.1Z"/><path class="cls-2" d="M81.86,58.23A6.34,6.34,0,0,1,75.75,63a6.31,6.31,0,0,0-6.1,4.73c-.48,1.75.27,3.62-1.9,7.89a13,13,0,0,0-4.81-4.72A5.79,5.79,0,0,0,63.1,69,12.7,12.7,0,0,1,81.86,58.23Z"/><path class="cls-2" d="M44,58.23A6.32,6.32,0,0,1,37.87,63a6.31,6.31,0,0,0-6.1,4.73c-.48,1.75.27,3.62-1.89,7.89a13,13,0,0,0-4.82-4.72A5.7,5.7,0,0,0,25.23,69,12.69,12.69,0,0,1,44,58.23Z"/><path class="cls-2" d="M62.9,80.29a6.34,6.34,0,0,0-6.11-4.74,6.32,6.32,0,0,1-6.1-4.74c-.48-1.75.27-3.62-1.9-7.89A12.18,12.18,0,0,1,44,67.65a5.59,5.59,0,0,1,.17,1.85A12.69,12.69,0,0,0,62.9,80.29Z"/><path class="cls-2" d="M6.11,58.23A6.34,6.34,0,0,1,0,63a6.33,6.33,0,0,0-6.11,4.73c-.48,1.75.27,3.62-1.89,7.89a13,13,0,0,0-4.82-4.72A5.43,5.43,0,0,0-12.65,69,12.7,12.7,0,0,1,6.11,58.23Z"/><path class="cls-2" d="M25,80.29a6.34,6.34,0,0,0-6.12-4.74,6.32,6.32,0,0,1-6.1-4.74c-.48-1.75.27-3.62-1.89-7.89A12.59,12.59,0,0,1,6.1,67.65a5.33,5.33,0,0,1,.17,1.85A12.69,12.69,0,0,0,25,80.29Z"/><path class="cls-2" d="M62.9,4.73A6.34,6.34,0,0,0,56.79,0a6.31,6.31,0,0,1-6.1-4.73c-.48-1.75.27-3.62-1.9-7.9A12.73,12.73,0,0,1,44-7.92a5.7,5.7,0,0,1,.17,1.86A12.69,12.69,0,0,0,62.9,4.73Z"/><path class="cls-2" d="M25,4.73A6.35,6.35,0,0,0,18.91,0a6.31,6.31,0,0,1-6.1-4.73c-.48-1.75.27-3.62-1.89-7.9-.11.54-2.73,3.88-4.82,4.73a5.43,5.43,0,0,1,.17,1.86A12.69,12.69,0,0,0,25,4.73Z"/><path class="cls-2" d="M81.86,7.85a6.33,6.33,0,0,1-6.11,4.75,6.3,6.3,0,0,0-6.1,4.74c-.48,1.74.27,3.62-1.9,7.89a13,13,0,0,0-4.81-4.73,5.72,5.72,0,0,0,.16-1.85A12.7,12.7,0,0,1,81.86,7.85Z"/><path class="cls-2" d="M44,7.85a6.31,6.31,0,0,1-6.11,4.75,6.31,6.31,0,0,0-6.1,4.74c-.48,1.74.27,3.62-1.89,7.89a13.06,13.06,0,0,0-4.82-4.73,5.63,5.63,0,0,0,.17-1.85A12.69,12.69,0,0,1,44,7.85Z"/><path class="cls-2" d="M62.9,29.92a6.33,6.33,0,0,0-6.11-4.75,6.31,6.31,0,0,1-6.1-4.73c-.48-1.75.27-3.63-1.9-7.9A12.38,12.38,0,0,1,44,17.27a5.67,5.67,0,0,1,.17,1.86A12.69,12.69,0,0,0,62.9,29.92Z"/><path class="cls-2" d="M6.11,7.85A6.33,6.33,0,0,1,0,12.6a6.32,6.32,0,0,0-6.11,4.74C-6.59,19.08-5.84,21-8,25.23a13,13,0,0,0-4.82-4.73,5.36,5.36,0,0,0,.17-1.85A12.7,12.7,0,0,1,6.11,7.85Z"/><path class="cls-2" d="M25,29.92a6.34,6.34,0,0,0-6.12-4.75,6.31,6.31,0,0,1-6.1-4.73c-.48-1.75.27-3.63-1.89-7.9A12.59,12.59,0,0,1,6.1,17.27a5.4,5.4,0,0,1,.17,1.86A12.69,12.69,0,0,0,25,29.92Z"/><path class="cls-2" d="M-6.11,42.52A6.34,6.34,0,0,1,0,37.78,6.34,6.34,0,0,0,6.11,33c.47-1.75-.28-3.62,1.89-7.89a12.85,12.85,0,0,0,4.82,4.73,5.33,5.33,0,0,0-.17,1.85A12.7,12.7,0,0,1-6.11,42.52Z"/><path class="cls-2" d="M-6.11,67.71A6.34,6.34,0,0,1,0,63a6.33,6.33,0,0,0,6.11-4.73c.47-1.75-.28-3.62,1.89-7.9a12.71,12.71,0,0,0,4.82,4.73,5.43,5.43,0,0,0-.17,1.86A12.7,12.7,0,0,1-6.11,67.71Z"/><path class="cls-2" d="M-6.11,17.34A6.33,6.33,0,0,1,0,12.59,6.32,6.32,0,0,0,6.11,7.85C6.58,6.11,5.83,4.23,8,0a12.78,12.78,0,0,0,4.82,4.73,5.36,5.36,0,0,0-.17,1.85A12.7,12.7,0,0,1-6.11,17.34Z"/><path class="cls-2" d="M6.11,33A6.34,6.34,0,0,1,0,37.79a6.33,6.33,0,0,0-6.11,4.73c-.48,1.75.27,3.63-1.89,7.9a13,13,0,0,0-4.82-4.73,5.43,5.43,0,0,0,.17-1.86A12.7,12.7,0,0,1,6.11,33Z"/><path class="cls-2" d="M6.11,58.23A6.34,6.34,0,0,1,0,63a6.33,6.33,0,0,0-6.11,4.73c-.48,1.75.27,3.62-1.89,7.89a13,13,0,0,0-4.82-4.72A5.43,5.43,0,0,0-12.65,69,12.7,12.7,0,0,1,6.11,58.23Z"/><path class="cls-2" d="M6.11,7.85A6.33,6.33,0,0,1,0,12.6a6.32,6.32,0,0,0-6.11,4.74C-6.59,19.08-5.84,21-8,25.23a13.06,13.06,0,0,0-4.82-4.73,5.36,5.36,0,0,0,.17-1.85A12.7,12.7,0,0,1,6.11,7.85Z"/><path class="cls-2" d="M81.86-17.33a6.34,6.34,0,0,1-6.11,4.74,6.31,6.31,0,0,0-6.1,4.74c-.48,1.75.27,3.62-1.9,7.89a13,13,0,0,0-4.81-4.73,5.59,5.59,0,0,0,.17-1.85A12.69,12.69,0,0,1,81.86-17.33Z"/><path class="cls-2" d="M50.69-4.75A6.34,6.34,0,0,0,56.8,0a6.31,6.31,0,0,1,6.1,4.73c.48,1.75-.27,3.62,1.9,7.89a13.13,13.13,0,0,1,4.81-4.73A5.59,5.59,0,0,1,69.44,6,12.69,12.69,0,0,0,50.69-4.75Z"/><path class="cls-2" d="M12.81-4.75A6.34,6.34,0,0,0,18.92,0,6.33,6.33,0,0,1,25,4.73c.47,1.75-.28,3.62,1.89,7.89a13.31,13.31,0,0,1,4.81-4.73A5.68,5.68,0,0,1,31.57,6,12.7,12.7,0,0,0,12.81-4.75Z"/><path class="cls-2" d="M81.86-17.33a6.34,6.34,0,0,1-6.11,4.74,6.31,6.31,0,0,0-6.1,4.74c-.48,1.75.27,3.62-1.9,7.89a13,13,0,0,0-4.81-4.73,5.68,5.68,0,0,0,.16-1.85A12.7,12.7,0,0,1,81.86-17.33Z"/><path class="cls-2" d="M44-17.33a6.32,6.32,0,0,1-6.11,4.74,6.32,6.32,0,0,0-6.1,4.74C31.29-6.1,32-4.23,29.88,0a13.06,13.06,0,0,0-4.82-4.73,5.59,5.59,0,0,0,.17-1.85A12.69,12.69,0,0,1,44-17.33Z"/><path class="cls-2" d="M62.9,4.73A6.34,6.34,0,0,0,56.79,0a6.31,6.31,0,0,1-6.1-4.73c-.48-1.75.27-3.62-1.9-7.9A12.12,12.12,0,0,1,44-7.92a5.7,5.7,0,0,1,.17,1.86A12.69,12.69,0,0,0,62.9,4.73Z"/><path class="cls-2" d="M6.11-17.33A6.34,6.34,0,0,1,0-12.59,6.34,6.34,0,0,0-6.11-7.85C-6.59-6.1-5.84-4.23-8,0a13,13,0,0,0-4.82-4.73,5.33,5.33,0,0,0,.17-1.85A12.7,12.7,0,0,1,6.11-17.33Z"/><path class="cls-2" d="M25,4.73A6.35,6.35,0,0,0,18.91,0a6.31,6.31,0,0,1-6.1-4.73c-.48-1.75.27-3.62-1.89-7.9A12.59,12.59,0,0,1,6.1-7.92a5.43,5.43,0,0,1,.17,1.86A12.69,12.69,0,0,0,25,4.73Z"/><path class="cls-2" d="M6.11-17.33A6.34,6.34,0,0,1,0-12.59,6.34,6.34,0,0,0-6.11-7.85C-6.59-6.1-5.84-4.23-8,0a13.06,13.06,0,0,0-4.82-4.73,5.33,5.33,0,0,0,.17-1.85A12.7,12.7,0,0,1,6.11-17.33Z"/></pattern></defs><rect class="cls-3" x="0.77" y="2.35" width="895.65" height="900.4"/></svg>